<svg width="40" height="41" viewBox="0 0 40 41" fill="none" xmlns="http://www.w3.org/2000/svg">
<g clip-path="url(#clip0_9067_87809)">
<path d="M9 1.04749H26.0439L34.25 8.58459V36.2975C34.25 38.0923 32.7948 39.5474 31 39.5475H9C7.20507 39.5475 5.75 38.0924 5.75 36.2975V4.29749C5.75 2.50256 7.20507 1.04749 9 1.04749Z" stroke="#D0D5DD" stroke-width="1.5"/>
<mask id="path-2-inside-1_9067_87809" fill="white">
<path d="M25 1.29739H33.5V9.79739H26C25.4477 9.79739 25 9.34968 25 8.79739V1.29739Z"/>
</mask>
<path d="M25 1.29739H33.5H25ZM33.5 10.7974H26C24.8954 10.7974 24 9.90196 24 8.79739H26H33.5V10.7974ZM26 10.7974C24.8954 10.7974 24 9.90196 24 8.79739V1.29739H26V8.79739V10.7974ZM33.5 1.29739V9.79739V1.29739Z" fill="#D0D5DD" mask="url(#path-2-inside-1_9067_87809)"/>
<rect x="1" y="20.2975" width="15" height="13" rx="2" fill="#6172F3"/>
<path d="M8.32887 29.0575H5.70887L5.28887 30.2975H3.49887L6.03887 23.2775H8.01887L10.5589 30.2975H8.74887L8.32887 29.0575ZM7.88887 27.7375L7.01887 25.1675L6.15887 27.7375H7.88887ZM13.0419 23.2775V30.2975H11.3319V23.2775H13.0419Z" fill="white"/>
</g>
<defs>
<clipPath id="clip0_9067_87809">
<rect width="40" height="40" fill="white" transform="translate(0 0.297485)"/>
</clipPath>
</defs>
</svg>
