<svg width="40" height="41" viewBox="0 0 40 41" fill="none" xmlns="http://www.w3.org/2000/svg">
<g clip-path="url(#clip0_9067_87929)">
<path d="M9 1.04749H26.0439L34.25 8.58459V36.2975C34.25 38.0923 32.7948 39.5474 31 39.5475H9C7.20507 39.5475 5.75 38.0924 5.75 36.2975V4.29749C5.75 2.50256 7.20507 1.04749 9 1.04749Z" stroke="#D0D5DD" stroke-width="1.5"/>
<mask id="path-2-inside-1_9067_87929" fill="white">
<path d="M25 1.29749H33.5V9.79749H26C25.4477 9.79749 25 9.34977 25 8.79749V1.29749Z"/>
</mask>
<path d="M25 1.29749H33.5H25ZM33.5 10.7975H26C24.8954 10.7975 24 9.90205 24 8.79749H26H33.5V10.7975ZM26 10.7975C24.8954 10.7975 24 9.90205 24 8.79749V1.29749H26V8.79749V10.7975ZM33.5 1.29749V9.79749V1.29749Z" fill="#D0D5DD" mask="url(#path-2-inside-1_9067_87929)"/>
<rect x="1" y="20.2975" width="29" height="13" rx="2" fill="#2D3282"/>
<path d="M6.71875 23.2775C7.45875 23.2775 8.10542 23.4242 8.65875 23.7175C9.21208 24.0108 9.63875 24.4242 9.93875 24.9575C10.2454 25.4842 10.3988 26.0942 10.3988 26.7875C10.3988 27.4742 10.2454 28.0842 9.93875 28.6175C9.63875 29.1508 9.20875 29.5642 8.64875 29.8575C8.09542 30.1508 7.45208 30.2975 6.71875 30.2975H4.08875V23.2775H6.71875ZM6.60875 28.8175C7.25542 28.8175 7.75875 28.6408 8.11875 28.2875C8.47875 27.9342 8.65875 27.4342 8.65875 26.7875C8.65875 26.1408 8.47875 25.6375 8.11875 25.2775C7.75875 24.9175 7.25542 24.7375 6.60875 24.7375H5.79875V28.8175H6.60875ZM19.3044 23.2775V30.2975H17.5944V26.0875L16.0244 30.2975H14.6444L13.0644 26.0775V30.2975H11.3544V23.2775H13.3744L15.3444 28.1375L17.2944 23.2775H19.3044ZM25.1941 25.4975C25.0674 25.2642 24.8841 25.0875 24.6441 24.9675C24.4107 24.8408 24.1341 24.7775 23.8141 24.7775C23.2607 24.7775 22.8174 24.9608 22.4841 25.3275C22.1507 25.6875 21.9841 26.1708 21.9841 26.7775C21.9841 27.4242 22.1574 27.9308 22.5041 28.2975C22.8574 28.6575 23.3407 28.8375 23.9541 28.8375C24.3741 28.8375 24.7274 28.7308 25.0141 28.5175C25.3074 28.3042 25.5207 27.9975 25.6541 27.5975H23.4841V26.3375H27.2041V27.9275C27.0774 28.3542 26.8607 28.7508 26.5541 29.1175C26.2541 29.4842 25.8707 29.7808 25.4041 30.0075C24.9374 30.2342 24.4107 30.3475 23.8241 30.3475C23.1307 30.3475 22.5107 30.1975 21.9641 29.8975C21.4241 29.5908 21.0007 29.1675 20.6941 28.6275C20.3941 28.0875 20.2441 27.4708 20.2441 26.7775C20.2441 26.0842 20.3941 25.4675 20.6941 24.9275C21.0007 24.3808 21.4241 23.9575 21.9641 23.6575C22.5041 23.3508 23.1207 23.1975 23.8141 23.1975C24.6541 23.1975 25.3607 23.4008 25.9341 23.8075C26.5141 24.2142 26.8974 24.7775 27.0841 25.4975H25.1941Z" fill="white"/>
</g>
<defs>
<clipPath id="clip0_9067_87929">
<rect width="40" height="40" fill="white" transform="translate(0 0.297485)"/>
</clipPath>
</defs>
</svg>
