<svg width="40" height="41" viewBox="0 0 40 41" fill="none" xmlns="http://www.w3.org/2000/svg">
<g clip-path="url(#clip0_9067_87893)">
<path d="M9 1.04749H26.0439L34.25 8.58459V36.2975C34.25 38.0923 32.7948 39.5474 31 39.5475H9C7.20507 39.5475 5.75 38.0924 5.75 36.2975V4.29749C5.75 2.50256 7.20507 1.04749 9 1.04749Z" stroke="#D0D5DD" stroke-width="1.5"/>
<mask id="path-2-inside-1_9067_87893" fill="white">
<path d="M25 1.29749H33.5V9.79749H26C25.4477 9.79749 25 9.34977 25 8.79749V1.29749Z"/>
</mask>
<path d="M25 1.29749H33.5H25ZM33.5 10.7975H26C24.8954 10.7975 24 9.90205 24 8.79749H26H33.5V10.7975ZM26 10.7975C24.8954 10.7975 24 9.90205 24 8.79749V1.29749H26V8.79749V10.7975ZM33.5 1.29749V9.79749V1.29749Z" fill="#D0D5DD" mask="url(#path-2-inside-1_9067_87893)"/>
<rect x="1" y="20.2975" width="22" height="13" rx="2" fill="#2D3282"/>
<path d="M5.34563 24.6475V26.0675H7.63563V27.3875H5.34563V28.9275H7.93563V30.2975H3.63563V23.2775H7.93563V24.6475H5.34563ZM13.3458 30.2975L11.9158 28.1475L10.6558 30.2975H8.71578L10.9658 26.7275L8.66578 23.2775H10.6558L12.0658 25.3975L13.3058 23.2775H15.2458L13.0158 26.8175L15.3358 30.2975H13.3458ZM17.9042 24.6475V26.0675H20.1942V27.3875H17.9042V28.9275H20.4942V30.2975H16.1942V23.2775H20.4942V24.6475H17.9042Z" fill="white"/>
</g>
<defs>
<clipPath id="clip0_9067_87893">
<rect width="40" height="40" fill="white" transform="translate(0 0.297485)"/>
</clipPath>
</defs>
</svg>
