<svg width="40" height="41" viewBox="0 0 40 41" fill="none" xmlns="http://www.w3.org/2000/svg">
<g clip-path="url(#clip0_9067_87785)">
<path d="M9 1.04749H26.0439L34.25 8.58459V36.2975C34.25 38.0923 32.7948 39.5474 31 39.5475H9C7.20507 39.5475 5.75 38.0924 5.75 36.2975V4.29749C5.75 2.50256 7.20507 1.04749 9 1.04749Z" stroke="#D0D5DD" stroke-width="1.5"/>
<mask id="path-2-inside-1_9067_87785" fill="white">
<path d="M25 1.29749H33.5V9.79749H26C25.4477 9.79749 25 9.34977 25 8.79749V1.29749Z"/>
</mask>
<path d="M25 1.29749H33.5H25ZM33.5 10.7975H26C24.8954 10.7975 24 9.90205 24 8.79749H26H33.5V10.7975ZM26 10.7975C24.8954 10.7975 24 9.90205 24 8.79749V1.29749H26V8.79749V10.7975ZM33.5 1.29749V9.79749V1.29749Z" fill="#D0D5DD" mask="url(#path-2-inside-1_9067_87785)"/>
<rect x="1" y="20.2975" width="32" height="13" rx="2" fill="#2D3282"/>
<path d="M8.36277 23.2775V28.0575C8.36277 28.7975 8.15277 29.3675 7.73277 29.7675C7.31944 30.1675 6.75944 30.3675 6.05277 30.3675C5.31277 30.3675 4.71944 30.1575 4.27277 29.7375C3.82611 29.3175 3.60277 28.7208 3.60277 27.9475H5.30277C5.30277 28.2408 5.36277 28.4642 5.48277 28.6175C5.60277 28.7642 5.77611 28.8375 6.00277 28.8375C6.20944 28.8375 6.36944 28.7708 6.48277 28.6375C6.59611 28.5042 6.65277 28.3108 6.65277 28.0575V23.2775H8.36277ZM12.284 30.3675C11.7707 30.3675 11.3107 30.2842 10.904 30.1175C10.4974 29.9508 10.1707 29.7042 9.92402 29.3775C9.68402 29.0508 9.55736 28.6575 9.54402 28.1975H11.364C11.3907 28.4575 11.4807 28.6575 11.634 28.7975C11.7874 28.9308 11.9874 28.9975 12.234 28.9975C12.4874 28.9975 12.6874 28.9408 12.834 28.8275C12.9807 28.7075 13.054 28.5442 13.054 28.3375C13.054 28.1642 12.994 28.0208 12.874 27.9075C12.7607 27.7942 12.6174 27.7008 12.444 27.6275C12.2774 27.5542 12.0374 27.4708 11.724 27.3775C11.2707 27.2375 10.9007 27.0975 10.614 26.9575C10.3274 26.8175 10.0807 26.6108 9.87402 26.3375C9.66736 26.0642 9.56402 25.7075 9.56402 25.2675C9.56402 24.6142 9.80069 24.1042 10.274 23.7375C10.7474 23.3642 11.364 23.1775 12.124 23.1775C12.8974 23.1775 13.5207 23.3642 13.994 23.7375C14.4674 24.1042 14.7207 24.6175 14.754 25.2775H12.904C12.8907 25.0508 12.8074 24.8742 12.654 24.7475C12.5007 24.6142 12.304 24.5475 12.064 24.5475C11.8574 24.5475 11.6907 24.6042 11.564 24.7175C11.4374 24.8242 11.374 24.9808 11.374 25.1875C11.374 25.4142 11.4807 25.5908 11.694 25.7175C11.9074 25.8442 12.2407 25.9808 12.694 26.1275C13.1474 26.2808 13.514 26.4275 13.794 26.5675C14.0807 26.7075 14.3274 26.9108 14.534 27.1775C14.7407 27.4442 14.844 27.7875 14.844 28.2075C14.844 28.6075 14.7407 28.9708 14.534 29.2975C14.334 29.6242 14.0407 29.8842 13.654 30.0775C13.2674 30.2708 12.8107 30.3675 12.284 30.3675ZM19.2164 30.3675C18.5564 30.3675 17.9497 30.2142 17.3964 29.9075C16.8497 29.6008 16.413 29.1742 16.0864 28.6275C15.7664 28.0742 15.6064 27.4542 15.6064 26.7675C15.6064 26.0808 15.7664 25.4642 16.0864 24.9175C16.413 24.3708 16.8497 23.9442 17.3964 23.6375C17.9497 23.3308 18.5564 23.1775 19.2164 23.1775C19.8764 23.1775 20.4797 23.3308 21.0264 23.6375C21.5797 23.9442 22.013 24.3708 22.3264 24.9175C22.6464 25.4642 22.8064 26.0808 22.8064 26.7675C22.8064 27.4542 22.6464 28.0742 22.3264 28.6275C22.0064 29.1742 21.573 29.6008 21.0264 29.9075C20.4797 30.2142 19.8764 30.3675 19.2164 30.3675ZM19.2164 28.8075C19.7764 28.8075 20.223 28.6208 20.5564 28.2475C20.8964 27.8742 21.0664 27.3808 21.0664 26.7675C21.0664 26.1475 20.8964 25.6542 20.5564 25.2875C20.223 24.9142 19.7764 24.7275 19.2164 24.7275C18.6497 24.7275 18.1964 24.9108 17.8564 25.2775C17.523 25.6442 17.3564 26.1408 17.3564 26.7675C17.3564 27.3875 17.523 27.8842 17.8564 28.2575C18.1964 28.6242 18.6497 28.8075 19.2164 28.8075ZM30.0377 30.2975H28.3277L25.4677 25.9675V30.2975H23.7577V23.2775H25.4677L28.3277 27.6275V23.2775H30.0377V30.2975Z" fill="white"/>
</g>
<defs>
<clipPath id="clip0_9067_87785">
<rect width="40" height="40" fill="white" transform="translate(0 0.297485)"/>
</clipPath>
</defs>
</svg>
