<svg width="40" height="41" viewBox="0 0 40 41" fill="none" xmlns="http://www.w3.org/2000/svg">
<g clip-path="url(#clip0_9067_87941)">
<path d="M9 1.04749H26.0439L34.25 8.58459V36.2975C34.25 38.0923 32.7948 39.5474 31 39.5475H9C7.20507 39.5475 5.75 38.0924 5.75 36.2975V4.29749C5.75 2.50256 7.20507 1.04749 9 1.04749Z" stroke="#D0D5DD" stroke-width="1.5"/>
<mask id="path-2-inside-1_9067_87941" fill="white">
<path d="M25 1.29739H33.5V9.79739H26C25.4477 9.79739 25 9.34968 25 8.79739V1.29739Z"/>
</mask>
<path d="M25 1.29739H33.5H25ZM33.5 10.7974H26C24.8954 10.7974 24 9.90196 24 8.79739H26H33.5V10.7974ZM26 10.7974C24.8954 10.7974 24 9.90196 24 8.79739V1.29739H26V8.79739V10.7974ZM33.5 1.29739V9.79739V1.29739Z" fill="#D0D5DD" mask="url(#path-2-inside-1_9067_87941)"/>
<rect x="1" y="20.2975" width="28" height="13" rx="2" fill="#FDB022"/>
<path d="M11.8415 23.2775V30.2975H10.1315V26.0875L8.56148 30.2975H7.18148L5.60148 26.0775V30.2975H3.89148V23.2775H5.91148L7.88148 28.1375L9.83148 23.2775H11.8415ZM17.1412 30.2975L14.7812 27.1975V30.2975H13.0712V23.2775H14.7812V26.3575L17.1212 23.2775H19.1312L16.4112 26.7175L19.2312 30.2975H17.1412ZM26.6338 23.2775L24.1438 30.2975H22.0038L19.5138 23.2775H21.3338L23.0738 28.5775L24.8238 23.2775H26.6338Z" fill="white"/>
</g>
<defs>
<clipPath id="clip0_9067_87941">
<rect width="40" height="40" fill="white" transform="translate(0 0.297485)"/>
</clipPath>
</defs>
</svg>
