<svg width="40" height="41" viewBox="0 0 40 41" fill="none" xmlns="http://www.w3.org/2000/svg">
<g clip-path="url(#clip0_9067_87791)">
<path d="M9 1.04749H26.0439L34.25 8.58459V36.2975C34.25 38.0923 32.7948 39.5474 31 39.5475H9C7.20507 39.5475 5.75 38.0924 5.75 36.2975V4.29749C5.75 2.50256 7.20507 1.04749 9 1.04749Z" stroke="#D0D5DD" stroke-width="1.5"/>
<mask id="path-2-inside-1_9067_87791" fill="white">
<path d="M25 1.29739H33.5V9.79739H26C25.4477 9.79739 25 9.34968 25 8.79739V1.29739Z"/>
</mask>
<path d="M25 1.29739H33.5H25ZM33.5 10.7974H26C24.8954 10.7974 24 9.90196 24 8.79739H26H33.5V10.7974ZM26 10.7974C24.8954 10.7974 24 9.90196 24 8.79739V1.29739H26V8.79739V10.7974ZM33.5 1.29739V9.79739V1.29739Z" fill="#D0D5DD" mask="url(#path-2-inside-1_9067_87791)"/>
<rect x="1" y="20.2975" width="26" height="13" rx="2" fill="#DC6803"/>
<path d="M11.8327 23.2775V30.2975H10.1227V26.0875L8.5527 30.2975H7.1727L5.5927 26.0775V30.2975H3.8827V23.2775H5.9027L7.8727 28.1375L9.8227 23.2775H11.8327ZM18.4124 25.5375C18.4124 25.9442 18.319 26.3175 18.1324 26.6575C17.9457 26.9908 17.659 27.2608 17.2724 27.4675C16.8857 27.6742 16.4057 27.7775 15.8324 27.7775H14.7724V30.2975H13.0624V23.2775H15.8324C16.3924 23.2775 16.8657 23.3742 17.2524 23.5675C17.639 23.7608 17.929 24.0275 18.1224 24.3675C18.3157 24.7075 18.4124 25.0975 18.4124 25.5375ZM15.7024 26.4175C16.029 26.4175 16.2724 26.3408 16.4324 26.1875C16.5924 26.0342 16.6724 25.8175 16.6724 25.5375C16.6724 25.2575 16.5924 25.0408 16.4324 24.8875C16.2724 24.7342 16.029 24.6575 15.7024 24.6575H14.7724V26.4175H15.7024ZM19.1926 25.0575C19.2193 24.3442 19.4526 23.7942 19.8926 23.4075C20.3326 23.0208 20.9293 22.8275 21.6826 22.8275C22.1826 22.8275 22.6093 22.9142 22.9626 23.0875C23.3226 23.2608 23.5926 23.4975 23.7726 23.7975C23.9593 24.0975 24.0526 24.4342 24.0526 24.8075C24.0526 25.2475 23.9426 25.6075 23.7226 25.8875C23.5026 26.1608 23.246 26.3475 22.9526 26.4475V26.4875C23.3326 26.6142 23.6326 26.8242 23.8526 27.1175C24.0726 27.4108 24.1826 27.7875 24.1826 28.2475C24.1826 28.6608 24.086 29.0275 23.8926 29.3475C23.706 29.6608 23.4293 29.9075 23.0626 30.0875C22.7026 30.2675 22.2726 30.3575 21.7726 30.3575C20.9726 30.3575 20.3326 30.1608 19.8526 29.7675C19.3793 29.3742 19.1293 28.7808 19.1026 27.9875H20.7626C20.7693 28.2808 20.8526 28.5142 21.0126 28.6875C21.1726 28.8542 21.406 28.9375 21.7126 28.9375C21.9726 28.9375 22.1726 28.8642 22.3126 28.7175C22.4593 28.5642 22.5326 28.3642 22.5326 28.1175C22.5326 27.7975 22.4293 27.5675 22.2226 27.4275C22.0226 27.2808 21.6993 27.2075 21.2526 27.2075H20.9326V25.8175H21.2526C21.5926 25.8175 21.866 25.7608 22.0726 25.6475C22.286 25.5275 22.3926 25.3175 22.3926 25.0175C22.3926 24.7775 22.326 24.5908 22.1926 24.4575C22.0593 24.3242 21.876 24.2575 21.6426 24.2575C21.3893 24.2575 21.1993 24.3342 21.0726 24.4875C20.9526 24.6408 20.8826 24.8308 20.8626 25.0575H19.1926Z" fill="white"/>
</g>
<defs>
<clipPath id="clip0_9067_87791">
<rect width="40" height="40" fill="white" transform="translate(0 0.297485)"/>
</clipPath>
</defs>
</svg>
