<svg width="40" height="41" viewBox="0 0 40 41" fill="none" xmlns="http://www.w3.org/2000/svg">
<g clip-path="url(#clip0_9067_88077)">
<path d="M9 1.04749H26.0439L34.25 8.58459V36.2975C34.25 38.0923 32.7948 39.5474 31 39.5475H9C7.20507 39.5475 5.75 38.0924 5.75 36.2975V4.29749C5.75 2.50256 7.20507 1.04749 9 1.04749Z" stroke="#D0D5DD" stroke-width="1.5"/>
<mask id="path-2-inside-1_9067_88077" fill="white">
<path d="M25 1.29749H33.5V9.79749H26C25.4477 9.79749 25 9.34977 25 8.79749V1.29749Z"/>
</mask>
<path d="M25 1.29749H33.5H25ZM33.5 10.7975H26C24.8954 10.7975 24 9.90205 24 8.79749H26H33.5V10.7975ZM26 10.7975C24.8954 10.7975 24 9.90205 24 8.79749V1.29749H26V8.79749V10.7975ZM33.5 1.29749V9.79749V1.29749Z" fill="#D0D5DD" mask="url(#path-2-inside-1_9067_88077)"/>
<rect x="1" y="20.2975" width="25" height="13" rx="2" fill="#344054"/>
<path d="M7.49004 30.2975L6.03004 27.6475H5.62004V30.2975H3.91004V23.2775H6.78004C7.33337 23.2775 7.80337 23.3742 8.19004 23.5675C8.58337 23.7608 8.87671 24.0275 9.07004 24.3675C9.26337 24.7008 9.36004 25.0742 9.36004 25.4875C9.36004 25.9542 9.22671 26.3708 8.96004 26.7375C8.70004 27.1042 8.31337 27.3642 7.80004 27.5175L9.42004 30.2975H7.49004ZM5.62004 26.4375H6.68004C6.99337 26.4375 7.22671 26.3608 7.38004 26.2075C7.54004 26.0542 7.62004 25.8375 7.62004 25.5575C7.62004 25.2908 7.54004 25.0808 7.38004 24.9275C7.22671 24.7742 6.99337 24.6975 6.68004 24.6975H5.62004V26.4375ZM14.8035 29.0575H12.1835L11.7635 30.2975H9.97348L12.5135 23.2775H14.4935L17.0335 30.2975H15.2235L14.8035 29.0575ZM14.3635 27.7375L13.4935 25.1675L12.6335 27.7375H14.3635ZM21.3865 30.2975L19.9265 27.6475H19.5165V30.2975H17.8065V23.2775H20.6765C21.2299 23.2775 21.6999 23.3742 22.0865 23.5675C22.4799 23.7608 22.7732 24.0275 22.9665 24.3675C23.1599 24.7008 23.2565 25.0742 23.2565 25.4875C23.2565 25.9542 23.1232 26.3708 22.8565 26.7375C22.5965 27.1042 22.2099 27.3642 21.6965 27.5175L23.3165 30.2975H21.3865ZM19.5165 26.4375H20.5765C20.8899 26.4375 21.1232 26.3608 21.2765 26.2075C21.4365 26.0542 21.5165 25.8375 21.5165 25.5575C21.5165 25.2908 21.4365 25.0808 21.2765 24.9275C21.1232 24.7742 20.8899 24.6975 20.5765 24.6975H19.5165V26.4375Z" fill="white"/>
</g>
<defs>
<clipPath id="clip0_9067_88077">
<rect width="40" height="40" fill="white" transform="translate(0 0.297485)"/>
</clipPath>
</defs>
</svg>
