<svg width="40" height="41" viewBox="0 0 40 41" fill="none" xmlns="http://www.w3.org/2000/svg">
<g clip-path="url(#clip0_9067_87851)">
<path d="M9 1.04749H26.0439L34.25 8.58459V36.2975C34.25 38.0923 32.7948 39.5474 31 39.5475H9C7.20507 39.5475 5.75 38.0924 5.75 36.2975V4.29749C5.75 2.50256 7.20507 1.04749 9 1.04749Z" stroke="#D0D5DD" stroke-width="1.5"/>
<mask id="path-2-inside-1_9067_87851" fill="white">
<path d="M25 1.29749H33.5V9.79749H26C25.4477 9.79749 25 9.34977 25 8.79749V1.29749Z"/>
</mask>
<path d="M25 1.29749H33.5H25ZM33.5 10.7975H26C24.8954 10.7975 24 9.90205 24 8.79749H26H33.5V10.7975ZM26 10.7975C24.8954 10.7975 24 9.90205 24 8.79749V1.29749H26V8.79749V10.7975ZM33.5 1.29749V9.79749V1.29749Z" fill="#D0D5DD" mask="url(#path-2-inside-1_9067_87851)"/>
<rect x="1" y="20.2975" width="23" height="13" rx="2" fill="#2D3282"/>
<path d="M7.28594 30.2975L5.82594 27.6475H5.41594V30.2975H3.70594V23.2775H6.57594C7.12927 23.2775 7.59927 23.3742 7.98594 23.5675C8.37927 23.7608 8.6726 24.0275 8.86594 24.3675C9.05927 24.7008 9.15594 25.0742 9.15594 25.4875C9.15594 25.9542 9.0226 26.3708 8.75594 26.7375C8.49594 27.1042 8.10927 27.3642 7.59594 27.5175L9.21594 30.2975H7.28594ZM5.41594 26.4375H6.47594C6.78927 26.4375 7.0226 26.3608 7.17594 26.2075C7.33594 26.0542 7.41594 25.8375 7.41594 25.5575C7.41594 25.2908 7.33594 25.0808 7.17594 24.9275C7.0226 24.7742 6.78927 24.6975 6.47594 24.6975H5.41594V26.4375ZM12.7694 30.3675C12.256 30.3675 11.796 30.2842 11.3894 30.1175C10.9827 29.9508 10.656 29.7042 10.4094 29.3775C10.1694 29.0508 10.0427 28.6575 10.0294 28.1975H11.8494C11.876 28.4575 11.966 28.6575 12.1194 28.7975C12.2727 28.9308 12.4727 28.9975 12.7194 28.9975C12.9727 28.9975 13.1727 28.9408 13.3194 28.8275C13.466 28.7075 13.5394 28.5442 13.5394 28.3375C13.5394 28.1642 13.4794 28.0208 13.3594 27.9075C13.246 27.7942 13.1027 27.7008 12.9294 27.6275C12.7627 27.5542 12.5227 27.4708 12.2094 27.3775C11.756 27.2375 11.386 27.0975 11.0994 26.9575C10.8127 26.8175 10.566 26.6108 10.3594 26.3375C10.1527 26.0642 10.0494 25.7075 10.0494 25.2675C10.0494 24.6142 10.286 24.1042 10.7594 23.7375C11.2327 23.3642 11.8494 23.1775 12.6094 23.1775C13.3827 23.1775 14.006 23.3642 14.4794 23.7375C14.9527 24.1042 15.206 24.6175 15.2394 25.2775H13.3894C13.376 25.0508 13.2927 24.8742 13.1394 24.7475C12.986 24.6142 12.7894 24.5475 12.5494 24.5475C12.3427 24.5475 12.176 24.6042 12.0494 24.7175C11.9227 24.8242 11.8594 24.9808 11.8594 25.1875C11.8594 25.4142 11.966 25.5908 12.1794 25.7175C12.3927 25.8442 12.726 25.9808 13.1794 26.1275C13.6327 26.2808 13.9994 26.4275 14.2794 26.5675C14.566 26.7075 14.8127 26.9108 15.0194 27.1775C15.226 27.4442 15.3294 27.7875 15.3294 28.2075C15.3294 28.6075 15.226 28.9708 15.0194 29.2975C14.8194 29.6242 14.526 29.8842 14.1394 30.0775C13.7527 30.2708 13.296 30.3675 12.7694 30.3675ZM18.9217 30.3675C18.4084 30.3675 17.9484 30.2842 17.5417 30.1175C17.1351 29.9508 16.8084 29.7042 16.5617 29.3775C16.3217 29.0508 16.1951 28.6575 16.1817 28.1975H18.0017C18.0284 28.4575 18.1184 28.6575 18.2717 28.7975C18.4251 28.9308 18.6251 28.9975 18.8717 28.9975C19.1251 28.9975 19.3251 28.9408 19.4717 28.8275C19.6184 28.7075 19.6917 28.5442 19.6917 28.3375C19.6917 28.1642 19.6317 28.0208 19.5117 27.9075C19.3984 27.7942 19.2551 27.7008 19.0817 27.6275C18.9151 27.5542 18.6751 27.4708 18.3617 27.3775C17.9084 27.2375 17.5384 27.0975 17.2517 26.9575C16.9651 26.8175 16.7184 26.6108 16.5117 26.3375C16.3051 26.0642 16.2017 25.7075 16.2017 25.2675C16.2017 24.6142 16.4384 24.1042 16.9117 23.7375C17.3851 23.3642 18.0017 23.1775 18.7617 23.1775C19.5351 23.1775 20.1584 23.3642 20.6317 23.7375C21.1051 24.1042 21.3584 24.6175 21.3917 25.2775H19.5417C19.5284 25.0508 19.4451 24.8742 19.2917 24.7475C19.1384 24.6142 18.9417 24.5475 18.7017 24.5475C18.4951 24.5475 18.3284 24.6042 18.2017 24.7175C18.0751 24.8242 18.0117 24.9808 18.0117 25.1875C18.0117 25.4142 18.1184 25.5908 18.3317 25.7175C18.5451 25.8442 18.8784 25.9808 19.3317 26.1275C19.7851 26.2808 20.1517 26.4275 20.4317 26.5675C20.7184 26.7075 20.9651 26.9108 21.1717 27.1775C21.3784 27.4442 21.4817 27.7875 21.4817 28.2075C21.4817 28.6075 21.3784 28.9708 21.1717 29.2975C20.9717 29.6242 20.6784 29.8842 20.2917 30.0775C19.9051 30.2708 19.4484 30.3675 18.9217 30.3675Z" fill="white"/>
</g>
<defs>
<clipPath id="clip0_9067_87851">
<rect width="40" height="40" fill="white" transform="translate(0 0.297485)"/>
</clipPath>
</defs>
</svg>
