<svg width="40" height="41" viewBox="0 0 40 41" fill="none" xmlns="http://www.w3.org/2000/svg">
<g clip-path="url(#clip0_9067_87887)">
<path d="M9 1.04749H26.0439L34.25 8.58459V36.2975C34.25 38.0923 32.7948 39.5474 31 39.5475H9C7.20507 39.5475 5.75 38.0924 5.75 36.2975V4.29749C5.75 2.50256 7.20507 1.04749 9 1.04749Z" stroke="#D0D5DD" stroke-width="1.5"/>
<mask id="path-2-inside-1_9067_87887" fill="white">
<path d="M25 1.29749H33.5V9.79749H26C25.4477 9.79749 25 9.34977 25 8.79749V1.29749Z"/>
</mask>
<path d="M25 1.29749H33.5H25ZM33.5 10.7975H26C24.8954 10.7975 24 9.90205 24 8.79749H26H33.5V10.7975ZM26 10.7975C24.8954 10.7975 24 9.90205 24 8.79749V1.29749H26V8.79749V10.7975ZM33.5 1.29749V9.79749V1.29749Z" fill="#D0D5DD" mask="url(#path-2-inside-1_9067_87887)"/>
<rect x="1" y="20.2975" width="23" height="13" rx="2" fill="#2D3282"/>
<path d="M6.26059 30.3675C5.74725 30.3675 5.28725 30.2842 4.88059 30.1175C4.47392 29.9508 4.14725 29.7042 3.90059 29.3775C3.66059 29.0508 3.53392 28.6575 3.52059 28.1975H5.34059C5.36725 28.4575 5.45725 28.6575 5.61059 28.7975C5.76392 28.9308 5.96392 28.9975 6.21059 28.9975C6.46392 28.9975 6.66392 28.9408 6.81059 28.8275C6.95725 28.7075 7.03059 28.5442 7.03059 28.3375C7.03059 28.1642 6.97059 28.0208 6.85059 27.9075C6.73725 27.7942 6.59392 27.7008 6.42059 27.6275C6.25392 27.5542 6.01392 27.4708 5.70059 27.3775C5.24725 27.2375 4.87725 27.0975 4.59059 26.9575C4.30392 26.8175 4.05725 26.6108 3.85059 26.3375C3.64392 26.0642 3.54059 25.7075 3.54059 25.2675C3.54059 24.6142 3.77725 24.1042 4.25059 23.7375C4.72392 23.3642 5.34059 23.1775 6.10059 23.1775C6.87392 23.1775 7.49725 23.3642 7.97059 23.7375C8.44392 24.1042 8.69725 24.6175 8.73059 25.2775H6.88059C6.86725 25.0508 6.78392 24.8742 6.63059 24.7475C6.47725 24.6142 6.28059 24.5475 6.04059 24.5475C5.83392 24.5475 5.66725 24.6042 5.54059 24.7175C5.41392 24.8242 5.35059 24.9808 5.35059 25.1875C5.35059 25.4142 5.45725 25.5908 5.67059 25.7175C5.88392 25.8442 6.21725 25.9808 6.67059 26.1275C7.12392 26.2808 7.49059 26.4275 7.77059 26.5675C8.05725 26.7075 8.30392 26.9108 8.51059 27.1775C8.71725 27.4442 8.82059 27.7875 8.82059 28.2075C8.82059 28.6075 8.71725 28.9708 8.51059 29.2975C8.31059 29.6242 8.01725 29.8842 7.63059 30.0775C7.24392 30.2708 6.78725 30.3675 6.26059 30.3675ZM14.8729 31.4975L13.9729 30.2875C13.7063 30.3408 13.4463 30.3675 13.1929 30.3675C12.5329 30.3675 11.9263 30.2142 11.3729 29.9075C10.8263 29.6008 10.3896 29.1742 10.0629 28.6275C9.74293 28.0742 9.58293 27.4542 9.58293 26.7675C9.58293 26.0808 9.74293 25.4642 10.0629 24.9175C10.3896 24.3708 10.8263 23.9442 11.3729 23.6375C11.9263 23.3308 12.5329 23.1775 13.1929 23.1775C13.8529 23.1775 14.4563 23.3308 15.0029 23.6375C15.5563 23.9442 15.9896 24.3708 16.3029 24.9175C16.6229 25.4642 16.7829 26.0808 16.7829 26.7675C16.7829 27.3675 16.6596 27.9175 16.4129 28.4175C16.1729 28.9108 15.8363 29.3208 15.4029 29.6475L16.9429 31.4975H14.8729ZM11.3329 26.7675C11.3329 27.3875 11.4996 27.8842 11.8329 28.2575C12.1729 28.6242 12.6263 28.8075 13.1929 28.8075C13.7529 28.8075 14.1996 28.6208 14.5329 28.2475C14.8729 27.8742 15.0429 27.3808 15.0429 26.7675C15.0429 26.1475 14.8729 25.6542 14.5329 25.2875C14.1996 24.9142 13.7529 24.7275 13.1929 24.7275C12.6263 24.7275 12.1729 24.9108 11.8329 25.2775C11.4996 25.6442 11.3329 26.1408 11.3329 26.7675ZM19.4638 28.9775H21.7038V30.2975H17.7538V23.2775H19.4638V28.9775Z" fill="white"/>
</g>
<defs>
<clipPath id="clip0_9067_87887">
<rect width="40" height="40" fill="white" transform="translate(0 0.297485)"/>
</clipPath>
</defs>
</svg>
