<svg width="40" height="41" viewBox="0 0 40 41" fill="none" xmlns="http://www.w3.org/2000/svg">
<g clip-path="url(#clip0_9067_87827)">
<path d="M9 1.04749H26.0439L34.25 8.58459V36.2975C34.25 38.0923 32.7948 39.5474 31 39.5475H9C7.20507 39.5475 5.75 38.0924 5.75 36.2975V4.29749C5.75 2.50256 7.20507 1.04749 9 1.04749Z" stroke="#D0D5DD" stroke-width="1.5"/>
<mask id="path-2-inside-1_9067_87827" fill="white">
<path d="M25 1.29739H33.5V9.79739H26C25.4477 9.79739 25 9.34968 25 8.79739V1.29739Z"/>
</mask>
<path d="M25 1.29739H33.5H25ZM33.5 10.7974H26C24.8954 10.7974 24 9.90196 24 8.79739H26H33.5V10.7974ZM26 10.7974C24.8954 10.7974 24 9.90196 24 8.79739V1.29739H26V8.79739V10.7974ZM33.5 1.29739V9.79739V1.29739Z" fill="#D0D5DD" mask="url(#path-2-inside-1_9067_87827)"/>
<rect x="1" y="20.2975" width="30" height="13" rx="2" fill="#DC6803"/>
<path d="M13.6823 23.2775L11.8523 30.2975H9.78234L8.66234 25.6775L7.50234 30.2975H5.43234L3.65234 23.2775H5.48234L6.49234 28.3875L7.74234 23.2775H9.62234L10.8223 28.3875L11.8423 23.2775H13.6823ZM18.9099 29.0575H16.2899L15.8699 30.2975H14.0799L16.6199 23.2775H18.5999L21.1399 30.2975H19.3299L18.9099 29.0575ZM18.4699 27.7375L17.5999 25.1675L16.7399 27.7375H18.4699ZM28.503 23.2775L26.013 30.2975H23.873L21.383 23.2775H23.203L24.943 28.5775L26.693 23.2775H28.503Z" fill="white"/>
</g>
<defs>
<clipPath id="clip0_9067_87827">
<rect width="40" height="40" fill="white" transform="translate(0 0.297485)"/>
</clipPath>
</defs>
</svg>
