<svg width="40" height="40" viewBox="0 0 40 40" fill="none" xmlns="http://www.w3.org/2000/svg">
<path d="M9 0.75H26.0439L34.25 8.28711V36C34.25 37.7949 32.7948 39.2499 31 39.25H9C7.20507 39.25 5.75 37.7949 5.75 36V4C5.75 2.20507 7.20507 0.75 9 0.75Z" stroke="#D0D5DD" stroke-width="1.5"/>
<mask id="path-2-inside-1_9067_87905" fill="white">
<path d="M25 0.999908H33.5V9.49991H26C25.4477 9.49991 25 9.05219 25 8.49991V0.999908Z"/>
</mask>
<path d="M25 0.999908H33.5H25ZM33.5 10.4999H26C24.8954 10.4999 24 9.60448 24 8.49991H26H33.5V10.4999ZM26 10.4999C24.8954 10.4999 24 9.60448 24 8.49991V0.999908H26V8.49991V10.4999ZM33.5 0.999908V9.49991V0.999908Z" fill="#D0D5DD" mask="url(#path-2-inside-1_9067_87905)"/>
<rect x="1" y="20" width="33" height="13" rx="2" fill="#6172F3"/>
<path d="M13.4001 22.98L11.5701 30H9.50012L8.38012 25.38L7.22012 30H5.15012L3.37012 22.98H5.20012L6.21012 28.09L7.46012 22.98H9.34012L10.5401 28.09L11.5601 22.98H13.4001ZM15.9677 24.35V25.77H18.2577V27.09H15.9677V28.63H18.5577V30H14.2577V22.98H18.5577V24.35H15.9677ZM23.9179 26.4C24.3245 26.4867 24.6512 26.69 24.8979 27.01C25.1445 27.3234 25.2679 27.6834 25.2679 28.09C25.2679 28.6767 25.0612 29.1434 24.6479 29.49C24.2412 29.83 23.6712 30 22.9379 30H19.6679V22.98H22.8279C23.5412 22.98 24.0979 23.1434 24.4979 23.47C24.9045 23.7967 25.1079 24.24 25.1079 24.8C25.1079 25.2134 24.9979 25.5567 24.7779 25.83C24.5645 26.1034 24.2779 26.2934 23.9179 26.4ZM21.3779 25.82H22.4979C22.7779 25.82 22.9912 25.76 23.1379 25.64C23.2912 25.5134 23.3679 25.33 23.3679 25.09C23.3679 24.85 23.2912 24.6667 23.1379 24.54C22.9912 24.4134 22.7779 24.35 22.4979 24.35H21.3779V25.82ZM22.6379 28.62C22.9245 28.62 23.1445 28.5567 23.2979 28.43C23.4579 28.2967 23.5379 28.1067 23.5379 27.86C23.5379 27.6134 23.4545 27.42 23.2879 27.28C23.1279 27.14 22.9045 27.07 22.6179 27.07H21.3779V28.62H22.6379ZM31.6096 25.24C31.6096 25.6467 31.5163 26.02 31.3296 26.36C31.143 26.6934 30.8563 26.9634 30.4696 27.17C30.083 27.3767 29.603 27.48 29.0296 27.48H27.9696V30H26.2596V22.98H29.0296C29.5896 22.98 30.063 23.0767 30.4496 23.27C30.8363 23.4634 31.1263 23.73 31.3196 24.07C31.513 24.41 31.6096 24.8 31.6096 25.24ZM28.8996 26.12C29.2263 26.12 29.4696 26.0434 29.6296 25.89C29.7896 25.7367 29.8696 25.52 29.8696 25.24C29.8696 24.96 29.7896 24.7434 29.6296 24.59C29.4696 24.4367 29.2263 24.36 28.8996 24.36H27.9696V26.12H28.8996Z" fill="white"/>
</svg>
