<svg width="40" height="41" viewBox="0 0 40 41" fill="none" xmlns="http://www.w3.org/2000/svg">
<g clip-path="url(#clip0_9067_87857)">
<path d="M9 1.04749H26.0439L34.25 8.58459V36.2975C34.25 38.0923 32.7948 39.5474 31 39.5475H9C7.20507 39.5475 5.75 38.0924 5.75 36.2975V4.29749C5.75 2.50256 7.20507 1.04749 9 1.04749Z" stroke="#D0D5DD" stroke-width="1.5"/>
<mask id="path-2-inside-1_9067_87857" fill="white">
<path d="M25 1.29749H33.5V9.79749H26C25.4477 9.79749 25 9.34977 25 8.79749V1.29749Z"/>
</mask>
<path d="M25 1.29749H33.5H25ZM33.5 10.7975H26C24.8954 10.7975 24 9.90205 24 8.79749H26H33.5V10.7975ZM26 10.7975C24.8954 10.7975 24 9.90205 24 8.79749V1.29749H26V8.79749V10.7975ZM33.5 1.29749V9.79749V1.29749Z" fill="#D0D5DD" mask="url(#path-2-inside-1_9067_87857)"/>
<rect x="1" y="20.2975" width="26" height="13" rx="2" fill="#2D3282"/>
<path d="M8.37313 30.2975L6.94313 28.1475L5.68313 30.2975H3.74313L5.99313 26.7275L3.69313 23.2775H5.68313L7.09313 25.3975L8.33313 23.2775H10.2731L8.04313 26.8175L10.3631 30.2975H8.37313ZM19.1716 23.2775V30.2975H17.4616V26.0875L15.8916 30.2975H14.5116L12.9316 26.0775V30.2975H11.2216V23.2775H13.2416L15.2116 28.1375L17.1616 23.2775H19.1716ZM22.1113 28.9775H24.3513V30.2975H20.4013V23.2775H22.1113V28.9775Z" fill="white"/>
</g>
<defs>
<clipPath id="clip0_9067_87857">
<rect width="40" height="40" fill="white" transform="translate(0 0.297485)"/>
</clipPath>
</defs>
</svg>
