<svg width="18" height="19" viewBox="0 0 18 19" fill="none" xmlns="http://www.w3.org/2000/svg">
<path d="M9 17.5625C5.1 17.5625 1.935 14.39 1.935 10.4975C1.935 9.09498 2.3475 7.73748 3.1275 6.56748C3.3 6.31248 3.6525 6.23748 3.9075 6.40998C4.1625 6.58248 4.2375 6.93498 4.065 7.18998C3.4125 8.16498 3.0675 9.31248 3.0675 10.49C3.0675 13.7675 5.73 16.43 9.0075 16.43C12.285 16.43 14.9475 13.7675 14.9475 10.49C14.9475 7.21248 12.2775 4.54998 9 4.54998C8.31 4.54998 7.635 4.64748 6.9975 4.84248C6.6975 4.93248 6.3825 4.76748 6.2925 4.46748C6.2025 4.16748 6.3675 3.85248 6.6675 3.76248C7.4175 3.53748 8.1975 3.41748 9 3.41748C12.9 3.41748 16.065 6.58998 16.065 10.4825C16.065 14.375 12.9 17.5625 9 17.5625Z" fill="currentColor"/>
<path d="M5.90249 5.05259C5.77499 5.05259 5.63999 5.00759 5.53499 4.91759C5.29499 4.70759 5.27249 4.35509 5.47499 4.12259L7.64249 1.63259C7.84499 1.40009 8.20499 1.37009 8.43749 1.58009C8.66999 1.78259 8.69249 2.14259 8.48999 2.37509L6.32249 4.85759C6.20999 4.98509 6.05249 5.05259 5.90249 5.05259Z" fill="currentColor"/>
<path d="M8.43 6.89759C8.3175 6.89759 8.1975 6.8601 8.1 6.79259L5.565 4.94009C5.3175 4.76009 5.265 4.40759 5.445 4.16009C5.625 3.90509 5.9775 3.85259 6.2325 4.03259L8.76 5.87759C9.0075 6.05759 9.0675 6.41009 8.88 6.66509C8.775 6.82259 8.6025 6.89759 8.43 6.89759Z" fill="currentColor"/>
</svg>

<svg class="active" width="20" height="20" viewBox="0 0 20 20" fill="none" xmlns="http://www.w3.org/2000/svg">
<path d="M13.4917 1.66666H6.50834C3.475 1.66666 1.66667 3.47499 1.66667 6.50832V13.4833C1.66667 16.525 3.475 18.3333 6.50834 18.3333H13.4833C16.5167 18.3333 18.325 16.525 18.325 13.4917V6.50832C18.3333 3.47499 16.525 1.66666 13.4917 1.66666ZM10 15.4833C7.35834 15.4833 5.20834 13.3333 5.20834 10.6917C5.20834 9.74166 5.48334 8.81666 6.01667 8.03332C6.20834 7.74999 6.60001 7.66666 6.88334 7.85832C7.16667 8.04999 7.25001 8.44166 7.05834 8.72499C6.66667 9.30832 6.46667 9.99166 6.46667 10.6917C6.46667 12.6417 8.05834 14.2333 10.0083 14.2333C11.9583 14.2333 13.55 12.6417 13.55 10.6917C13.55 8.82499 12.1 7.29166 10.2667 7.15832L10.6083 7.40832C10.8833 7.60832 10.95 7.99999 10.7417 8.28332C10.5417 8.55832 10.15 8.62499 9.86667 8.41666L8.25 7.24166C8.19167 7.19999 8.14167 7.14999 8.10001 7.09166C8.09167 7.08332 8.08334 7.07499 8.075 7.05832C8.04167 6.99999 8.01667 6.93332 8.00001 6.86666C7.98334 6.78332 7.98334 6.70832 7.99167 6.62499C8.00001 6.59166 8.00834 6.55832 8.01667 6.52499C8.03334 6.46666 8.06667 6.41666 8.10001 6.35832C8.11667 6.34999 8.13334 6.33332 8.15 6.31666L9.53334 4.73332C9.75834 4.47499 10.1583 4.44999 10.4167 4.67499C10.675 4.89999 10.7 5.29999 10.475 5.55832L10.1667 5.91666C12.7333 5.99999 14.8 8.11666 14.8 10.7083C14.7917 13.3333 12.6417 15.4833 10 15.4833Z" fill="currentColor"/>
</svg>
