<svg width="21" height="21" viewBox="0 0 21 21" fill="none" xmlns="http://www.w3.org/2000/svg">
<path d="M17.832 8.83342H2.83203M13.6654 2.16675V5.50008M6.9987 2.16675V5.50008M6.83203 18.8334H13.832C15.2322 18.8334 15.9322 18.8334 16.467 18.5609C16.9374 18.3212 17.3199 17.9388 17.5595 17.4684C17.832 16.9336 17.832 16.2335 17.832 14.8334V7.83342C17.832 6.43328 17.832 5.73322 17.5595 5.19844C17.3199 4.72803 16.9374 4.34558 16.467 4.1059C15.9322 3.83341 15.2322 3.83341 13.832 3.83341H6.83203C5.4319 3.83341 4.73183 3.83341 4.19705 4.1059C3.72665 4.34558 3.3442 4.72803 3.10451 5.19844C2.83203 5.73322 2.83203 6.43328 2.83203 7.83341V14.8334C2.83203 16.2335 2.83203 16.9336 3.10451 17.4684C3.3442 17.9388 3.72665 18.3212 4.19705 18.5609C4.73183 18.8334 5.4319 18.8334 6.83203 18.8334Z" stroke="currentColor" stroke-width="1.5" stroke-linecap="round" stroke-linejoin="round"/>
</svg>
