<svg width="18" height="19" viewBox="0 0 18 19" fill="none" xmlns="http://www.w3.org/2000/svg">
<path d="M13.3425 17.5625H4.6575C2.6025 17.5625 0.9375 15.89 0.9375 13.835V8.27748C0.9375 7.25748 1.5675 5.97498 2.3775 5.34498L6.42 2.19498C7.635 1.24998 9.5775 1.20498 10.8375 2.08998L15.4725 5.33748C16.365 5.95998 17.0625 7.29498 17.0625 8.38248V13.8425C17.0625 15.89 15.3975 17.5625 13.3425 17.5625ZM7.11 3.07998L3.0675 6.22998C2.535 6.64998 2.0625 7.60248 2.0625 8.27748V13.835C2.0625 15.2675 3.225 16.4375 4.6575 16.4375H13.3425C14.775 16.4375 15.9375 15.275 15.9375 13.8425V8.38248C15.9375 7.66248 15.42 6.66498 14.8275 6.25998L10.1925 3.01248C9.3375 2.41248 7.9275 2.44248 7.11 3.07998Z" fill="currentColor"/>
<path d="M9 14.5625C8.6925 14.5625 8.4375 14.3075 8.4375 14V11.75C8.4375 11.4425 8.6925 11.1875 9 11.1875C9.3075 11.1875 9.5625 11.4425 9.5625 11.75V14C9.5625 14.3075 9.3075 14.5625 9 14.5625Z" fill="currentColor"/>
</svg>

<svg class="active" width="20" height="20" viewBox="0 0 20 20" fill="none" xmlns="http://www.w3.org/2000/svg">
<path d="M16.7 5.68324L11.9 2.32491C10.5917 1.40824 8.58334 1.45824 7.32501 2.43324L3.15001 5.69157C2.31667 6.34157 1.65834 7.67491 1.65834 8.72491V14.4749C1.65834 16.5999 3.38334 18.3332 5.50834 18.3332H14.4917C16.6167 18.3332 18.3417 16.6082 18.3417 14.4832V8.83324C18.3417 7.70824 17.6167 6.32491 16.7 5.68324ZM10.625 14.9999C10.625 15.3416 10.3417 15.6249 10 15.6249C9.65834 15.6249 9.37501 15.3416 9.37501 14.9999V12.4999C9.37501 12.1582 9.65834 11.8749 10 11.8749C10.3417 11.8749 10.625 12.1582 10.625 12.4999V14.9999Z" fill="currentColor"/>
</svg>
