<svg width="18" height="19" viewBox="0 0 18 19" fill="none" xmlns="http://www.w3.org/2000/svg">
<path d="M11.8575 15.6349C11.6625 15.6349 11.46 15.6274 11.2425 15.6049C10.8525 15.5749 10.41 15.4999 9.95249 15.3874L8.69249 15.0874C5.23499 14.2699 4.10249 12.4399 4.91249 8.98989L5.64749 5.84739C5.81249 5.13489 6.00749 4.55739 6.24749 4.07739C7.53749 1.41489 10.005 1.65489 11.76 2.06739L13.0125 2.35989C14.7675 2.77239 15.8775 3.42489 16.5 4.42239C17.115 5.41989 17.2125 6.70239 16.8 8.45739L16.065 11.5924C15.42 14.3374 14.0775 15.6349 11.8575 15.6349ZM9.83999 2.93739C8.58749 2.93739 7.79249 3.45489 7.25999 4.56489C7.06499 4.96989 6.89249 5.47239 6.74249 6.10239L6.00749 9.24489C5.33999 12.0799 6.11249 13.3174 8.94749 13.9924L10.2075 14.2924C10.6125 14.3899 10.995 14.4499 11.34 14.4799C13.38 14.6824 14.3925 13.7899 14.9625 11.3374L15.6975 8.20239C16.035 6.75489 15.99 5.74239 15.54 5.01489C15.09 4.28739 14.205 3.79239 12.75 3.45489L11.4975 3.16239C10.875 3.01239 10.32 2.93739 9.83999 2.93739Z" fill="currentColor"/>
<path d="M6.24749 17.1875C4.31999 17.1875 3.08999 16.0325 2.30249 13.595L1.34249 10.6325C0.277493 7.33251 1.22999 5.47251 4.51499 4.40751L5.69999 4.02501C6.08999 3.90501 6.38249 3.82251 6.64499 3.77751C6.86249 3.73251 7.07249 3.81501 7.19999 3.98751C7.32749 4.16001 7.34999 4.38501 7.25999 4.58001C7.06499 4.97751 6.89249 5.48001 6.74999 6.11001L6.01499 9.25251C5.34749 12.0875 6.11999 13.325 8.95499 14L10.215 14.3C10.62 14.3975 11.0025 14.4575 11.3475 14.4875C11.5875 14.51 11.7825 14.675 11.85 14.9075C11.91 15.14 11.82 15.38 11.625 15.515C11.13 15.8525 10.5075 16.1375 9.71999 16.3925L8.53499 16.7825C7.67249 17.0525 6.92249 17.1875 6.24749 17.1875ZM5.83499 5.16501L4.86749 5.48001C2.18999 6.34251 1.55249 7.60251 2.41499 10.2875L3.37499 13.25C4.24499 15.9275 5.50499 16.5725 8.18249 15.71L9.36749 15.32C9.41249 15.305 9.44999 15.29 9.49499 15.275L8.69999 15.0875C5.24249 14.27 4.10999 12.44 4.91999 8.99001L5.65499 5.84751C5.70749 5.60751 5.76749 5.37501 5.83499 5.16501Z" fill="currentColor"/>
<path d="M13.1175 8.38258C13.0725 8.38258 13.0275 8.37508 12.975 8.36758L9.3375 7.44508C9.0375 7.37008 8.8575 7.06258 8.9325 6.76258C9.0075 6.46258 9.315 6.28258 9.615 6.35758L13.2525 7.28008C13.5525 7.35508 13.7325 7.66258 13.6575 7.96258C13.5975 8.21008 13.365 8.38258 13.1175 8.38258Z" fill="currentColor"/>
<path d="M10.92 10.9174C10.875 10.9174 10.83 10.9099 10.7775 10.9024L8.595 10.3474C8.295 10.2724 8.115 9.96492 8.19 9.66492C8.265 9.36492 8.5725 9.18492 8.8725 9.25992L11.055 9.81492C11.355 9.88992 11.535 10.1974 11.46 10.4974C11.4 10.7524 11.175 10.9174 10.92 10.9174Z" fill="currentColor"/>
</svg>
