<svg width="18" height="18" viewBox="0 0 18 18" fill="none" xmlns="http://www.w3.org/2000/svg">
<path d="M12.7428 7.28247H5.25781C4.95031 7.28247 4.69531 7.02747 4.69531 6.71997C4.69531 6.41247 4.95031 6.15747 5.25781 6.15747H12.7428C13.0503 6.15747 13.3053 6.41247 13.3053 6.71997C13.3053 7.02747 13.0503 7.28247 12.7428 7.28247Z" fill="currentColor"/>
<path d="M9 7.28252C8.6925 7.28252 8.4375 7.02752 8.4375 6.72002V5.46002C8.4375 5.15252 8.6925 4.89752 9 4.89752C9.3075 4.89752 9.5625 5.15252 9.5625 5.46002V6.72002C9.5625 7.02752 9.3075 7.28252 9 7.28252Z" fill="currentColor"/>
<path d="M5.25 13.1024C4.9425 13.1024 4.6875 12.8474 4.6875 12.5399C4.6875 12.2324 4.9425 11.9774 5.25 11.9774C8.04 11.9774 10.3125 9.61496 10.3125 6.70496C10.3125 6.39746 10.5675 6.14246 10.875 6.14246C11.1825 6.14246 11.4375 6.39746 11.4375 6.70496C11.4375 10.2375 8.6625 13.1024 5.25 13.1024Z" fill="currentColor"/>
<path d="M12.7509 13.1025C11.2734 13.1025 9.9009 12.3675 8.8959 11.025C8.7084 10.7775 8.76092 10.425 9.00842 10.2375C9.25592 10.05 9.60841 10.1025 9.79591 10.35C10.5909 11.4 11.6409 11.9775 12.7584 11.9775C13.0659 11.9775 13.3209 12.2325 13.3209 12.54C13.3209 12.8475 13.0584 13.1025 12.7509 13.1025Z" fill="currentColor"/>
<path d="M11.25 17.0625H6.75C2.6775 17.0625 0.9375 15.3225 0.9375 11.25V6.75C0.9375 2.6775 2.6775 0.9375 6.75 0.9375H11.25C15.3225 0.9375 17.0625 2.6775 17.0625 6.75V11.25C17.0625 15.3225 15.3225 17.0625 11.25 17.0625ZM6.75 2.0625C3.2925 2.0625 2.0625 3.2925 2.0625 6.75V11.25C2.0625 14.7075 3.2925 15.9375 6.75 15.9375H11.25C14.7075 15.9375 15.9375 14.7075 15.9375 11.25V6.75C15.9375 3.2925 14.7075 2.0625 11.25 2.0625H6.75Z" fill="currentColor"/>
</svg>
