<svg width="20" height="20" viewBox="0 0 20 20" fill="none" xmlns="http://www.w3.org/2000/svg">
<mask id="path-1-inside-1_9880_6393" fill="white">
<path d="M9.10834 18.9584C8.70834 18.9584 8.30837 18.8584 7.9417 18.6584C7.20003 18.2417 6.75833 17.5 6.75833 16.6583V12.2C6.75833 11.775 6.48332 11.15 6.22499 10.825L3.05833 7.50003C2.53333 6.97503 2.125 6.05835 2.125 5.38335V3.45004C2.125 2.10837 3.14168 1.05835 4.43335 1.05835H15.55C16.825 1.05835 17.8583 2.0917 17.8583 3.3667V5.2167C17.8583 6.0917 17.3334 7.10001 16.8334 7.59168C16.5917 7.83335 16.1917 7.83335 15.95 7.59168C15.7084 7.35001 15.7084 6.95002 15.95 6.70835C16.2584 6.40002 16.6083 5.70837 16.6083 5.2167V3.3667C16.6083 2.78337 16.1333 2.30835 15.55 2.30835H4.43335C3.84168 2.30835 3.375 2.80837 3.375 3.45004V5.38335C3.375 5.69168 3.625 6.30004 3.95 6.62504L7.15837 10C7.58337 10.525 7.99999 11.4084 7.99999 12.2V16.6583C7.99999 17.2084 8.37501 17.475 8.54168 17.5667C8.90001 17.7667 9.32503 17.7584 9.65837 17.5584L10.825 16.8084C11.0667 16.6667 11.3 16.2083 11.3 15.9C11.3 15.5583 11.5833 15.275 11.925 15.275C12.2667 15.275 12.55 15.5583 12.55 15.9C12.55 16.65 12.0833 17.5084 11.4917 17.8667L10.3334 18.6167C9.95836 18.8417 9.53334 18.9584 9.10834 18.9584Z"/>
</mask>
<path d="M9.10834 18.9584C8.70834 18.9584 8.30837 18.8584 7.9417 18.6584C7.20003 18.2417 6.75833 17.5 6.75833 16.6583V12.2C6.75833 11.775 6.48332 11.15 6.22499 10.825L3.05833 7.50003C2.53333 6.97503 2.125 6.05835 2.125 5.38335V3.45004C2.125 2.10837 3.14168 1.05835 4.43335 1.05835H15.55C16.825 1.05835 17.8583 2.0917 17.8583 3.3667V5.2167C17.8583 6.0917 17.3334 7.10001 16.8334 7.59168C16.5917 7.83335 16.1917 7.83335 15.95 7.59168C15.7084 7.35001 15.7084 6.95002 15.95 6.70835C16.2584 6.40002 16.6083 5.70837 16.6083 5.2167V3.3667C16.6083 2.78337 16.1333 2.30835 15.55 2.30835H4.43335C3.84168 2.30835 3.375 2.80837 3.375 3.45004V5.38335C3.375 5.69168 3.625 6.30004 3.95 6.62504L7.15837 10C7.58337 10.525 7.99999 11.4084 7.99999 12.2V16.6583C7.99999 17.2084 8.37501 17.475 8.54168 17.5667C8.90001 17.7667 9.32503 17.7584 9.65837 17.5584L10.825 16.8084C11.0667 16.6667 11.3 16.2083 11.3 15.9C11.3 15.5583 11.5833 15.275 11.925 15.275C12.2667 15.275 12.55 15.5583 12.55 15.9C12.55 16.65 12.0833 17.5084 11.4917 17.8667L10.3334 18.6167C9.95836 18.8417 9.53334 18.9584 9.10834 18.9584Z" fill="currentColor"/>
<path d="M7.9417 18.6584L7.20701 19.9661L7.21519 19.9707L7.22342 19.9752L7.9417 18.6584ZM6.22499 10.825L7.39922 9.89165L7.35747 9.83912L7.31119 9.79053L6.22499 10.825ZM3.05833 7.50003L4.14454 6.46554L4.13192 6.4523L4.11899 6.43936L3.05833 7.50003ZM16.8334 7.59168L15.7816 6.52211L15.7727 6.53102L16.8334 7.59168ZM3.95 6.62504L5.03716 5.59155L5.02408 5.5778L5.01066 5.56438L3.95 6.62504ZM7.15837 10L8.32423 9.05623L8.28666 9.00982L8.24552 8.96654L7.15837 10ZM8.54168 17.5667L9.27274 16.2569L9.26456 16.2524L8.54168 17.5667ZM9.65837 17.5584L10.4301 18.8446L10.45 18.8327L10.4695 18.8201L9.65837 17.5584ZM10.825 16.8084L10.0664 15.5143L10.0398 15.5299L10.0139 15.5466L10.825 16.8084ZM11.4917 17.8667L10.7146 16.5837L10.6953 16.5953L10.6764 16.6076L11.4917 17.8667ZM10.3334 18.6167L11.1051 19.9029L11.1271 19.8897L11.1486 19.8758L10.3334 18.6167ZM9.10834 18.9584V17.4584C8.95994 17.4584 8.80686 17.4216 8.65998 17.3415L7.9417 18.6584L7.22342 19.9752C7.80988 20.2951 8.45674 20.4584 9.10834 20.4584V18.9584ZM7.9417 18.6584L8.6764 17.3506C8.39611 17.1931 8.25833 16.9449 8.25833 16.6583H6.75833H5.25833C5.25833 18.0551 6.00396 19.2903 7.20701 19.9661L7.9417 18.6584ZM6.75833 16.6583H8.25833V12.2H6.75833H5.25833V16.6583H6.75833ZM6.75833 12.2H8.25833C8.25833 11.7139 8.11417 11.2468 7.97924 10.9129C7.83826 10.5641 7.63863 10.1928 7.39922 9.89165L6.22499 10.825L5.05075 11.7584C5.05073 11.7584 5.05244 11.7605 5.05574 11.7651C5.05901 11.7696 5.06342 11.776 5.06884 11.7842C5.07984 11.801 5.09335 11.823 5.10847 11.85C5.13928 11.905 5.17063 11.9698 5.19783 12.0371C5.22535 12.1052 5.24336 12.1628 5.25326 12.2038C5.2644 12.2499 5.25833 12.246 5.25833 12.2H6.75833ZM6.22499 10.825L7.31119 9.79053L4.14454 6.46554L3.05833 7.50003L1.97212 8.53451L5.13878 11.8595L6.22499 10.825ZM3.05833 7.50003L4.11899 6.43936C4.01294 6.33332 3.87568 6.13782 3.7666 5.89118C3.65413 5.63692 3.625 5.44993 3.625 5.38335H2.125H0.625C0.625 5.99177 0.800031 6.60062 1.02298 7.10469C1.24931 7.61639 1.57872 8.14173 1.99767 8.56069L3.05833 7.50003ZM2.125 5.38335H3.625V3.45004H2.125H0.625V5.38335H2.125ZM2.125 3.45004H3.625C3.625 2.88762 4.01845 2.55835 4.43335 2.55835V1.05835V-0.44165C2.26491 -0.44165 0.625 1.32913 0.625 3.45004H2.125ZM4.43335 1.05835V2.55835H15.55V1.05835V-0.44165H4.43335V1.05835ZM15.55 1.05835V2.55835C15.9966 2.55835 16.3583 2.92013 16.3583 3.3667H17.8583H19.3583C19.3583 1.26327 17.6534 -0.44165 15.55 -0.44165V1.05835ZM17.8583 3.3667H16.3583V5.2167H17.8583H19.3583V3.3667H17.8583ZM17.8583 5.2167H16.3583C16.3583 5.37585 16.304 5.6299 16.1696 5.92319C16.0354 6.21627 15.8758 6.42956 15.7816 6.52214L16.8334 7.59168L17.8851 8.66122C18.2909 8.26213 18.6438 7.72544 18.8971 7.17269C19.1502 6.62015 19.3583 5.93255 19.3583 5.2167H17.8583ZM16.8334 7.59168L15.7727 6.53102C16.1168 6.1869 16.6666 6.1869 17.0107 6.53102L15.95 7.59168L14.8894 8.65234C15.7168 9.47979 17.0666 9.47979 17.894 8.65234L16.8334 7.59168ZM15.95 7.59168L17.0107 6.53102C17.3548 6.87514 17.3548 7.42489 17.0107 7.76901L15.95 6.70835L14.8894 5.64769C14.0619 6.47514 14.0619 7.82489 14.8894 8.65234L15.95 7.59168ZM15.95 6.70835L17.0107 7.76901C17.3264 7.45331 17.5817 7.03894 17.7566 6.66018C17.9276 6.28999 18.1083 5.76788 18.1083 5.2167H16.6083H15.1083C15.1083 5.171 15.1149 5.17027 15.1011 5.22135C15.0886 5.26743 15.0663 5.33038 15.033 5.40237C15 5.47375 14.9633 5.53905 14.9295 5.59044C14.8929 5.64616 14.8758 5.66129 14.8894 5.64769L15.95 6.70835ZM16.6083 5.2167H18.1083V3.3667H16.6083H15.1083V5.2167H16.6083ZM16.6083 3.3667H18.1083C18.1083 1.95494 16.9617 0.80835 15.55 0.80835V2.30835V3.80835C15.3049 3.80835 15.1083 3.61179 15.1083 3.3667H16.6083ZM15.55 2.30835V0.80835H4.43335V2.30835V3.80835H15.55V2.30835ZM4.43335 2.30835V0.80835C2.91103 0.80835 1.875 2.086 1.875 3.45004H3.375H4.875C4.875 3.49612 4.85634 3.57867 4.78129 3.65946C4.70352 3.74318 4.57663 3.80835 4.43335 3.80835V2.30835ZM3.375 3.45004H1.875V5.38335H3.375H4.875V3.45004H3.375ZM3.375 5.38335H1.875C1.875 5.84488 2.03279 6.29968 2.17067 6.60886C2.32059 6.94506 2.55614 7.35249 2.88934 7.6857L3.95 6.62504L5.01066 5.56438C5.02246 5.57617 5.01094 5.56678 4.98482 5.52614C4.96032 5.48804 4.93401 5.43956 4.91058 5.38703C4.8868 5.3337 4.87303 5.29199 4.86715 5.27024C4.8644 5.26007 4.86546 5.26193 4.86761 5.27534C4.86943 5.28673 4.875 5.32466 4.875 5.38335H3.375ZM3.95 6.62504L2.86284 7.65852L6.07121 11.0335L7.15837 10L8.24552 8.96654L5.03716 5.59155L3.95 6.62504ZM7.15837 10L5.9925 10.9438C6.10653 11.0847 6.24414 11.308 6.34974 11.5668C6.45704 11.8297 6.49999 12.0522 6.49999 12.2H7.99999H9.49999C9.49999 10.9714 8.89825 9.7653 8.32423 9.05623L7.15837 10ZM7.99999 12.2H6.49999V16.6583H7.99999H9.49999V12.2H7.99999ZM7.99999 16.6583H6.49999C6.49999 18.0208 7.46224 18.6849 7.8188 18.881L8.54168 17.5667L9.26456 16.2524C9.29171 16.2673 9.34034 16.2968 9.39098 16.3617C9.41961 16.3984 9.44916 16.4471 9.47077 16.5065C9.49301 16.5676 9.49999 16.6214 9.49999 16.6583H7.99999ZM8.54168 17.5667L7.81063 18.8765C8.62808 19.3327 9.62655 19.3267 10.4301 18.8446L9.65837 17.5584L8.88662 16.2721C9.02351 16.19 9.17194 16.2006 9.27273 16.2569L8.54168 17.5667ZM9.65837 17.5584L10.4695 18.8201L11.6362 18.0701L10.825 16.8084L10.0139 15.5466L8.84722 16.2966L9.65837 17.5584ZM10.825 16.8084L11.5836 18.1024C12.0584 17.824 12.3407 17.3851 12.4849 17.1069C12.6398 16.8081 12.8 16.3749 12.8 15.9H11.3H9.80001C9.80001 15.7991 9.81711 15.7413 9.81902 15.7347C9.82261 15.7223 9.82378 15.7218 9.82137 15.7265C9.81848 15.732 9.8231 15.7209 9.84411 15.6955C9.85849 15.678 9.92741 15.5958 10.0664 15.5143L10.825 16.8084ZM11.3 15.9H12.8C12.8 16.3868 12.4118 16.775 11.925 16.775V15.275V13.775C10.7549 13.775 9.80001 14.7299 9.80001 15.9H11.3ZM11.925 15.275V16.775C11.4382 16.775 11.05 16.3868 11.05 15.9H12.55H14.05C14.05 14.7299 13.0951 13.775 11.925 13.775V15.275ZM12.55 15.9H11.05C11.05 15.982 11.0182 16.1409 10.9228 16.3177C10.8786 16.3995 10.8304 16.4668 10.7864 16.5162C10.7412 16.5669 10.7135 16.5843 10.7146 16.5837L11.4917 17.8667L12.2687 19.1497C12.8482 18.7988 13.2797 18.2669 13.5627 17.7428C13.8485 17.2133 14.05 16.568 14.05 15.9H12.55ZM11.4917 17.8667L10.6764 16.6076L9.5181 17.3576L10.3334 18.6167L11.1486 19.8758L12.3069 19.1258L11.4917 17.8667ZM10.3334 18.6167L9.56162 17.3305C9.41844 17.4164 9.25995 17.4584 9.10834 17.4584V18.9584V20.4584C9.80672 20.4584 10.4983 20.267 11.1051 19.9029L10.3334 18.6167Z" fill="currentColor" mask="url(#path-1-inside-1_9880_6393)"/>
<path d="M13.3913 14.3916C11.5746 14.3916 10.0996 12.9167 10.0996 11.1C10.0996 9.28333 11.5746 7.80832 13.3913 7.80832C15.208 7.80832 16.683 9.28333 16.683 11.1C16.683 12.9167 15.208 14.3916 13.3913 14.3916ZM13.3913 9.05832C12.2663 9.05832 11.3496 9.975 11.3496 11.1C11.3496 12.225 12.2663 13.1416 13.3913 13.1416C14.5163 13.1416 15.433 12.225 15.433 11.1C15.433 9.975 14.5163 9.05832 13.3913 9.05832Z" fill="currentColor"/>
<path d="M16.5578 14.8917C16.3995 14.8917 16.2411 14.8333 16.1161 14.7083L15.2828 13.875C15.0411 13.6333 15.0411 13.2333 15.2828 12.9917C15.5245 12.75 15.9245 12.75 16.1661 12.9917L16.9995 13.825C17.2411 14.0667 17.2411 14.4667 16.9995 14.7083C16.8828 14.825 16.7161 14.8917 16.5578 14.8917Z" fill="currentColor"/>
</svg>
