<svg width="32" height="32" viewBox="0 0 32 32" fill="none" xmlns="http://www.w3.org/2000/svg">
<path d="M0.901009 10.7326C0.902943 10.7271 0.904642 10.722 0.906595 10.7165C0.910207 10.7062 0.913703 10.6958 0.917335 10.6855C0.878083 10.7971 0.836057 10.9071 0.799129 11.02C0.797918 11.0237 0.793544 11.0366 0.789189 11.0501C0.788681 11.0517 0.789814 11.0512 0.790634 11.0506C0.825473 10.9437 0.864003 10.8385 0.901009 10.7326Z" fill="url(#paint0_linear_4_5056)"/>
<path d="M18.9419 31.7197C18.8258 31.7415 18.7097 31.7654 18.5938 31.7845C18.71 31.7655 18.8258 31.7413 18.9419 31.7197Z" fill="url(#paint1_linear_4_5056)"/>
<path d="M17.4979 31.9224C17.4292 31.9288 17.3606 31.9353 17.292 31.9408C17.3606 31.9359 17.4292 31.9284 17.4979 31.9224Z" fill="url(#paint2_linear_4_5056)"/>
<path d="M13.6379 21.4179L11.2495 17.8055L11.188 17.7208L8.25664 13.3175L6.95668 11.3636H4.7153C4.6503 11.4771 4.55545 11.5716 4.44062 11.637C4.3258 11.7025 4.19517 11.7367 4.06231 11.736C3.86787 11.7382 3.68048 11.6646 3.54134 11.5315C3.40221 11.3984 3.32272 11.2166 3.32034 11.026C3.32298 10.8356 3.4026 10.6541 3.54171 10.5211C3.68081 10.3882 3.86804 10.3148 4.06231 10.3171C4.19513 10.3162 4.32576 10.3503 4.44059 10.4157C4.55542 10.4811 4.65028 10.5754 4.7153 10.6889H6.50721L5.37326 8.98438H0L2.88439 13.317L3.79682 14.6889H6.12872C6.19384 14.5755 6.28872 14.4811 6.40352 14.4157C6.51832 14.3502 6.64888 14.316 6.7817 14.3165C6.97615 14.3143 7.16354 14.3879 7.30267 14.521C7.44181 14.6541 7.5213 14.8359 7.52367 15.0265C7.52412 15.1486 7.49112 15.2685 7.42816 15.3739L10.701 20.3224C10.8336 20.3129 10.9664 20.3383 11.0856 20.396C11.2049 20.4538 11.3061 20.5417 11.379 20.6507C11.4312 20.7294 11.4666 20.8176 11.4832 20.91C11.4999 21.0024 11.4974 21.0971 11.4759 21.1886C11.4544 21.28 11.4143 21.3663 11.3581 21.4422C11.3018 21.5181 11.2306 21.5822 11.1485 21.6306C10.9821 21.7313 10.7822 21.7646 10.5912 21.7234C10.4002 21.6823 10.233 21.5699 10.1251 21.4101C10.0535 21.3026 10.0136 21.1777 10.01 21.0494C10.0064 20.9211 10.0391 20.7942 10.1045 20.683L6.83169 15.732C6.81512 15.7343 6.79843 15.7354 6.7817 15.7355C6.64877 15.736 6.51812 15.7016 6.4033 15.636C6.28848 15.5703 6.19367 15.4758 6.12872 15.3621H4.2448L10.206 24.3175H12.073L13.6229 22.0995C13.5655 21.9942 13.5367 21.8761 13.5394 21.7568C13.542 21.6374 13.5759 21.5207 13.6379 21.4179Z" fill="white"/>
<path d="M17.2483 20.9023L15.0324 24.3158H12.3745L13.6649 22.4256C13.828 22.4419 13.9919 22.4035 14.1299 22.3168C14.2962 22.2139 14.414 22.0505 14.4574 21.8625C14.5008 21.6746 14.4663 21.4774 14.3614 21.3144C14.2899 21.2035 14.1892 21.1135 14.0698 21.0541C13.9505 20.9947 13.817 20.968 13.6834 20.9768L12.759 19.5446L14.5614 16.7686L17.2483 20.9023Z" fill="white"/>
<path d="M19.7303 13.9575L20.7258 15.4906L19.6538 17.1412L17.7039 13.9796L17.6909 13.958L19.7303 13.9575Z" fill="white"/>
<path d="M14.8025 11.3837L13.6596 12.8962L11.1182 8.9834H22.3372L21.4012 10.3553C21.2682 10.3427 21.1342 10.3658 21.0135 10.4219C20.8928 10.4781 20.7899 10.5653 20.7157 10.6742C20.7024 10.693 20.6902 10.7124 20.6792 10.7325H16.1294C16.0658 10.6172 15.9716 10.5208 15.8566 10.4537C15.7416 10.3866 15.6103 10.3512 15.4765 10.3514C15.2797 10.3514 15.091 10.4279 14.9518 10.5641C14.8126 10.7003 14.7343 10.8852 14.734 11.078C14.7336 11.1836 14.757 11.288 14.8025 11.3837Z" fill="white"/>
<path d="M16.2551 13.7693C16.2551 13.9621 16.3333 14.147 16.4724 14.2834C16.6116 14.4198 16.8003 14.4964 16.9971 14.4964C17.0092 14.4972 17.0214 14.4972 17.0335 14.4964L19.165 17.95L17.9745 19.7835L15.2881 15.6492L13.9082 13.5228L15.2141 11.7972C15.2487 11.8026 15.2836 11.8054 15.3186 11.8055C15.4525 11.8055 15.5838 11.7701 15.6988 11.7029C15.8138 11.6357 15.908 11.5393 15.9716 11.4239H20.5214C20.5786 11.5283 20.6612 11.6174 20.7619 11.683C20.9257 11.7904 21.1264 11.8295 21.3197 11.792C21.513 11.7544 21.6832 11.6431 21.7929 11.4826C21.8674 11.3736 21.9103 11.2468 21.917 11.1157C21.9237 10.9846 21.8939 10.8542 21.8308 10.7384L23.0308 8.98535H24.9877L22.1048 13.4253H17.6515C17.588 13.3099 17.4937 13.2134 17.3788 13.1462C17.2638 13.079 17.1324 13.0436 16.9985 13.0436C16.9011 13.0434 16.8046 13.0621 16.7145 13.0984C16.6244 13.1348 16.5425 13.1882 16.4735 13.2556C16.4044 13.3229 16.3496 13.403 16.3121 13.4911C16.2747 13.5793 16.2553 13.6738 16.2551 13.7693Z" fill="white"/>
<path d="M28.6339 11.0869C28.5707 11.202 28.4769 11.2981 28.3625 11.3651C28.248 11.4321 28.1172 11.4676 27.9839 11.4676C27.9629 11.4676 27.9419 11.4676 27.9204 11.4647L26.8355 13.0815C26.899 13.1966 26.9294 13.3265 26.9235 13.4572C26.9176 13.5879 26.8756 13.7146 26.802 13.8238C26.6937 13.9847 26.5248 14.097 26.3322 14.1361C26.1397 14.1752 25.9391 14.138 25.7745 14.0325C25.6712 13.9669 25.5862 13.877 25.5275 13.7709H23.2966L21.2772 16.864L18.5903 20.986L16.4189 24.3176H18.7518L23.5606 16.9389C23.4952 16.8251 23.4626 16.696 23.4664 16.5654C23.4701 16.4348 23.5101 16.3076 23.5821 16.1976C23.6346 16.1171 23.7027 16.0474 23.7826 15.9927C23.8625 15.9379 23.9527 15.8991 24.0479 15.8785C24.1432 15.8579 24.2416 15.8559 24.3376 15.8725C24.4336 15.8892 24.5254 15.9243 24.6076 15.9757C24.6896 16.0266 24.7605 16.0929 24.8164 16.1708C24.8722 16.2487 24.9119 16.3366 24.933 16.4294C24.9541 16.5223 24.9563 16.6184 24.9395 16.7121C24.9227 16.8059 24.8872 16.8954 24.8351 16.9757C24.7628 17.0862 24.6615 17.1755 24.5417 17.2343C24.4219 17.293 24.2882 17.3189 24.1546 17.3093L19.5878 24.3157H21.7917L23.9631 20.984L29.1129 13.0805L30.4128 11.085L28.6339 11.0869Z" fill="white"/>
<path d="M32.0002 8.9834L30.8653 10.7306H28.6334C28.5702 10.6155 28.4765 10.5193 28.362 10.4522C28.2476 10.3851 28.1168 10.3495 27.9834 10.3494C27.7867 10.3494 27.5981 10.4259 27.4589 10.5622C27.3198 10.6984 27.2416 10.8832 27.2414 11.076C27.2409 11.197 27.2715 11.3161 27.3304 11.4224L26.245 13.0432C26.1116 13.0321 25.9775 13.0566 25.8571 13.1139C25.7366 13.1712 25.6342 13.2594 25.5605 13.369C25.5485 13.3866 25.5375 13.4043 25.527 13.4234H23.7456L26.629 8.9834H32.0002Z" fill="white"/>
<defs>
<linearGradient id="paint0_linear_4_5056" x1="0.79741" y1="10.9821" x2="0.910188" y2="10.7548" gradientUnits="userSpaceOnUse">
<stop stop-color="white"/>
<stop offset="1" stop-color="white" stop-opacity="0.3"/>
</linearGradient>
<linearGradient id="paint1_linear_4_5056" x1="18.7367" y1="31.8149" x2="18.799" y2="31.6892" gradientUnits="userSpaceOnUse">
<stop stop-color="white"/>
<stop offset="1" stop-color="white" stop-opacity="0.3"/>
</linearGradient>
<linearGradient id="paint2_linear_4_5056" x1="17.3791" y1="31.9635" x2="17.4108" y2="31.8996" gradientUnits="userSpaceOnUse">
<stop stop-color="white"/>
<stop offset="1" stop-color="white" stop-opacity="0.3"/>
</linearGradient>
</defs>
</svg>
