<svg width="18" height="19" viewBox="0 0 18 19" fill="none" xmlns="http://www.w3.org/2000/svg">
<path d="M12 17.5625H6C3.2625 17.5625 1.6875 15.9875 1.6875 13.25V5.75C1.6875 3.0125 3.2625 1.4375 6 1.4375H12C14.7375 1.4375 16.3125 3.0125 16.3125 5.75V13.25C16.3125 15.9875 14.7375 17.5625 12 17.5625ZM6 2.5625C3.855 2.5625 2.8125 3.605 2.8125 5.75V13.25C2.8125 15.395 3.855 16.4375 6 16.4375H12C14.145 16.4375 15.1875 15.395 15.1875 13.25V5.75C15.1875 3.605 14.145 2.5625 12 2.5625H6Z" fill="currentColor"/>
<path d="M13.875 7.4375H12.375C11.235 7.4375 10.3125 6.515 10.3125 5.375V3.875C10.3125 3.5675 10.5675 3.3125 10.875 3.3125C11.1825 3.3125 11.4375 3.5675 11.4375 3.875V5.375C11.4375 5.8925 11.8575 6.3125 12.375 6.3125H13.875C14.1825 6.3125 14.4375 6.5675 14.4375 6.875C14.4375 7.1825 14.1825 7.4375 13.875 7.4375Z" fill="currentColor"/>
<path d="M9 10.8125H6C5.6925 10.8125 5.4375 10.5575 5.4375 10.25C5.4375 9.9425 5.6925 9.6875 6 9.6875H9C9.3075 9.6875 9.5625 9.9425 9.5625 10.25C9.5625 10.5575 9.3075 10.8125 9 10.8125Z" fill="currentColor"/>
<path d="M12 13.8125H6C5.6925 13.8125 5.4375 13.5575 5.4375 13.25C5.4375 12.9425 5.6925 12.6875 6 12.6875H12C12.3075 12.6875 12.5625 12.9425 12.5625 13.25C12.5625 13.5575 12.3075 13.8125 12 13.8125Z" fill="currentColor"/>
</svg>

<svg class="active" width="20" height="20" viewBox="0 0 20 20" fill="none" xmlns="http://www.w3.org/2000/svg">
<path d="M13.3333 1.66699H6.66667C3.75 1.66699 2.5 3.33366 2.5 5.83366V14.167C2.5 16.667 3.75 18.3337 6.66667 18.3337H13.3333C16.25 18.3337 17.5 16.667 17.5 14.167V5.83366C17.5 3.33366 16.25 1.66699 13.3333 1.66699ZM6.66667 10.2087H10C10.3417 10.2087 10.625 10.492 10.625 10.8337C10.625 11.1753 10.3417 11.4587 10 11.4587H6.66667C6.325 11.4587 6.04167 11.1753 6.04167 10.8337C6.04167 10.492 6.325 10.2087 6.66667 10.2087ZM13.3333 14.792H6.66667C6.325 14.792 6.04167 14.5087 6.04167 14.167C6.04167 13.8253 6.325 13.542 6.66667 13.542H13.3333C13.675 13.542 13.9583 13.8253 13.9583 14.167C13.9583 14.5087 13.675 14.792 13.3333 14.792ZM15.4167 7.70866H13.75C12.4833 7.70866 11.4583 6.68366 11.4583 5.41699V3.75033C11.4583 3.40866 11.7417 3.12533 12.0833 3.12533C12.425 3.12533 12.7083 3.40866 12.7083 3.75033V5.41699C12.7083 5.99199 13.175 6.45866 13.75 6.45866H15.4167C15.7583 6.45866 16.0417 6.74199 16.0417 7.08366C16.0417 7.42533 15.7583 7.70866 15.4167 7.70866Z" fill="currentColor"/>
</svg>
