<svg width="96" height="97" viewBox="0 0 96 97" fill="none" xmlns="http://www.w3.org/2000/svg">
<path d="M2.70242 32.2144C2.70822 32.1981 2.71331 32.1827 2.71917 32.1663C2.73001 32.1353 2.7405 32.1042 2.7514 32.0733C2.63364 32.4081 2.50756 32.738 2.39678 33.0768C2.39314 33.0879 2.38002 33.1264 2.36696 33.1671C2.36543 33.1719 2.36883 33.1702 2.37129 33.1685C2.47581 32.8477 2.5914 32.5321 2.70242 32.2144Z" fill="url(#paint0_linear_3773_41094)"/>
<path d="M56.8259 95.1763C56.4777 95.2415 56.1296 95.3134 55.7816 95.3706C56.1304 95.3136 56.4778 95.2411 56.8259 95.1763Z" fill="url(#paint1_linear_3773_41094)"/>
<path d="M52.494 95.7843C52.2881 95.8035 52.0821 95.8232 51.8763 95.8397C52.0821 95.8248 52.2881 95.8025 52.494 95.7843Z" fill="url(#paint2_linear_3773_41094)"/>
<g clip-path="url(#clip0_3773_41094)">
<path d="M41.318 63.068L34.08 52.009L33.907 51.745L25.024 38.265L21.083 32.283H14.29C14.0913 32.6319 13.8032 32.9215 13.4553 33.1221C13.1075 33.3226 12.7125 33.4268 12.311 33.424C11.7246 33.4336 11.1585 33.21 10.7369 32.8023C10.3154 32.3947 10.073 31.8363 10.063 31.25C10.074 30.6643 10.3169 30.107 10.7383 29.7002C11.1598 29.2934 11.7253 29.0703 12.311 29.08C12.7123 29.0767 13.1073 29.1805 13.4551 29.3808C13.803 29.581 14.0912 29.8703 14.29 30.219H19.72L16.283 25.001H0L8.74097 38.265L11.507 42.459H18.574C18.773 42.1104 19.0612 41.821 19.4089 41.6204C19.7567 41.4199 20.1516 41.3155 20.553 41.318C21.1395 41.3081 21.7059 41.5316 22.1277 41.9392C22.5494 42.3469 22.792 42.9055 22.802 43.492C22.8031 43.8663 22.7029 44.234 22.512 44.556L32.431 59.71C32.8317 59.6804 33.2331 59.7579 33.594 59.9345C33.9549 60.1111 34.2624 60.3805 34.485 60.715C34.6429 60.9559 34.7501 61.2263 34.8004 61.5099C34.8507 61.7935 34.8429 62.0844 34.7775 62.3649C34.712 62.6454 34.5903 62.9097 34.4197 63.1417C34.2491 63.3738 34.0332 63.5688 33.785 63.715C33.2804 64.022 32.6771 64.1232 32.1 63.9975C31.5229 63.8719 31.0162 63.529 30.685 63.04C30.4684 62.7115 30.3479 62.329 30.3371 61.9357C30.3263 61.5423 30.4257 61.1538 30.624 60.814L20.706 45.656C20.6559 45.6627 20.6055 45.6661 20.555 45.666C20.1528 45.669 19.7571 45.5646 19.4088 45.3637C19.0604 45.1628 18.7719 44.8726 18.573 44.523H12.863L30.929 71.94H36.586L41.286 65.15C41.1109 64.8298 41.0218 64.4697 41.0274 64.1048C41.033 63.7399 41.1331 63.3826 41.318 63.068Z" fill="white"/>
<path d="M51.822 61.385L45.106 71.941H37.051L40.962 66.095C41.4566 66.1452 41.9536 66.0264 42.372 65.758C42.8757 65.4396 43.2325 64.9342 43.3637 64.3529C43.495 63.7716 43.39 63.162 43.072 62.658C42.8553 62.315 42.5499 62.0369 42.1882 61.8532C41.8265 61.6694 41.4218 61.5868 41.017 61.614L38.217 57.185L43.676 48.603L51.822 61.385Z" fill="white"/>
<path d="M59.192 40.188L62.208 44.929L58.96 50.029L53.047 40.251L53.007 40.184L59.192 40.188Z" fill="white"/>
<path d="M44.333 32.423L40.869 37.101L33.169 25.001H67.169L64.333 29.237C63.9297 29.1981 63.5234 29.2694 63.1575 29.4432C62.7916 29.617 62.4796 29.8869 62.255 30.224C62.2149 30.2818 62.1781 30.3419 62.145 30.404H48.345C48.1522 30.0472 47.8665 29.7492 47.518 29.5416C47.1696 29.334 46.7716 29.2246 46.366 29.225C45.7698 29.225 45.1979 29.4616 44.776 29.8829C44.3542 30.3042 44.1168 30.8758 44.116 31.472C44.1169 31.8012 44.191 32.126 44.333 32.423Z" fill="white"/>
<path d="M48.61 39.8C48.6098 40.0953 48.6679 40.3877 48.7808 40.6606C48.8937 40.9334 49.0593 41.1813 49.268 41.3902C49.4768 41.5991 49.7247 41.7647 49.9975 41.8778C50.2703 41.9908 50.5627 42.049 50.858 42.049C50.8947 42.05 50.9315 42.0484 50.968 42.044L57.4279 52.724L53.82 58.394L45.6779 45.609L41.496 39.034L45.453 33.697C45.5578 33.7135 45.6638 33.7219 45.77 33.722C46.1757 33.7219 46.5739 33.6121 46.9223 33.4042C47.2707 33.1963 47.5563 32.898 47.749 32.541H61.541C61.7145 32.8635 61.9649 33.1383 62.27 33.341C62.7665 33.6726 63.3743 33.7937 63.96 33.6776C64.5457 33.5616 65.0614 33.2179 65.394 32.722C65.6196 32.385 65.7496 31.993 65.7699 31.5879C65.7901 31.1828 65.7 30.7798 65.509 30.422L69.1389 25.001H75.07L66.334 38.731H52.834C52.6415 38.3738 52.3559 38.0754 52.0074 37.8674C51.659 37.6595 51.2607 37.5498 50.8549 37.55C50.2589 37.5508 49.6876 37.7882 49.2666 38.2102C48.8456 38.6321 48.6094 39.2039 48.61 39.8Z" fill="white"/>
<path d="M85.799 31.504C85.6049 31.8576 85.3189 32.1523 84.9713 32.3569C84.6238 32.5616 84.2274 32.6687 83.824 32.667C83.761 32.667 83.696 32.667 83.631 32.658L80.344 37.596C80.5367 37.9473 80.6294 38.3447 80.6118 38.745C80.5942 39.1453 80.4669 39.5331 80.244 39.866C79.9118 40.3586 79.3997 40.7013 78.8177 40.8205C78.2357 40.9398 77.6302 40.8262 77.131 40.504C76.8184 40.3042 76.5608 40.0291 76.382 39.704H69.621L63.512 49.162L55.37 61.762L48.79 71.941H55.86L70.433 49.388C70.2346 49.0405 70.1358 48.6452 70.1475 48.2452C70.1591 47.8453 70.2807 47.4563 70.499 47.121C70.824 46.6225 71.332 46.2719 71.9134 46.1449C72.4947 46.0178 73.1027 46.1246 73.606 46.442C73.8537 46.5959 74.0682 46.7976 74.2373 47.0352C74.4063 47.2728 74.5265 47.5417 74.5907 47.8261C74.6549 48.1106 74.6619 48.405 74.6113 48.6921C74.5607 48.9793 74.4535 49.2536 74.296 49.499C74.0749 49.8379 73.767 50.1113 73.4043 50.2907C73.0417 50.4701 72.6375 50.5489 72.234 50.519L58.394 71.941H65.074L71.655 61.762L87.263 37.604L91.204 31.504H85.799Z" fill="white"/>
<path d="M96 25L92.561 30.4H85.797C85.6052 30.0432 85.3203 29.7451 84.9725 29.5375C84.6247 29.3298 84.227 29.2205 83.822 29.221C83.2258 29.221 82.6541 29.4576 82.2324 29.879C81.8107 30.3003 81.5735 30.8718 81.573 31.468C81.5715 31.842 81.6644 32.2104 81.843 32.539L78.553 37.551C78.1486 37.5168 77.7424 37.5924 77.3774 37.7698C77.0124 37.9472 76.702 38.2199 76.479 38.559C76.443 38.613 76.409 38.669 76.379 38.726H70.979L79.717 24.996L96 25Z" fill="white"/>
</g>
<defs>
<linearGradient id="paint0_linear_3773_41094" x1="2.39162" y1="32.963" x2="2.72995" y2="32.281" gradientUnits="userSpaceOnUse">
<stop stop-color="white"/>
<stop offset="1" stop-color="white" stop-opacity="0.3"/>
</linearGradient>
<linearGradient id="paint1_linear_3773_41094" x1="56.2103" y1="95.4619" x2="56.3974" y2="95.0846" gradientUnits="userSpaceOnUse">
<stop stop-color="white"/>
<stop offset="1" stop-color="white" stop-opacity="0.3"/>
</linearGradient>
<linearGradient id="paint2_linear_3773_41094" x1="52.1378" y1="95.9077" x2="52.2328" y2="95.7161" gradientUnits="userSpaceOnUse">
<stop stop-color="white"/>
<stop offset="1" stop-color="white" stop-opacity="0.3"/>
</linearGradient>
<clipPath id="clip0_3773_41094">
<rect width="96" height="46.94" fill="white" transform="translate(0 25)"/>
</clipPath>
</defs>
</svg>
