<svg width="21" height="20" viewBox="0 0 21 20" fill="none" xmlns="http://www.w3.org/2000/svg">
<path d="M10.5001 18.3417C15.1025 18.3417 18.8334 14.6108 18.8334 10.0084C18.8334 5.40601 15.1025 1.67505 10.5001 1.67505C5.89771 1.67505 2.16675 5.40601 2.16675 10.0084C2.16675 14.6108 5.89771 18.3417 10.5001 18.3417Z" fill="#EBF0F7"/>
<path d="M10.5 5.78333C8.775 5.78333 7.375 7.18332 7.375 8.90832C7.375 10.6 8.7 11.975 10.4583 12.025C10.4833 12.025 10.5167 12.025 10.5333 12.025C10.55 12.025 10.575 12.025 10.5917 12.025C10.6 12.025 10.6083 12.025 10.6083 12.025C12.2917 11.9667 13.6167 10.6 13.625 8.90832C13.625 7.18332 12.225 5.78333 10.5 5.78333Z" fill="#909CAD"/>
<path d="M16.1501 16.1333C14.6668 17.5 12.6834 18.3416 10.5001 18.3416C8.31676 18.3416 6.33343 17.5 4.8501 16.1333C5.0501 15.375 5.59176 14.6833 6.38343 14.15C8.65843 12.6333 12.3584 12.6333 14.6168 14.15C15.4168 14.6833 15.9501 15.375 16.1501 16.1333Z" fill="#909CAD"/>
</svg>
