<svg width="16" height="16" viewBox="0 0 16 16" fill="none" xmlns="http://www.w3.org/2000/svg">
<mask id="path-1-inside-1_9580_21299" fill="white">
<path d="M8.0007 15.1667C4.53404 15.1667 1.7207 12.3467 1.7207 8.88667C1.7207 5.42667 4.53404 2.60001 8.0007 2.60001C8.71404 2.60001 9.40737 2.70001 10.074 2.90667C10.3407 2.98667 10.4874 3.26667 10.4074 3.53334C10.3274 3.80001 10.0474 3.94667 9.7807 3.86667C9.21404 3.69334 8.61404 3.60001 8.0007 3.60001C5.08737 3.60001 2.7207 5.96667 2.7207 8.88001C2.7207 11.7933 5.08737 14.16 8.0007 14.16C10.914 14.16 13.2807 11.7933 13.2807 8.88001C13.2807 7.82667 12.974 6.81334 12.394 5.94667C12.2407 5.72001 12.3007 5.40667 12.534 5.25334C12.7607 5.10001 13.074 5.16001 13.2274 5.39334C13.9207 6.42667 14.2874 7.63334 14.2874 8.88667C14.2807 12.3467 11.4674 15.1667 8.0007 15.1667Z"/>
</mask>
<path d="M8.0007 15.1667C4.53404 15.1667 1.7207 12.3467 1.7207 8.88667C1.7207 5.42667 4.53404 2.60001 8.0007 2.60001C8.71404 2.60001 9.40737 2.70001 10.074 2.90667C10.3407 2.98667 10.4874 3.26667 10.4074 3.53334C10.3274 3.80001 10.0474 3.94667 9.7807 3.86667C9.21404 3.69334 8.61404 3.60001 8.0007 3.60001C5.08737 3.60001 2.7207 5.96667 2.7207 8.88001C2.7207 11.7933 5.08737 14.16 8.0007 14.16C10.914 14.16 13.2807 11.7933 13.2807 8.88001C13.2807 7.82667 12.974 6.81334 12.394 5.94667C12.2407 5.72001 12.3007 5.40667 12.534 5.25334C12.7607 5.10001 13.074 5.16001 13.2274 5.39334C13.9207 6.42667 14.2874 7.63334 14.2874 8.88667C14.2807 12.3467 11.4674 15.1667 8.0007 15.1667Z" fill="currentColor"/>
<path d="M10.074 2.90667L9.62987 4.33947L9.64301 4.34341L10.074 2.90667ZM9.7807 3.86667L9.34194 5.30109L9.34968 5.30341L9.7807 3.86667ZM12.394 5.94667L13.6406 5.1124L13.6365 5.10621L12.394 5.94667ZM12.534 5.25334L13.3578 6.5069L13.3662 6.50139L13.3745 6.49576L12.534 5.25334ZM13.2274 5.39334L11.9738 6.21711L11.9778 6.22312L11.9818 6.22909L13.2274 5.39334ZM14.2874 8.88667L15.7874 8.88956V8.88667H14.2874ZM8.0007 15.1667V13.6667C5.3635 13.6667 3.2207 11.5193 3.2207 8.88667H1.7207H0.220703C0.220703 13.1741 3.70457 16.6667 8.0007 16.6667V15.1667ZM1.7207 8.88667H3.2207C3.2207 6.25199 5.36557 4.10001 8.0007 4.10001V2.60001V1.10001C3.7025 1.10001 0.220703 4.60135 0.220703 8.88667H1.7207ZM8.0007 2.60001V4.10001C8.5724 4.10001 9.11536 4.1799 9.62989 4.33941L10.074 2.90667L10.5182 1.47394C9.69938 1.22011 8.85568 1.10001 8.0007 1.10001V2.60001ZM10.074 2.90667L9.64301 4.34341C9.09718 4.17966 8.81833 3.61 8.97063 3.10232L10.4074 3.53334L11.8441 3.96436C12.1564 2.92335 11.5842 1.79368 10.5051 1.46993L10.074 2.90667ZM10.4074 3.53334L8.97063 3.10232C9.13438 2.55648 9.70405 2.27763 10.2117 2.42993L9.7807 3.86667L9.34968 5.30341C10.3907 5.61572 11.5204 5.04353 11.8441 3.96436L10.4074 3.53334ZM9.7807 3.86667L10.2195 2.43228C9.51391 2.21646 8.76615 2.10001 8.0007 2.10001V3.60001V5.10001C8.46192 5.10001 8.91417 5.17022 9.34195 5.30107L9.7807 3.86667ZM8.0007 3.60001V2.10001C4.25894 2.10001 1.2207 5.13825 1.2207 8.88001H2.7207H4.2207C4.2207 6.7951 5.9158 5.10001 8.0007 5.10001V3.60001ZM2.7207 8.88001H1.2207C1.2207 12.6218 4.25894 15.66 8.0007 15.66V14.16V12.66C5.9158 12.66 4.2207 10.9649 4.2207 8.88001H2.7207ZM8.0007 14.16V15.66C11.7425 15.66 14.7807 12.6218 14.7807 8.88001H13.2807H11.7807C11.7807 10.9649 10.0856 12.66 8.0007 12.66V14.16ZM13.2807 8.88001H14.7807C14.7807 7.53227 14.3873 6.22813 13.6406 5.11241L12.394 5.94667L11.1474 6.78093C11.5608 7.39855 11.7807 8.12107 11.7807 8.88001H13.2807ZM12.394 5.94667L13.6365 5.10621C13.9498 5.56936 13.8262 6.19908 13.3578 6.5069L12.534 5.25334L11.7103 3.99978C10.7752 4.61427 10.5316 5.87065 11.1516 6.78714L12.394 5.94667ZM12.534 5.25334L13.3745 6.49576C12.9113 6.80908 12.2816 6.68552 11.9738 6.21711L13.2274 5.39334L14.4809 4.56957C13.8664 3.63449 12.6101 3.39093 11.6936 4.01091L12.534 5.25334ZM13.2274 5.39334L11.9818 6.22909C12.5084 7.0139 12.7874 7.92936 12.7874 8.88667H14.2874H15.7874C15.7874 7.33732 15.3331 5.83944 14.473 4.55758L13.2274 5.39334ZM14.2874 8.88667L12.7874 8.88378C12.7823 11.5192 10.6373 13.6667 8.0007 13.6667V15.1667V16.6667C12.2974 16.6667 15.7791 13.1741 15.7874 8.88956L14.2874 8.88667Z" fill="currentColor" mask="url(#path-1-inside-1_9580_21299)"/>
<mask id="path-3-inside-2_9580_21299" fill="white">
<path d="M10.7536 4.04667C10.6136 4.04667 10.4736 3.98667 10.3736 3.87334L8.44696 1.66001C8.26696 1.45334 8.28696 1.13334 8.49363 0.95334C8.7003 0.77334 9.0203 0.79334 9.2003 1.00001L11.127 3.21334C11.307 3.42001 11.287 3.74001 11.0803 3.92001C10.9936 4.00667 10.8736 4.04667 10.7536 4.04667Z"/>
</mask>
<path d="M10.7536 4.04667C10.6136 4.04667 10.4736 3.98667 10.3736 3.87334L8.44696 1.66001C8.26696 1.45334 8.28696 1.13334 8.49363 0.95334C8.7003 0.77334 9.0203 0.79334 9.2003 1.00001L11.127 3.21334C11.307 3.42001 11.287 3.74001 11.0803 3.92001C10.9936 4.00667 10.8736 4.04667 10.7536 4.04667Z" fill="currentColor"/>
<path d="M10.3736 3.87334L9.24221 4.85822L9.24887 4.86577L10.3736 3.87334ZM8.44696 1.66001L9.57836 0.675148L9.57808 0.674836L8.44696 1.66001ZM9.2003 1.00001L10.3317 0.0151483L10.3314 0.0148358L9.2003 1.00001ZM11.127 3.21334L9.99557 4.1982L9.99584 4.19851L11.127 3.21334ZM11.0803 3.92001L10.0951 2.78888L10.0562 2.82282L10.0196 2.85935L11.0803 3.92001ZM10.7536 4.04667V2.54667C11.0393 2.54667 11.3106 2.66805 11.4984 2.88091L10.3736 3.87334L9.24887 4.86577C9.63669 5.30529 10.1879 5.54667 10.7536 5.54667V4.04667ZM10.3736 3.87334L11.505 2.88848L9.57836 0.675148L8.44696 1.66001L7.31557 2.64487L9.24223 4.8582L10.3736 3.87334ZM8.44696 1.66001L9.57808 0.674836C9.93471 1.08429 9.90538 1.71293 9.4788 2.08446L8.49363 0.95334L7.50846 -0.177782C6.66855 0.553752 6.59921 1.82239 7.31584 2.64518L8.44696 1.66001ZM8.49363 0.95334L9.4788 2.08446C9.06934 2.44109 8.44071 2.41175 8.06917 1.98518L9.2003 1.00001L10.3314 0.0148358C9.59988 -0.825073 8.33125 -0.894409 7.50846 -0.177782L8.49363 0.95334ZM9.2003 1.00001L8.0689 1.98487L9.99557 4.1982L11.127 3.21334L12.2584 2.22848L10.3317 0.0151483L9.2003 1.00001ZM11.127 3.21334L9.99584 4.19851C9.63921 3.78905 9.66855 3.16042 10.0951 2.78888L11.0803 3.92001L12.0655 5.05113C12.9054 4.31959 12.9747 3.05096 12.2581 2.22817L11.127 3.21334ZM11.0803 3.92001L10.0196 2.85935C10.2664 2.61261 10.5561 2.54667 10.7536 2.54667V4.04667V5.54667C11.1912 5.54667 11.7209 5.40073 12.141 4.98067L11.0803 3.92001Z" fill="currentColor" mask="url(#path-3-inside-2_9580_21299)"/>
<path d="M8.50746 5.68666C8.35413 5.68666 8.20079 5.61332 8.10079 5.47999C7.94079 5.25999 7.98746 4.94666 8.20746 4.77999L10.4541 3.13999C10.6741 2.97332 10.9875 3.02666 11.1541 3.24666C11.3208 3.46666 11.2675 3.77999 11.0475 3.94666L8.80079 5.59332C8.71413 5.65999 8.61413 5.68666 8.50746 5.68666Z" fill="currentColor"/>
</svg>
