<svg width="16" height="16" viewBox="0 0 16 16" fill="none" xmlns="http://www.w3.org/2000/svg">
<path d="M7.66732 14.5C3.90065 14.5 0.833984 11.4333 0.833984 7.66668C0.833984 3.90001 3.90065 0.833344 7.66732 0.833344C11.434 0.833344 14.5007 3.90001 14.5007 7.66668C14.5007 11.4333 11.434 14.5 7.66732 14.5ZM7.66732 1.83334C4.44732 1.83334 1.83398 4.45334 1.83398 7.66668C1.83398 10.88 4.44732 13.5 7.66732 13.5C10.8873 13.5 13.5007 10.88 13.5007 7.66668C13.5007 4.45334 10.8873 1.83334 7.66732 1.83334Z" fill="currentColor"/>
<path d="M14.6676 15.1667C14.5409 15.1667 14.4143 15.12 14.3143 15.02L12.9809 13.6867C12.7876 13.4933 12.7876 13.1733 12.9809 12.98C13.1743 12.7867 13.4943 12.7867 13.6876 12.98L15.0209 14.3133C15.2143 14.5067 15.2143 14.8267 15.0209 15.02C14.9209 15.12 14.7943 15.1667 14.6676 15.1667Z" fill="currentColor"/>
</svg>
