<svg width="18" height="19" viewBox="0 0 18 19" fill="none" xmlns="http://www.w3.org/2000/svg">
<path d="M8.99999 17.4726C8.49749 17.4726 7.98749 17.3601 7.58999 17.1276L3.46499 14.7501C1.78499 13.6176 1.67999 13.4451 1.67999 11.6676V7.3326C1.67999 5.5551 1.77749 5.3826 3.42749 4.2651L7.58249 1.8651C8.36999 1.4076 9.60749 1.4076 10.395 1.8651L14.535 4.2501C16.215 5.3826 16.32 5.5551 16.32 7.3326V11.6601C16.32 13.4376 16.2225 13.6101 14.5725 14.7276L10.4175 17.1276C10.0125 17.3601 9.50249 17.4726 8.99999 17.4726ZM8.99999 2.6526C8.68499 2.6526 8.37749 2.7126 8.15999 2.8401L4.03499 5.2251C2.81249 6.0501 2.81249 6.0501 2.81249 7.3326V11.6601C2.81249 12.9426 2.81249 12.9426 4.06499 13.7901L8.15999 16.1526C8.60249 16.4076 9.40499 16.4076 9.84749 16.1526L13.9725 13.7676C15.1875 12.9426 15.1875 12.9426 15.1875 11.6601V7.3326C15.1875 6.0501 15.1875 6.0501 13.935 5.2026L9.83999 2.8401C9.62249 2.7126 9.31499 2.6526 8.99999 2.6526Z" fill="currentColor"/>
<path d="M9 12.3125C7.4475 12.3125 6.1875 11.0525 6.1875 9.5C6.1875 7.9475 7.4475 6.6875 9 6.6875C10.5525 6.6875 11.8125 7.9475 11.8125 9.5C11.8125 11.0525 10.5525 12.3125 9 12.3125ZM9 7.8125C8.07 7.8125 7.3125 8.57 7.3125 9.5C7.3125 10.43 8.07 11.1875 9 11.1875C9.93 11.1875 10.6875 10.43 10.6875 9.5C10.6875 8.57 9.93 7.8125 9 7.8125Z" fill="currentColor"/>
</svg>

<svg class="active" width="20" height="20" viewBox="0 0 20 20" fill="none" xmlns="http://www.w3.org/2000/svg">
<path d="M15.7833 4.51686L11.475 2.0252C10.65 1.5502 9.35834 1.5502 8.53334 2.0252L4.18334 4.53353C2.45834 5.70019 2.35834 5.87519 2.35834 7.73353V12.2585C2.35834 14.1169 2.45834 14.3002 4.21667 15.4835L8.525 17.9752C8.94167 18.2169 9.475 18.3335 10 18.3335C10.525 18.3335 11.0583 18.2169 11.4667 17.9752L15.8167 15.4669C17.5417 14.3002 17.6417 14.1252 17.6417 12.2669V7.73353C17.6417 5.87519 17.5417 5.70019 15.7833 4.51686ZM10 12.7085C8.50834 12.7085 7.29167 11.4919 7.29167 10.0002C7.29167 8.50853 8.50834 7.29186 10 7.29186C11.4917 7.29186 12.7083 8.50853 12.7083 10.0002C12.7083 11.4919 11.4917 12.7085 10 12.7085Z" fill="currentColor"/>
</svg>
