<svg width="20" height="20" viewBox="0 0 20 20" fill="none" xmlns="http://www.w3.org/2000/svg">
<path fill-rule="evenodd" clip-rule="evenodd" d="M7.60469 10.1233C7.60469 8.83637 8.59831 7.79307 9.82399 7.79307C11.0497 7.79307 12.0433 8.83637 12.0433 10.1233C12.0433 11.4103 11.0497 12.4536 9.82399 12.4536C8.59831 12.4536 7.60469 11.4103 7.60469 10.1233ZM9.05206 10.1233C9.05206 10.571 9.39766 10.9339 9.82399 10.9339C10.2503 10.9339 10.5959 10.571 10.5959 10.1233C10.5959 9.67569 10.2503 9.31281 9.82399 9.31281C9.39766 9.31281 9.05206 9.67569 9.05206 10.1233Z" fill="currentColor"/>
<path fill-rule="evenodd" clip-rule="evenodd" d="M14.3687 5.83768L18.4021 9.22162C18.6629 9.44082 18.8147 9.77257 18.8147 10.1233C18.8147 10.4741 18.6629 10.8059 18.4021 11.025L14.3687 14.409C11.7104 16.637 7.93757 16.637 5.27925 14.409L1.24592 11.025C0.985118 10.8059 0.833313 10.4741 0.833313 10.1233C0.833313 9.77257 0.985118 9.44082 1.24592 9.22162L5.27925 5.83768C7.93757 3.60969 11.7104 3.60969 14.3687 5.83768ZM6.17662 13.2743C8.31139 15.0583 11.3366 15.0583 13.4714 13.2743L17.1573 10.1233L13.4714 7.02307C11.3366 5.23906 8.31139 5.23906 6.17662 7.02307L2.49065 10.1233L6.17662 13.2743Z" fill="currentColor"/>
</svg>
