<svg width="20" height="20" viewBox="0 0 20 20" fill="none" xmlns="http://www.w3.org/2000/svg">
<path d="M10.391 2.51833C11.5274 3.65476 11.5274 5.49727 10.391 6.63369C9.25459 7.77012 7.41208 7.77012 6.27566 6.63369C5.13923 5.49727 5.13923 3.65476 6.27566 2.51833C7.41208 1.38191 9.25459 1.38191 10.391 2.51833" stroke="currentColor" stroke-width="1.5" stroke-linecap="round" stroke-linejoin="round"/>
<path d="M11.969 10.663C10.8865 10.2305 9.6165 9.99219 8.33317 9.99219C4.95984 9.99219 1.6665 11.6314 1.6665 14.1522V14.9855C1.6665 15.4455 2.03984 15.8189 2.49984 15.8189H10.344" stroke="currentColor" stroke-width="1.5" stroke-linecap="round" stroke-linejoin="round"/>
<path d="M14.1667 18.3333C11.8658 18.3333 10 16.4683 10 14.1667C10 11.9133 11.9167 9.9975 14.17 10C16.47 10.0017 18.3333 11.8667 18.3333 14.1667C18.3333 16.4675 16.4683 18.3333 14.1667 18.3333" stroke="currentColor" stroke-width="1.5" stroke-linecap="round" stroke-linejoin="round"/>
<path d="M15.3417 12.9902L12.9917 15.3402" stroke="currentColor" stroke-width="1.5" stroke-linecap="round" stroke-linejoin="round"/>
<path d="M15.3417 15.3402L12.9917 12.9902" stroke="currentColor" stroke-width="1.5" stroke-linecap="round" stroke-linejoin="round"/>
</svg>
