<svg width="18" height="19" viewBox="0 0 18 19" fill="none" xmlns="http://www.w3.org/2000/svg">
<path d="M6 4.8125C5.6925 4.8125 5.4375 4.5575 5.4375 4.25V2C5.4375 1.6925 5.6925 1.4375 6 1.4375C6.3075 1.4375 6.5625 1.6925 6.5625 2V4.25C6.5625 4.5575 6.3075 4.8125 6 4.8125Z" fill="currentColor"/>
<path d="M12 4.8125C11.6925 4.8125 11.4375 4.5575 11.4375 4.25V2C11.4375 1.6925 11.6925 1.4375 12 1.4375C12.3075 1.4375 12.5625 1.6925 12.5625 2V4.25C12.5625 4.5575 12.3075 4.8125 12 4.8125Z" fill="currentColor"/>
<path d="M6.375 11.375C6.2775 11.375 6.18 11.3525 6.09 11.315C5.9925 11.2775 5.9175 11.225 5.8425 11.1575C5.7075 11.015 5.625 10.8275 5.625 10.625C5.625 10.5275 5.6475 10.43 5.685 10.34C5.7225 10.25 5.775 10.1675 5.8425 10.0925C5.9175 10.025 5.9925 9.97248 6.09 9.93498C6.36 9.82248 6.6975 9.8825 6.9075 10.0925C7.0425 10.235 7.125 10.43 7.125 10.625C7.125 10.67 7.1175 10.7225 7.11 10.775C7.1025 10.82 7.0875 10.865 7.065 10.91C7.05 10.955 7.0275 11 6.9975 11.045C6.975 11.0825 6.9375 11.12 6.9075 11.1575C6.765 11.2925 6.57 11.375 6.375 11.375Z" fill="currentColor"/>
<path d="M9 11.3749C8.9025 11.3749 8.805 11.3524 8.715 11.3149C8.6175 11.2774 8.5425 11.2249 8.4675 11.1574C8.3325 11.0149 8.25 10.8274 8.25 10.6249C8.25 10.5274 8.2725 10.4299 8.31 10.3399C8.3475 10.2499 8.4 10.1674 8.4675 10.0924C8.5425 10.0249 8.6175 9.97239 8.715 9.93489C8.985 9.81489 9.3225 9.88241 9.5325 10.0924C9.6675 10.2349 9.75 10.4299 9.75 10.6249C9.75 10.6699 9.7425 10.7224 9.735 10.7749C9.7275 10.8199 9.7125 10.8649 9.69 10.9099C9.675 10.9549 9.6525 10.9999 9.6225 11.0449C9.6 11.0824 9.5625 11.1199 9.5325 11.1574C9.39 11.2924 9.195 11.3749 9 11.3749Z" fill="currentColor"/>
<path d="M11.625 11.3749C11.5275 11.3749 11.43 11.3524 11.34 11.3149C11.2425 11.2774 11.1675 11.2249 11.0925 11.1574C11.0625 11.1199 11.0325 11.0824 11.0025 11.0449C10.9725 10.9999 10.95 10.9549 10.935 10.9099C10.9125 10.8649 10.8975 10.8199 10.89 10.7749C10.8825 10.7224 10.875 10.6699 10.875 10.6249C10.875 10.4299 10.9575 10.2349 11.0925 10.0924C11.1675 10.0249 11.2425 9.97239 11.34 9.93489C11.6175 9.81489 11.9475 9.88241 12.1575 10.0924C12.2925 10.2349 12.375 10.4299 12.375 10.6249C12.375 10.6699 12.3675 10.7224 12.36 10.7749C12.3525 10.8199 12.3375 10.8649 12.315 10.9099C12.3 10.9549 12.2775 10.9999 12.2475 11.0449C12.225 11.0824 12.1875 11.1199 12.1575 11.1574C12.015 11.2924 11.82 11.3749 11.625 11.3749Z" fill="currentColor"/>
<path d="M6.375 13.9999C6.2775 13.9999 6.18 13.9774 6.09 13.9399C6 13.9024 5.9175 13.8499 5.8425 13.7824C5.7075 13.6399 5.625 13.4449 5.625 13.2499C5.625 13.1524 5.6475 13.0549 5.685 12.9649C5.7225 12.8674 5.775 12.7849 5.8425 12.7174C6.12 12.4399 6.63 12.4399 6.9075 12.7174C7.0425 12.8599 7.125 13.0549 7.125 13.2499C7.125 13.4449 7.0425 13.6399 6.9075 13.7824C6.765 13.9174 6.57 13.9999 6.375 13.9999Z" fill="currentColor"/>
<path d="M9 13.9999C8.805 13.9999 8.61 13.9174 8.4675 13.7824C8.3325 13.6399 8.25 13.4449 8.25 13.2499C8.25 13.1524 8.2725 13.0549 8.31 12.9649C8.3475 12.8674 8.4 12.7849 8.4675 12.7174C8.745 12.4399 9.255 12.4399 9.5325 12.7174C9.6 12.7849 9.6525 12.8674 9.69 12.9649C9.7275 13.0549 9.75 13.1524 9.75 13.2499C9.75 13.4449 9.6675 13.6399 9.5325 13.7824C9.39 13.9174 9.195 13.9999 9 13.9999Z" fill="currentColor"/>
<path d="M11.625 13.9999C11.43 13.9999 11.235 13.9174 11.0925 13.7824C11.025 13.7149 10.9725 13.6324 10.935 13.5349C10.8975 13.4449 10.875 13.3474 10.875 13.2499C10.875 13.1524 10.8975 13.0549 10.935 12.9649C10.9725 12.8674 11.025 12.7849 11.0925 12.7174C11.265 12.5449 11.5275 12.4624 11.7675 12.5149C11.82 12.5224 11.865 12.5374 11.91 12.5599C11.955 12.5749 12 12.5974 12.045 12.6274C12.0825 12.6499 12.12 12.6874 12.1575 12.7174C12.2925 12.8599 12.375 13.0549 12.375 13.2499C12.375 13.4449 12.2925 13.6399 12.1575 13.7824C12.015 13.9174 11.82 13.9999 11.625 13.9999Z" fill="currentColor"/>
<path d="M15.375 7.87988H2.625C2.3175 7.87988 2.0625 7.62488 2.0625 7.31738C2.0625 7.00988 2.3175 6.75488 2.625 6.75488H15.375C15.6825 6.75488 15.9375 7.00988 15.9375 7.31738C15.9375 7.62488 15.6825 7.87988 15.375 7.87988Z" fill="currentColor"/>
<path d="M12 17.5625H6C3.2625 17.5625 1.6875 15.9875 1.6875 13.25V6.875C1.6875 4.1375 3.2625 2.5625 6 2.5625H12C14.7375 2.5625 16.3125 4.1375 16.3125 6.875V13.25C16.3125 15.9875 14.7375 17.5625 12 17.5625ZM6 3.6875C3.855 3.6875 2.8125 4.73 2.8125 6.875V13.25C2.8125 15.395 3.855 16.4375 6 16.4375H12C14.145 16.4375 15.1875 15.395 15.1875 13.25V6.875C15.1875 4.73 14.145 3.6875 12 3.6875H6Z" fill="currentColor"/>
</svg>
