<svg width="20" height="20" viewBox="0 0 20 20" fill="none" xmlns="http://www.w3.org/2000/svg">
<rect width="20" height="20" rx="10" fill="#249F58"/>
<path fill-rule="evenodd" clip-rule="evenodd" d="M17.3331 13.3333V12H2.66648L5.33315 13.3333H13.3331C13.3331 14.0693 14.2291 14.6667 15.3331 14.6667C16.4371 14.6667 17.3331 14.0693 17.3331 13.3333ZM7.63981 5.20801C7.62381 5.20801 7.59981 5.21601 7.56915 5.23467C7.49715 5.28267 7.35581 5.43067 7.35048 5.60134C7.34648 5.69867 7.32781 5.69867 7.39048 5.76134C7.43581 5.82534 7.48381 5.82001 7.57448 5.77067C7.62781 5.73067 7.64515 5.70801 7.66381 5.64267C7.68515 5.53601 7.54781 5.69601 7.53048 5.57334C7.49981 5.46134 7.58781 5.41334 7.67048 5.30667C7.67315 5.25334 7.67315 5.21334 7.63981 5.21067V5.20801ZM8.97715 5.21467C8.95048 5.22001 8.91981 5.25467 8.87581 5.33201C8.84515 5.41467 8.71048 5.54001 8.80915 5.79867C8.88648 5.96267 8.91981 6.22801 8.88381 6.52534C8.82781 6.60934 8.81715 6.63867 8.74381 6.72267C8.64248 6.83334 8.53048 6.80534 8.44781 6.76267C8.36782 6.70934 8.30648 6.68267 8.27048 6.51467C8.27715 6.24801 8.29315 5.80534 8.24381 5.71201C8.17181 5.56801 8.05182 5.61867 8.00115 5.66267C7.75715 5.88934 7.63581 6.26667 7.56115 6.56934C7.49448 6.78801 7.42115 6.72401 7.37048 6.63601C7.24648 6.51867 7.23715 5.60934 7.08781 5.76001C6.84781 6.44534 7.22515 7.19601 7.48781 7.12267C7.67448 7.20267 7.79448 6.84267 7.87181 6.44934C7.92515 6.33867 7.96515 6.32534 7.99182 6.38267C7.98515 6.90534 8.03181 7.02267 8.16515 7.18001C8.46381 7.41201 8.71181 7.20934 8.73181 7.19067L8.96515 6.95867C9.01848 6.90534 9.08515 6.90001 9.15848 6.94801C9.23048 7.01467 9.22115 7.12534 9.37181 7.20134C9.50248 7.25467 9.77581 7.21467 9.83848 7.10401C9.92515 6.95734 9.94515 6.90667 9.98515 6.85067C10.0465 6.77067 10.1518 6.80667 10.1518 6.83201C10.1425 6.87867 10.0811 6.92534 10.1225 7.00534C10.1958 7.05867 10.2131 7.02401 10.2558 7.01201C10.4078 6.94001 10.5225 6.60934 10.5225 6.60934C10.5291 6.48667 10.4598 6.49601 10.4158 6.52134C10.3558 6.55734 10.3531 6.56934 10.2958 6.60534C10.2198 6.61601 10.0758 6.66534 10.0051 6.55467C9.93181 6.42134 9.93181 6.23734 9.87581 6.10134C9.87581 6.09334 9.77848 5.89201 9.86781 5.88001C9.91181 5.88801 10.0105 5.91334 10.0251 5.83201C10.0731 5.75201 9.92248 5.52534 9.81981 5.41334C9.73181 5.31601 9.60915 5.30401 9.49048 5.40267C9.40648 5.48001 9.41981 5.56534 9.40248 5.64667C9.38248 5.74001 9.38648 5.85601 9.48248 5.98001C9.56515 6.14267 9.71581 6.35334 9.66515 6.64934C9.66515 6.64934 9.57848 6.79067 9.42515 6.77201C9.35848 6.75867 9.25448 6.73201 9.19848 6.31867C9.15848 6.00801 9.20915 5.57201 9.07848 5.36801C9.04781 5.29201 9.02248 5.21734 8.97981 5.22134L8.97715 5.21467ZM8.55315 5.24934C8.51315 5.25334 8.46915 5.30001 8.43315 5.38934C8.40248 5.45867 8.36381 5.81601 8.37048 5.81601C8.34381 5.92267 8.48115 5.96801 8.54381 5.83201C8.63715 5.57867 8.63715 5.47201 8.64248 5.36801C8.62915 5.28801 8.59315 5.24801 8.55315 5.25067V5.24934ZM10.1171 5.27601C10.0771 5.28134 10.0438 5.30534 10.0318 5.36667C10.0145 5.50801 10.0238 5.58667 10.0478 5.70534C10.0651 5.78534 10.1811 5.91601 10.2371 5.99334C10.5078 6.35734 10.7705 6.72267 11.0211 7.10001C11.0611 7.38267 11.0878 7.65734 11.1078 7.93201C11.1505 8.53201 11.1611 9.27867 11.1251 9.91201C11.2371 9.91601 11.4185 9.72934 11.4811 9.45867C11.5211 9.08001 11.4678 8.31201 11.4625 8.08801L11.4491 7.77067C11.7425 8.25067 12.0251 8.75734 12.3025 9.31201C12.4051 9.26401 12.3825 8.69201 12.3238 8.61201C12.0998 8.13201 11.7905 7.65734 11.6931 7.47467C11.6571 7.40801 11.5358 7.22534 11.3931 7.01334C11.3665 6.70934 11.3371 6.45334 11.3185 6.37601C11.2718 6.05601 11.4491 6.41201 11.4251 6.22667C11.3665 5.90667 11.1905 5.69067 10.9825 5.39734C10.9158 5.30401 10.9158 5.28267 10.8131 5.42134C10.7531 5.56134 10.7531 5.67867 10.7731 5.78801C10.7438 5.74801 10.7105 5.70267 10.6625 5.64401L10.3225 5.35601C10.2758 5.32267 10.1851 5.27201 10.1171 5.27601ZM14.7518 5.32534C14.7318 5.32267 14.7118 5.33201 14.6851 5.36801C14.6385 5.40801 14.5891 5.48401 14.5918 5.58134C14.6011 5.74801 14.6318 5.92001 14.6425 6.08801L14.6558 6.15467C14.6371 6.13334 14.6211 6.11467 14.6118 6.10667C14.2825 5.76001 14.7625 6.04801 14.5478 5.78267C14.3678 5.58267 14.3145 5.52134 14.1611 5.40134C14.0811 5.35334 14.0358 5.25734 14.0105 5.42001C13.9998 5.56267 13.9891 5.72934 13.9971 5.84934C13.9971 5.91601 14.0678 6.04267 14.1278 6.11601C14.3465 6.38667 14.5705 6.67334 14.7945 6.97201C14.8425 7.58134 14.8545 8.14001 14.9011 8.75067C14.8958 9.01201 14.8158 9.35867 14.7411 9.39067C14.7411 9.39067 14.6238 9.45734 14.5465 9.38401C14.4891 9.36134 14.2638 9.00667 14.2638 9.00667C14.1478 8.90001 14.0705 8.93067 13.9891 9.00667C13.7625 9.22534 13.6585 9.63601 13.5051 9.91867C13.4651 9.98134 13.3545 10.036 13.2305 9.91334C12.9145 9.48134 13.0971 8.86667 13.0598 9.02534C12.7798 9.34267 12.9025 9.86801 12.9665 9.98134C13.0598 10.168 13.1345 10.288 13.3131 10.3773C13.4798 10.4973 13.6065 10.424 13.6785 10.3373C13.8438 10.1667 13.8465 9.72801 13.9238 9.64134C13.9771 9.48134 14.1145 9.50801 14.1811 9.58001C14.2478 9.67334 14.3225 9.73334 14.4171 9.78401C14.5718 9.92001 14.7558 9.94401 14.9371 9.82001C15.0611 9.75067 15.1425 9.66001 15.2145 9.48134C15.2945 9.27334 15.2545 8.18001 15.2371 7.57201L15.5838 8.07334C15.6318 8.60667 15.6545 9.13334 15.6371 9.63734C15.6265 9.73734 15.9878 9.33867 15.9838 9.14934C15.9838 8.98534 15.9865 8.83467 15.9838 8.69601C16.1611 8.97601 16.3305 9.26001 16.4905 9.54934C16.5905 9.49601 16.5571 8.93201 16.4945 8.85601C16.3265 8.57334 16.1105 8.26934 15.9438 8.03201C15.9105 7.73467 15.8665 7.38401 15.8451 7.27601C15.8145 7.10801 15.7825 6.85601 15.7345 6.65734C15.7211 6.58134 15.6811 6.33334 15.6945 6.31067C15.7131 6.25334 15.7878 6.31067 15.8238 6.24667C15.8771 6.18667 15.6345 5.55334 15.5105 5.37467C15.4665 5.29467 15.3851 5.32134 15.2865 5.45467C15.1931 5.54001 15.2278 5.73734 15.2625 5.92534C15.3531 6.40534 15.4358 6.89067 15.4998 7.37867C15.3798 7.19867 15.2331 6.98267 15.0891 6.77601L15.0705 6.68267C15.0705 6.67201 15.0518 6.28934 15.0345 6.19867C15.0305 6.16134 15.0211 6.15067 15.0611 6.15601C15.1011 6.19067 15.1065 6.19201 15.1318 6.20401C15.1745 6.20934 15.2118 6.14001 15.1851 6.07467L14.7985 5.36267C14.7851 5.34534 14.7665 5.32934 14.7451 5.32667L14.7518 5.32534ZM2.79181 5.33867C2.71848 5.33601 2.64115 5.37867 2.67181 5.46534C2.65315 5.51201 2.81048 5.66934 2.83848 5.75601C2.86115 5.81867 2.81181 6.01601 2.86515 6.03601C2.91181 6.05601 2.97715 5.89734 3.00115 5.75201C3.01448 5.67201 3.00515 5.39734 2.81848 5.34134C2.80915 5.33867 2.79981 5.33867 2.78915 5.33734L2.79181 5.33867ZM16.4185 5.33867C16.4011 5.34134 16.3811 5.36534 16.3518 5.43201C16.2785 5.55201 16.2531 5.76534 16.2825 5.95201C16.4558 7.13867 16.5891 8.28801 16.6158 9.33867C16.5998 9.44001 16.5945 9.49334 16.5491 9.61867C16.4451 9.75201 16.3305 9.91734 16.2225 9.99734C16.1158 10.0773 15.8865 10.1547 15.8118 10.2133C15.5718 10.3493 15.5718 10.5067 15.7638 10.5133C16.0945 10.4733 16.4865 10.4467 16.7558 10.04C16.8278 9.92667 16.9131 9.61734 16.9158 9.42667C16.9425 8.32001 16.9025 7.23334 16.7358 6.43201C16.7251 6.35201 16.6905 6.17467 16.7038 6.15201C16.7238 6.09601 16.8318 6.15601 16.8705 6.09334C16.9278 6.03467 16.5905 5.60401 16.4731 5.42001C16.4491 5.37467 16.4331 5.33601 16.4145 5.34001L16.4185 5.33867ZM12.9478 5.35734C12.9345 5.36001 12.9158 5.38134 12.8785 5.43067C12.7851 5.73201 12.7531 5.97734 12.7891 6.16667C13.0291 7.40667 13.2691 8.53334 13.2318 9.71334C13.3438 9.71334 13.4745 9.45601 13.5305 9.20001C13.5611 8.84667 13.5091 8.63201 13.5011 8.42667C13.4918 8.21867 13.2665 6.53867 13.2211 6.38267C13.1651 6.08667 13.4398 6.34267 13.4105 6.17201C13.3145 5.95334 13.0771 5.63867 13.0051 5.44801C12.9785 5.39734 12.9731 5.35067 12.9518 5.35467L12.9478 5.35734ZM4.50248 5.38134C4.47581 5.38667 4.44515 5.41067 4.43581 5.44801C4.42915 5.47467 4.44648 5.51867 4.42248 5.53201C4.40915 5.54534 4.35848 5.53601 4.36115 5.46534C4.36115 5.44134 4.34381 5.41734 4.33448 5.40267C4.32381 5.39734 4.31715 5.39601 4.29848 5.39601C4.27581 5.39601 4.27581 5.40267 4.26381 5.42267C4.25848 5.44134 4.25048 5.46001 4.25048 5.48134C4.24781 5.50801 4.23715 5.51467 4.21981 5.51867C4.19848 5.51867 4.20248 5.52134 4.18648 5.50934C4.17315 5.50001 4.16248 5.49601 4.16248 5.47734C4.16248 5.45734 4.15715 5.42401 4.15181 5.41334C4.14248 5.40001 4.12781 5.39467 4.11181 5.39067C4.02381 5.39067 4.01848 5.49467 4.02248 5.53201C4.01581 5.54001 4.01315 5.71867 4.13315 5.76934C4.29315 5.84667 4.59715 5.81334 4.58648 5.55334C4.58648 5.53067 4.57981 5.45334 4.57715 5.43334C4.56115 5.39334 4.53048 5.38001 4.50115 5.38401L4.50248 5.38134ZM6.67048 5.38401C6.61448 5.38667 6.56381 5.40267 6.52381 5.42401C6.41715 5.52667 6.39048 5.69067 6.47581 5.79334C6.55581 5.83334 6.63981 5.91334 6.58515 5.96001C6.35315 6.20667 5.74915 6.62134 5.71848 6.69734V6.70534H5.72381V6.70801C5.75448 6.72801 6.13315 6.72801 6.17448 6.70801H6.17715C6.30781 6.65867 6.92381 5.95467 6.92381 5.95467C6.89181 5.92801 6.86248 5.90667 6.83048 5.87867C6.79581 5.84934 6.79981 5.82001 6.83048 5.79067C6.98248 5.70267 6.93448 5.50667 6.85448 5.41734C6.78781 5.38801 6.72648 5.37734 6.67048 5.38134V5.38401ZM12.3371 5.38401C12.3211 5.38801 12.3011 5.41067 12.2705 5.47734C12.1971 5.59734 12.1478 5.80401 12.1545 5.99734C12.3118 7.09067 12.3598 8.04667 12.4638 9.14001C12.4718 9.24667 12.4558 9.39867 12.3865 9.46001C12.1251 9.73201 11.7505 10.0653 11.3425 10.22C11.2985 10.2693 11.4518 10.4787 11.6491 10.4787C11.9798 10.4387 12.2705 10.2547 12.5425 9.76534C12.6131 9.65201 12.7398 9.40801 12.7425 9.21867C12.7691 8.10934 12.6891 7.24534 12.5211 6.44534C12.5118 6.36534 12.5185 6.27201 12.5318 6.25067C12.5531 6.22401 12.6251 6.25067 12.6651 6.18801C12.7211 6.12934 12.5131 5.65067 12.3958 5.46801C12.3718 5.42134 12.3585 5.38401 12.3371 5.38534V5.38401ZM3.55848 5.42001C3.51315 5.42534 3.47048 5.46001 3.44915 5.51334C3.44248 5.68667 3.44115 5.86001 3.46248 6.02267C3.54248 6.30667 3.56515 6.55601 3.60381 6.84534C3.61715 7.23467 3.37981 7.01334 3.39048 6.82134C3.44381 6.57067 3.43048 6.17734 3.38248 6.07734C3.34248 5.97734 3.29981 5.95334 3.20648 5.97067C3.13315 5.96534 2.94248 6.17067 2.88915 6.51734C2.88915 6.51734 2.84381 6.69334 2.82515 6.85067C2.79848 7.02801 2.68115 7.15467 2.59848 6.82667C2.52781 6.58667 2.48515 6.00001 2.36648 6.13601C2.33181 6.59467 2.29181 7.40267 2.68115 7.48534C3.15315 7.53067 2.89181 6.68801 3.06248 6.53467C3.09581 6.46134 3.15581 6.46001 3.15981 6.55467V7.27067C3.15448 7.50267 3.30648 7.57201 3.42648 7.62001C3.55048 7.61067 3.63181 7.61467 3.67981 7.73467L3.73981 8.97467C3.73981 8.97467 4.02515 9.05467 4.03848 8.27734C4.05181 7.82001 3.94515 7.43734 4.00781 7.34801C4.01048 7.26001 4.12248 7.25467 4.19981 7.29867C4.32381 7.38534 4.37848 7.49201 4.57048 7.44934C4.86381 7.36934 5.03715 7.22801 5.04115 7.00401C5.02781 6.79067 5.00115 6.57734 4.90781 6.36401C4.92115 6.32667 4.85448 6.22667 4.86781 6.18801C4.91848 6.26801 4.99848 6.26267 5.01448 6.18801C4.96648 6.02401 4.88915 5.86801 4.76381 5.80134C4.66115 5.70801 4.51048 5.72801 4.45448 5.91734C4.42781 6.13601 4.53448 6.39467 4.69448 6.60667C4.72648 6.68934 4.77448 6.82667 4.75315 6.95067C4.66915 6.99867 4.58515 6.97734 4.51315 6.90401C4.51315 6.90401 4.28248 6.73067 4.28248 6.69067C4.34515 6.29734 4.29581 6.25067 4.26248 6.14401C4.23848 5.99201 4.16648 5.94401 4.10915 5.84001C4.05048 5.77734 3.97181 5.77734 3.93581 5.84001C3.83181 6.01734 3.87981 6.40001 3.95448 6.56934C4.00781 6.72667 4.09048 6.82534 4.05181 6.82534C4.01981 6.91201 3.95315 6.89201 3.90515 6.78934C3.83848 6.57601 3.82248 6.26134 3.82248 6.11867C3.80248 5.94267 3.77981 5.56534 3.66248 5.46934C3.63181 5.42667 3.59581 5.41201 3.55981 5.41601L3.55848 5.42001ZM5.21448 5.42001C5.19181 5.42534 5.16515 5.43867 5.13448 5.44667C5.03448 5.47734 4.94115 5.56401 4.97048 5.73201C5.09048 6.45201 5.16648 7.00267 5.28515 7.72267C5.30248 7.80801 5.23181 7.91867 5.14115 7.90934C4.98648 7.80267 4.94781 7.58934 4.68381 7.60001C4.49181 7.60001 4.27315 7.81067 4.24648 8.01067C4.21448 8.17067 4.20381 8.34401 4.24648 8.48267C4.37981 8.64267 4.54248 8.62667 4.68381 8.58934C4.79981 8.54267 4.89715 8.42934 4.93715 8.45601C4.96381 8.50001 4.93448 8.87467 4.39048 9.16267C4.05448 9.31467 3.78781 9.34934 3.64381 9.07734C3.55581 8.90667 3.65181 8.25601 3.43315 8.40534C2.78515 10.0747 4.94915 10.3067 5.19048 8.47467C5.20648 8.42134 5.25315 8.37067 5.28781 8.38401C5.30115 8.39067 5.31448 8.41067 5.31981 8.44801C5.26915 10.1067 3.64515 10.2213 3.37048 9.69867C3.30115 9.57601 3.28115 9.30134 3.27448 9.13867C3.26115 9.03867 3.23715 8.98134 3.20781 8.95867C3.14115 8.90934 3.05315 9.03867 3.03448 9.26134C3.00781 9.44134 3.01448 9.49067 3.01448 9.66401C3.10248 10.9747 5.19181 10.4107 5.53181 9.33067C5.69981 8.77067 5.52781 8.34801 5.58515 8.29601L5.58915 8.29334H5.59315L5.59981 8.29067C5.80781 8.51467 6.09848 8.31734 6.16248 8.24134C6.18915 8.20134 6.25848 8.17467 6.30648 8.22801C6.46648 8.34267 6.75181 8.28801 6.81048 8.08134C6.84515 7.88134 6.87448 7.67601 6.88115 7.46134C6.77448 7.49467 6.68915 7.51867 6.65448 7.55467C6.64648 7.56401 6.64115 7.57467 6.63848 7.58534L6.61181 7.76267C6.61181 7.76934 6.60915 7.77334 6.60648 7.77601C6.60248 7.78534 6.59315 7.79201 6.58781 7.79601C6.55048 7.81601 6.48515 7.80534 6.48115 7.75067C6.43181 7.52401 6.22515 7.49467 6.09981 7.84801C6.01581 7.91467 5.85981 7.92801 5.84648 7.82667C5.86648 7.58934 5.77048 7.55734 5.57981 7.66934L5.39581 6.28267C5.47581 6.27867 5.54781 6.33601 5.62248 6.24534C5.54248 6.00001 5.37581 5.50134 5.28115 5.45334H5.27848L5.26515 5.44001C5.26515 5.43734 5.26115 5.43601 5.25848 5.43467L5.25315 5.42667C5.24781 5.42667 5.24248 5.42401 5.23981 5.42267C5.23048 5.42001 5.22248 5.42001 5.21315 5.42001H5.21448ZM11.6705 5.42534C11.5878 5.42267 11.4971 5.47467 11.5318 5.57867C11.5105 5.63601 11.7091 5.82801 11.7411 5.93201C11.7985 6.09201 11.6971 6.24801 11.7571 6.27067C11.8131 6.29467 11.8905 6.10401 11.9171 5.92667C11.9518 5.78267 11.8505 5.48934 11.7038 5.42934L11.6705 5.42667V5.42534ZM6.63981 5.60001C6.67715 5.59734 6.72248 5.63201 6.74648 5.68001C6.76915 5.73334 6.75715 5.78267 6.71981 5.79201C6.67981 5.80134 6.62915 5.76801 6.60515 5.71467C6.58115 5.66134 6.59181 5.61201 6.63181 5.60267H6.63981V5.60001ZM15.9691 5.84267C15.8931 5.84001 15.8091 5.89601 15.8438 6.00934C15.8251 6.07067 16.0038 6.27867 16.0345 6.39334C16.0611 6.47334 15.9945 6.73467 16.0478 6.75867C16.0985 6.78534 16.1678 6.57734 16.1945 6.38534C16.2105 6.27867 16.1331 5.91201 16.0011 5.84667C15.9918 5.84401 15.9811 5.84134 15.9705 5.84134L15.9691 5.84267ZM10.8091 5.97067C10.8185 6.00134 10.8251 6.03201 10.8291 6.06401C10.8451 6.13067 10.8585 6.19734 10.8718 6.26667C10.8131 6.18401 10.7651 6.11734 10.7425 6.09334C10.6091 5.93334 10.7451 5.98934 10.8091 5.97067ZM11.9998 6.55467C11.9705 6.56001 11.9425 6.58534 11.9331 6.62534C11.9251 6.64934 11.9438 6.69201 11.9198 6.70534C11.9065 6.71867 11.8531 6.71067 11.8571 6.63867C11.8571 6.61467 11.8398 6.58934 11.8305 6.57601C11.8198 6.56934 11.8131 6.56667 11.7945 6.56667C11.7718 6.56667 11.7718 6.57334 11.7598 6.59334C11.7545 6.61201 11.7465 6.63067 11.7465 6.65334C11.7465 6.68001 11.7358 6.68801 11.7171 6.69334C11.6958 6.69334 11.6998 6.69334 11.6825 6.68401C11.6718 6.67067 11.6598 6.66801 11.6598 6.64934C11.6598 6.62934 11.6558 6.59867 11.6491 6.58534C11.6398 6.57201 11.6265 6.56801 11.6091 6.56267C11.5225 6.56267 11.5158 6.66401 11.5211 6.70134C11.5158 6.70934 11.5118 6.89067 11.6318 6.94134C11.7945 7.01734 12.0985 6.98134 12.0851 6.72267C12.0851 6.70001 12.0785 6.62267 12.0771 6.60267C12.0598 6.56267 12.0291 6.54934 12.0011 6.55334L11.9998 6.55467ZM6.57315 6.60801C6.55448 6.60801 6.52781 6.61334 6.49715 6.63201C6.35448 6.70934 6.29981 6.93867 6.39048 7.07201C6.47048 7.19201 6.60381 7.14801 6.62115 7.14801C6.76115 7.16667 6.84381 6.88667 6.84381 6.88667C6.84381 6.88667 6.84781 6.80667 6.68381 6.95601C6.61181 6.96934 6.60381 6.94267 6.58515 6.90267C6.56915 6.83201 6.57181 6.75601 6.60515 6.68534C6.62115 6.64134 6.60515 6.61334 6.57315 6.61067V6.60801ZM14.2438 6.64401C14.1638 6.64001 14.0798 6.69201 14.0571 6.80001C14.0571 6.86401 14.0865 6.89867 14.0811 6.95734C14.0745 6.99067 14.0411 7.01067 13.9585 6.97334C13.9718 6.96001 13.9051 6.86934 13.9051 6.86934C13.8425 6.82934 13.7585 6.86934 13.7025 6.90667C13.6718 6.96267 13.6491 7.05734 13.6838 7.15334C13.7745 7.32267 14.0878 7.61067 14.2371 7.61334C14.2398 7.46134 14.2545 7.25867 14.2638 7.13334C14.2665 7.08534 14.2771 7.03334 14.3238 7.02134C14.3691 7.00801 14.4478 7.06667 14.4478 7.01734C14.4398 6.92134 14.4211 6.77734 14.3678 6.71067C14.3385 6.67067 14.2918 6.64667 14.2451 6.64401H14.2438ZM7.89315 7.17334L7.88915 7.17734C7.88915 7.17734 7.88648 7.17734 7.88515 7.18001C7.86915 7.19334 7.85048 7.22001 7.80915 7.24667C7.73848 7.32667 7.72648 7.38401 7.72915 7.54401C7.73448 7.56134 7.86248 7.92134 7.97315 8.17334C8.04781 8.43601 8.11581 8.73734 8.06648 9.02134C7.89315 9.39734 7.54648 9.73467 7.20915 9.91867C7.03581 9.97201 6.88915 9.95334 6.84915 9.91601C6.75048 9.84934 6.74915 9.72934 6.75582 9.71067V9.70667C7.03848 9.50934 7.36248 9.34934 7.61581 8.81734C7.69048 8.61334 7.71448 8.49067 7.63981 8.17734C7.61048 8.05734 7.57315 7.96401 7.49315 7.87867H7.49581C7.54381 7.85601 7.66915 7.94801 7.68915 7.89201C7.65848 7.74001 7.55581 7.53867 7.44248 7.43467C7.34115 7.34134 7.22915 7.33201 7.13848 7.41601C7.03448 7.47467 7.01315 7.68267 7.06248 7.86401C7.11848 8.00001 7.26915 8.02401 7.37581 8.30001C7.37848 8.31867 7.41181 8.50667 7.35848 8.58401C7.31315 8.72001 6.75181 9.16267 6.71181 9.18934L6.70781 9.19201L6.70515 9.19467H6.70248H6.69981V9.19067C6.69715 9.18001 6.69981 9.15067 6.69981 9.10667C6.69581 9.02401 6.73048 8.83601 6.72648 8.80267V8.80001C6.53981 8.92001 6.47715 9.28667 6.44381 9.39601C5.97315 9.72001 5.43981 9.96134 5.13181 10.2893C4.97181 10.5427 6.23581 10.004 6.38248 9.93867L6.38648 9.94267C6.41581 9.97334 6.41715 10.08 6.50115 10.1773C6.63448 10.3547 6.91181 10.464 7.18381 10.396C7.63981 10.232 7.90381 9.92134 8.17048 9.57601C8.20781 9.52267 8.26781 9.47734 8.32381 9.52001C8.50648 9.93067 9.03715 10.224 9.72115 10.2533C9.88115 10.0613 9.80515 9.96667 9.74115 9.92667C9.72115 9.91334 9.40115 9.78801 9.35048 9.66401C9.31981 9.54934 9.39581 9.44667 9.54781 9.37067C9.98781 9.31734 10.4198 9.25734 10.8385 9.12267C10.8425 8.98134 10.9251 8.77201 10.9811 8.68001C11.0211 8.61734 11.0438 8.61067 11.0531 8.60267V8.60001H11.0558V8.59601V8.58267L10.9838 8.54001L9.57981 8.53467C9.56248 8.52801 9.55048 8.52134 9.54248 8.51467L9.53981 8.51067C9.53981 8.51067 9.53715 8.51067 9.53715 8.50801C9.53715 8.50534 9.53448 8.50534 9.53448 8.50534V8.50667V8.50401V8.50134V8.49867L9.53715 8.49467C9.54381 8.48667 9.56115 8.47734 9.58115 8.46801C9.91715 8.42401 10.5118 8.32667 10.5518 7.75467C10.5451 7.45601 10.4238 7.26134 10.0585 7.20801C9.78915 7.22801 9.59715 7.48801 9.62781 7.77334C9.61448 7.84934 9.65448 8.00001 9.57448 8.01734C9.05981 8.06534 8.49715 8.38801 8.47848 8.62001H8.47581H8.47315H8.47048C8.47048 8.62267 8.46781 8.62267 8.46648 8.62267H8.46115H8.45848H8.45315C8.41981 8.61201 8.37715 8.55601 8.38381 8.48001C8.36381 8.08001 8.23315 7.62667 8.03048 7.28001C7.95715 7.20667 7.92381 7.17734 7.90515 7.17334H7.90115H7.89715H7.89448H7.89315ZM9.23715 7.38401C9.21048 7.38934 9.17981 7.41334 9.17048 7.45334C9.16382 7.48001 9.18381 7.52267 9.15981 7.53601C9.14648 7.54934 9.09315 7.54134 9.09581 7.46934C9.09581 7.44667 9.07848 7.42134 9.06915 7.40667C9.05848 7.40001 9.05181 7.39867 9.03448 7.39867C9.01181 7.39867 9.01048 7.40401 8.99848 7.42267C8.99181 7.44134 8.98515 7.46267 8.98515 7.48267C8.98248 7.50934 8.97181 7.51734 8.95448 7.52001C8.93315 7.52001 8.93848 7.52401 8.92115 7.51334C8.91048 7.50267 8.89715 7.49734 8.89715 7.47867C8.89715 7.45867 8.89315 7.42534 8.88781 7.41201C8.87848 7.40267 8.86381 7.39867 8.84781 7.39334C8.75848 7.39334 8.75448 7.49334 8.75848 7.53201C8.75181 7.53867 8.74781 7.71867 8.86781 7.76934C9.02781 7.84667 9.41448 7.80134 9.32115 7.55201C9.32115 7.52934 9.31448 7.45201 9.31315 7.43201C9.29581 7.39201 9.26515 7.37867 9.23581 7.38267L9.23715 7.38401ZM14.6571 7.60667H14.6438C14.6438 7.60667 13.8945 8.14001 13.8771 8.15867C13.8025 8.22534 13.8398 8.45601 13.8771 8.42934C13.9305 8.44934 14.6838 7.93867 14.6691 7.87867C14.7025 7.88134 14.7185 7.61601 14.6558 7.60534L14.6571 7.60667ZM9.94515 7.68667C9.97448 7.68267 10.0145 7.69334 10.0518 7.71334C10.1091 7.74801 10.1451 7.79601 10.1385 7.83334V7.83867C10.1358 7.83867 10.1358 7.83867 10.1358 7.84134V7.84401C10.1358 7.84401 10.1331 7.84401 10.1331 7.84667C10.1331 7.84934 10.1291 7.85201 10.1265 7.85467C10.0998 7.88134 10.0385 7.87601 9.97981 7.84134C9.92381 7.81067 9.89048 7.76134 9.89315 7.72667V7.72267L9.89981 7.70934C9.89981 7.70934 9.89981 7.70667 9.90248 7.70534L9.90915 7.69734C9.91848 7.69067 9.93048 7.68401 9.94515 7.68401V7.68667ZM3.38781 7.82001C3.00115 7.82801 2.43181 8.32934 2.41715 8.60667L3.64381 8.02001C3.57715 7.91867 3.63981 7.82801 3.38781 7.82001ZM4.64515 7.99334C4.68248 7.99601 4.72248 8.01467 4.74381 8.06801C4.76248 8.11734 4.74381 8.16801 4.72115 8.19334V8.19734C4.70248 8.21867 4.64648 8.21067 4.60515 8.21067C4.55581 8.20801 4.53181 8.20001 4.50248 8.16001C4.48648 8.11334 4.52915 8.06934 4.54915 8.03734L4.55848 8.02401C4.57181 8.01067 4.59848 8.00001 4.62515 7.99734L4.64248 7.99467L4.64515 7.99334ZM14.5118 8.14934C14.4411 8.15734 14.3758 8.22267 14.4051 8.32667C14.3865 8.38801 14.4985 8.60267 14.5291 8.71601C14.5558 8.79601 14.4945 9.02667 14.5491 9.04934C14.5998 9.07601 14.7318 8.91601 14.7278 8.71067C14.7411 8.60401 14.6905 8.21734 14.5585 8.15334C14.5425 8.14934 14.5265 8.14801 14.5105 8.14934H14.5118ZM6.13315 8.52801C6.07181 8.53201 6.01715 8.56401 6.04248 8.65067C6.03848 8.71201 6.21581 8.78801 6.22515 8.93067C6.24915 8.99201 6.18515 9.18401 6.23848 9.20001C6.28648 9.22001 6.35315 9.06667 6.37848 8.92801C6.39181 8.85067 6.31715 8.58134 6.19181 8.53201C6.17181 8.52667 6.15181 8.52534 6.13181 8.52667L6.13315 8.52801ZM8.63981 8.86934H8.65581C8.81315 8.91201 9.04248 8.91734 9.24248 8.93601C9.40648 8.94934 9.48648 9.07467 9.33581 9.12934C9.18381 9.18001 9.03848 9.22267 9.03848 9.43867C9.05715 9.54534 9.05182 9.60134 9.03582 9.62534C9.03582 9.62934 9.03181 9.63201 9.03048 9.63334C9.03048 9.63334 9.03048 9.63601 9.02781 9.63601V9.63867H9.02381L9.01448 9.64267H9.00781C8.97181 9.64934 8.91982 9.61601 8.88115 9.59467C8.78782 9.52801 8.52781 9.36801 8.49048 9.02134C8.48515 8.94134 8.54381 8.87467 8.63715 8.86801L8.63981 8.86934ZM2.51448 9.13601C2.50515 9.13601 2.48781 9.16534 2.46115 9.19867C2.22915 9.56534 2.20781 10.1133 2.33581 10.2787C2.40248 10.3547 2.51448 10.3893 2.59715 10.3653C2.74381 10.3027 2.80648 10.008 2.77048 9.90134C2.72381 9.82534 2.68515 9.81334 2.63715 9.87734C2.53448 10.084 2.49048 9.94134 2.48381 9.82401C2.46781 9.60667 2.48915 9.40401 2.51315 9.24401C2.52648 9.16401 2.52648 9.13334 2.51315 9.13334L2.51448 9.13601ZM10.3771 9.61867C10.3598 9.61867 10.3425 9.62134 10.3238 9.63201C10.3198 9.63201 10.1585 9.73867 10.1065 9.81601C10.0745 9.84001 10.0798 9.86001 10.0878 9.90267C10.1118 9.96001 10.1545 9.94267 10.2051 9.91601C10.2718 9.90534 10.3025 9.94934 10.2985 10.028C10.2678 10.128 10.3118 10.164 10.3118 10.1707C10.3118 10.176 10.3745 10.2307 10.4491 10.188C10.6051 10.128 10.7025 10.068 10.9225 10.0213C10.9798 10.0213 10.9758 9.86667 10.8851 9.86134C10.7651 9.86667 10.6585 9.87467 10.5385 9.96801C10.4651 9.98401 10.4531 9.93867 10.4358 9.89867C10.4171 9.80001 10.4785 9.73067 10.4651 9.65601C10.4678 9.66001 10.4278 9.62401 10.3758 9.62134L10.3771 9.61867ZM15.4118 9.80534L15.3051 9.81601C15.2571 9.82534 15.2411 9.84667 15.2318 9.90534C15.2358 9.99201 15.2891 9.98801 15.3451 10.0227C15.3771 10.0627 15.3985 10.1 15.3425 10.1693C15.2891 10.216 15.2531 10.2427 15.1998 10.2893C15.1771 10.332 15.1598 10.396 15.2371 10.4173C15.3771 10.4573 15.7011 10.2467 15.7011 10.244C15.7545 10.204 15.7358 10.128 15.7318 10.128C15.6998 10.0933 15.6305 10.1147 15.5851 10.108C15.5625 10.108 15.4918 10.0973 15.5238 10.0333C15.5531 9.99334 15.5638 9.97067 15.5838 9.92134C15.6038 9.87334 15.5838 9.84134 15.5065 9.81467C15.4665 9.80667 15.4398 9.80401 15.4091 9.80534H15.4118ZM13.4745 14.952C13.8345 14.9693 14.1705 14.956 14.5278 14.9733C14.5865 15.0213 14.5585 15.1333 14.5211 15.152L14.5145 15.1547H14.5105H14.5051L14.2038 15.1467V15.1293C14.1745 15.0467 13.9745 15.052 13.9265 15.116V15.12C13.9238 15.12 13.9225 15.124 13.9225 15.1253L13.9198 15.132V15.148C13.7598 15.168 13.6198 15.1427 13.4625 15.1373C13.4158 15.08 13.4225 14.9773 13.4758 14.9507L13.4745 14.952Z" fill="white"/>
</svg>
