<svg width="8" height="8" viewBox="0 0 8 8" fill="none" xmlns="http://www.w3.org/2000/svg">
<path d="M5.05938 3.99998L7.35937 1.69998C7.64937 1.40998 7.64937 0.929985 7.35937 0.639985C7.06937 0.349985 6.58938 0.349985 6.29938 0.639985L3.99937 2.93998L1.69937 0.639985C1.40937 0.349985 0.929375 0.349985 0.639375 0.639985C0.349375 0.929985 0.349375 1.40998 0.639375 1.69998L2.93937 3.99998L0.639375 6.29999C0.349375 6.58999 0.349375 7.06998 0.639375 7.35998C0.789375 7.50998 0.979375 7.57999 1.16937 7.57999C1.35937 7.57999 1.54937 7.50998 1.69937 7.35998L3.99937 5.05999L6.29938 7.35998C6.44938 7.50998 6.63937 7.57999 6.82937 7.57999C7.01937 7.57999 7.20937 7.50998 7.35937 7.35998C7.64937 7.06998 7.64937 6.58999 7.35937 6.29999L5.05938 3.99998Z" fill="currentColor"/>
</svg>
