<svg width="21" height="20" viewBox="0 0 21 20" fill="none" xmlns="http://www.w3.org/2000/svg">
<mask id="path-1-inside-1_9594_1691" fill="white">
<path d="M8 14.7916C7.91667 14.7916 7.84167 14.775 7.75833 14.7416C7.525 14.65 7.375 14.4166 7.375 14.1666V9.16663C7.375 8.82496 7.65833 8.54163 8 8.54163C8.34167 8.54163 8.625 8.82496 8.625 9.16663V12.6583L9.225 12.0583C9.46667 11.8166 9.86667 11.8166 10.1083 12.0583C10.35 12.3 10.35 12.7 10.1083 12.9416L8.44167 14.6083C8.325 14.725 8.15833 14.7916 8 14.7916Z"/>
</mask>
<path d="M8 14.7916C7.91667 14.7916 7.84167 14.775 7.75833 14.7416C7.525 14.65 7.375 14.4166 7.375 14.1666V9.16663C7.375 8.82496 7.65833 8.54163 8 8.54163C8.34167 8.54163 8.625 8.82496 8.625 9.16663V12.6583L9.225 12.0583C9.46667 11.8166 9.86667 11.8166 10.1083 12.0583C10.35 12.3 10.35 12.7 10.1083 12.9416L8.44167 14.6083C8.325 14.725 8.15833 14.7916 8 14.7916Z" fill="currentColor"/>
<path d="M7.75833 14.7416L8.31543 13.3489L8.30681 13.3455L7.75833 14.7416ZM8.625 12.6583H7.125V16.2796L9.68566 13.719L8.625 12.6583ZM9.225 12.0583L10.2857 13.119L10.2857 13.119L9.225 12.0583ZM10.1083 12.9416L9.04767 11.881L9.04767 11.881L10.1083 12.9416ZM8.44167 14.6083L9.50233 15.669L9.50233 15.669L8.44167 14.6083ZM8 14.7916V13.2916C8.06172 13.2916 8.12571 13.2981 8.18818 13.3113C8.24854 13.324 8.29261 13.3398 8.31542 13.3489L7.75833 14.7416L7.20125 16.1343C7.4277 16.2249 7.6923 16.2916 8 16.2916V14.7916ZM7.75833 14.7416L8.30681 13.3455C8.68093 13.4925 8.875 13.8366 8.875 14.1666H7.375H5.875C5.875 14.9967 6.36907 15.8074 7.20985 16.1378L7.75833 14.7416ZM7.375 14.1666H8.875V9.16663H7.375H5.875V14.1666H7.375ZM7.375 9.16663H8.875C8.875 9.65339 8.48676 10.0416 8 10.0416V8.54163V7.04163C6.82991 7.04163 5.875 7.99653 5.875 9.16663H7.375ZM8 8.54163V10.0416C7.51324 10.0416 7.125 9.65339 7.125 9.16663H8.625H10.125C10.125 7.99653 9.17009 7.04163 8 7.04163V8.54163ZM8.625 9.16663H7.125V12.6583H8.625H10.125V9.16663H8.625ZM8.625 12.6583L9.68566 13.719L10.2857 13.119L9.225 12.0583L8.16434 10.9976L7.56434 11.5976L8.625 12.6583ZM9.225 12.0583L10.2857 13.119C9.94154 13.4631 9.39179 13.4631 9.04767 13.119L10.1083 12.0583L11.169 10.9976C10.3415 10.1702 8.99179 10.1702 8.16434 10.9976L9.225 12.0583ZM10.1083 12.0583L9.04767 13.119C8.70355 12.7748 8.70355 12.2251 9.04767 11.881L10.1083 12.9416L11.169 14.0023C11.9964 13.1748 11.9964 11.8251 11.169 10.9976L10.1083 12.0583ZM10.1083 12.9416L9.04767 11.881L7.38101 13.5476L8.44167 14.6083L9.50233 15.669L11.169 14.0023L10.1083 12.9416ZM8.44167 14.6083L7.38101 13.5476C7.47239 13.4562 7.5716 13.3952 7.66629 13.3563C7.76046 13.3176 7.87236 13.2916 8 13.2916V14.7916V16.2916C8.55011 16.2916 9.10011 16.0712 9.50233 15.669L8.44167 14.6083Z" fill="currentColor" mask="url(#path-1-inside-1_9594_1691)"/>
<mask id="path-3-inside-2_9594_1691" fill="white">
<path d="M8.00003 14.7917C7.8417 14.7917 7.68337 14.7333 7.55837 14.6083L5.8917 12.9417C5.65003 12.7 5.65003 12.3 5.8917 12.0583C6.13337 11.8167 6.53337 11.8167 6.77503 12.0583L8.4417 13.725C8.68337 13.9667 8.68337 14.3667 8.4417 14.6083C8.3167 14.7333 8.15837 14.7917 8.00003 14.7917Z"/>
</mask>
<path d="M8.00003 14.7917C7.8417 14.7917 7.68337 14.7333 7.55837 14.6083L5.8917 12.9417C5.65003 12.7 5.65003 12.3 5.8917 12.0583C6.13337 11.8167 6.53337 11.8167 6.77503 12.0583L8.4417 13.725C8.68337 13.9667 8.68337 14.3667 8.4417 14.6083C8.3167 14.7333 8.15837 14.7917 8.00003 14.7917Z" fill="currentColor"/>
<path d="M7.55837 14.6083L6.49771 15.669L6.49771 15.669L7.55837 14.6083ZM5.8917 12.9417L6.95236 11.881L6.95236 11.881L5.8917 12.9417ZM6.77503 12.0583L5.71437 13.119L5.71437 13.119L6.77503 12.0583ZM8.4417 13.725L9.50236 12.6643L9.50236 12.6643L8.4417 13.725ZM8.00003 14.7917V13.2917C8.21805 13.2917 8.4479 13.3765 8.61903 13.5477L7.55837 14.6083L6.49771 15.669C6.91884 16.0901 7.46534 16.2917 8.00003 16.2917V14.7917ZM7.55837 14.6083L8.61903 13.5477L6.95236 11.881L5.8917 12.9417L4.83104 14.0023L6.49771 15.669L7.55837 14.6083ZM5.8917 12.9417L6.95236 11.881C7.29648 12.2251 7.29648 12.7749 6.95236 13.119L5.8917 12.0583L4.83104 10.9977C4.00359 11.8251 4.00359 13.1749 4.83104 14.0023L5.8917 12.9417ZM5.8917 12.0583L6.95236 13.119C6.60824 13.4631 6.05849 13.4631 5.71437 13.119L6.77503 12.0583L7.83569 10.9977C7.00824 10.1702 5.65849 10.1702 4.83104 10.9977L5.8917 12.0583ZM6.77503 12.0583L5.71437 13.119L7.38104 14.7857L8.4417 13.725L9.50236 12.6643L7.83569 10.9977L6.77503 12.0583ZM8.4417 13.725L7.38104 14.7857C7.03692 14.4415 7.03692 13.8918 7.38104 13.5477L8.4417 14.6083L9.50236 15.669C10.3298 14.8415 10.3298 13.4918 9.50236 12.6643L8.4417 13.725ZM8.4417 14.6083L7.38104 13.5477C7.55217 13.3765 7.78201 13.2917 8.00003 13.2917V14.7917V16.2917C8.53472 16.2917 9.08123 16.0901 9.50236 15.669L8.4417 14.6083Z" fill="currentColor" mask="url(#path-3-inside-2_9594_1691)"/>
<path d="M13 18.9583H7.99996C3.47496 18.9583 1.54163 17.025 1.54163 12.5V7.49996C1.54163 2.97496 3.47496 1.04163 7.99996 1.04163H12.1666C12.5083 1.04163 12.7916 1.32496 12.7916 1.66663C12.7916 2.00829 12.5083 2.29163 12.1666 2.29163H7.99996C4.15829 2.29163 2.79163 3.65829 2.79163 7.49996V12.5C2.79163 16.3416 4.15829 17.7083 7.99996 17.7083H13C16.8416 17.7083 18.2083 16.3416 18.2083 12.5V8.33329C18.2083 7.99163 18.4916 7.70829 18.8333 7.70829C19.175 7.70829 19.4583 7.99163 19.4583 8.33329V12.5C19.4583 17.025 17.525 18.9583 13 18.9583Z" fill="currentColor"/>
<path d="M18.8333 8.95828H15.5C12.65 8.95828 11.5416 7.84995 11.5416 4.99995V1.66662C11.5416 1.41662 11.6916 1.18328 11.925 1.09162C12.1583 0.991617 12.425 1.04995 12.6083 1.22495L19.275 7.89162C19.45 8.06662 19.5083 8.34162 19.4083 8.57495C19.3083 8.80828 19.0833 8.95828 18.8333 8.95828ZM12.7916 3.17495V4.99995C12.7916 7.14995 13.35 7.70828 15.5 7.70828H17.325L12.7916 3.17495Z" fill="currentColor"/>
</svg>
