<svg width="20" height="20" viewBox="0 0 20 20" fill="none" xmlns="http://www.w3.org/2000/svg">
<path d="M12.5 18.9582H7.49999C2.97499 18.9582 1.04166 17.0248 1.04166 12.4998V7.49984C1.04166 2.97484 2.97499 1.0415 7.49999 1.0415H12.5C17.025 1.0415 18.9583 2.97484 18.9583 7.49984V12.4998C18.9583 17.0248 17.025 18.9582 12.5 18.9582ZM7.49999 2.2915C3.65832 2.2915 2.29166 3.65817 2.29166 7.49984V12.4998C2.29166 16.3415 3.65832 17.7082 7.49999 17.7082H12.5C16.3417 17.7082 17.7083 16.3415 17.7083 12.4998V7.49984C17.7083 3.65817 16.3417 2.2915 12.5 2.2915H7.49999Z" fill="currentColor"/>
<path d="M7.50001 8.95833C6.23334 8.95833 5.20834 7.93333 5.20834 6.66667C5.20834 5.4 6.23334 4.375 7.50001 4.375C8.76668 4.375 9.79168 5.4 9.79168 6.66667C9.79168 7.93333 8.76668 8.95833 7.50001 8.95833ZM7.50001 5.625C6.92501 5.625 6.45834 6.09167 6.45834 6.66667C6.45834 7.24167 6.92501 7.70833 7.50001 7.70833C8.07501 7.70833 8.54168 7.24167 8.54168 6.66667C8.54168 6.09167 8.07501 5.625 7.50001 5.625Z" fill="currentColor"/>
<path d="M2.225 16.4168C2.025 16.4168 1.825 16.3168 1.70834 16.1418C1.51667 15.8585 1.59167 15.4668 1.88334 15.2751L5.99167 12.5168C6.89167 11.9085 8.13334 11.9835 8.95 12.6751L9.225 12.9168C9.64167 13.2751 10.35 13.2751 10.7583 12.9168L14.225 9.9418C15.1083 9.18346 16.5 9.18346 17.3917 9.9418L18.75 11.1085C19.0083 11.3335 19.0417 11.7251 18.8167 11.9918C18.5917 12.2501 18.2 12.2835 17.9333 12.0585L16.575 10.8918C16.1583 10.5335 15.45 10.5335 15.0333 10.8918L11.5667 13.8668C10.6833 14.6251 9.29167 14.6251 8.4 13.8668L8.125 13.6251C7.74167 13.3001 7.10834 13.2668 6.68334 13.5585L2.575 16.3168C2.46667 16.3835 2.34167 16.4168 2.225 16.4168Z" fill="currentColor"/>
</svg>
