<svg width="20" height="20" viewBox="0 0 20 20" fill="none" xmlns="http://www.w3.org/2000/svg">
<g clip-path="url(#clip0_10021_9123)">
<path d="M6.37499 17.425C6.34999 17.425 6.31665 17.4417 6.29165 17.4417C4.67499 16.6417 3.35832 15.3167 2.54999 13.7C2.54999 13.675 2.56665 13.6417 2.56665 13.6167C3.58332 13.9167 4.63332 14.1417 5.67499 14.3167C5.85832 15.3667 6.07499 16.4084 6.37499 17.425Z" fill="currentColor"/>
<path d="M17.45 13.7084C16.625 15.3667 15.25 16.7084 13.575 17.5167C13.8917 16.4584 14.1583 15.3917 14.3333 14.3167C15.3833 14.1417 16.4167 13.9167 17.4333 13.6167C17.425 13.65 17.45 13.6834 17.45 13.7084Z" fill="currentColor"/>
<path d="M17.5167 6.42507C16.4667 6.1084 15.4083 5.85007 14.3333 5.66673C14.1583 4.59173 13.9 3.52507 13.575 2.4834C15.3 3.3084 16.6917 4.70007 17.5167 6.42507Z" fill="currentColor"/>
<path d="M6.375 2.5748C6.075 3.59147 5.85834 4.6248 5.68334 5.6748C4.60834 5.84147 3.54167 6.10814 2.48334 6.4248C3.29167 4.7498 4.63334 3.3748 6.29167 2.5498C6.31667 2.5498 6.35 2.5748 6.375 2.5748Z" fill="currentColor"/>
<path d="M12.9083 5.4915C10.975 5.27484 9.02501 5.27484 7.09167 5.4915C7.30001 4.34984 7.56667 3.20817 7.94167 2.10817C7.95834 2.0415 7.95001 1.9915 7.95834 1.92484C8.61667 1.7665 9.29167 1.6665 10 1.6665C10.7 1.6665 11.3833 1.7665 12.0333 1.92484C12.0417 1.9915 12.0417 2.0415 12.0583 2.10817C12.4333 3.2165 12.7 4.34984 12.9083 5.4915Z" fill="currentColor"/>
<path d="M5.49166 12.9085C4.34166 12.7001 3.20832 12.4335 2.10832 12.0585C2.04166 12.0418 1.99166 12.0501 1.92499 12.0418C1.76666 11.3835 1.66666 10.7085 1.66666 10.0001C1.66666 9.30013 1.76666 8.6168 1.92499 7.9668C1.99166 7.95846 2.04166 7.95846 2.10832 7.9418C3.21666 7.57513 4.34166 7.30013 5.49166 7.0918C5.28332 9.02513 5.28332 10.9751 5.49166 12.9085Z" fill="currentColor"/>
<path d="M18.3333 10.0001C18.3333 10.7085 18.2333 11.3835 18.075 12.0418C18.0083 12.0501 17.9583 12.0418 17.8917 12.0585C16.7833 12.4251 15.65 12.7001 14.5083 12.9085C14.725 10.9751 14.725 9.02513 14.5083 7.0918C15.65 7.30013 16.7917 7.5668 17.8917 7.9418C17.9583 7.95846 18.0083 7.9668 18.075 7.9668C18.2333 8.62513 18.3333 9.30013 18.3333 10.0001Z" fill="currentColor"/>
<path d="M12.9083 14.5083C12.7 15.6583 12.4333 16.7916 12.0583 17.8916C12.0417 17.9583 12.0417 18.0083 12.0333 18.075C11.3833 18.2333 10.7 18.3333 10 18.3333C9.29167 18.3333 8.61667 18.2333 7.95834 18.075C7.95001 18.0083 7.95834 17.9583 7.94167 17.8916C7.57501 16.7833 7.30001 15.6583 7.09167 14.5083C8.05834 14.6166 9.02501 14.6916 10 14.6916C10.975 14.6916 11.95 14.6166 12.9083 14.5083Z" fill="currentColor"/>
<path d="M13.1361 13.1359C11.0519 13.3989 8.94813 13.3989 6.86388 13.1359C6.60092 11.0517 6.60092 8.94797 6.86388 6.86373C8.94813 6.60076 11.0519 6.60076 13.1361 6.86373C13.3991 8.94797 13.3991 11.0517 13.1361 13.1359Z" fill="currentColor"/>
</g>
<defs>
<clipPath id="clip0_10021_9123">
<rect width="20" height="20" fill="white"/>
</clipPath>
</defs>
</svg>
