<svg width="20" height="20" viewBox="0 0 20 20" fill="none" xmlns="http://www.w3.org/2000/svg">
<mask id="path-1-inside-1_9299_23773" fill="white">
<path d="M12.4993 18.9583H7.49935C2.97435 18.9583 1.04102 17.025 1.04102 12.5V7.49999C1.04102 2.97499 2.97435 1.04166 7.49935 1.04166H12.4993C17.0243 1.04166 18.9577 2.97499 18.9577 7.49999V12.5C18.9577 17.025 17.0243 18.9583 12.4993 18.9583ZM7.49935 2.29166C3.65768 2.29166 2.29102 3.65832 2.29102 7.49999V12.5C2.29102 16.3417 3.65768 17.7083 7.49935 17.7083H12.4993C16.341 17.7083 17.7077 16.3417 17.7077 12.5V7.49999C17.7077 3.65832 16.341 2.29166 12.4993 2.29166H7.49935Z"/>
</mask>
<path d="M12.4993 18.9583H7.49935C2.97435 18.9583 1.04102 17.025 1.04102 12.5V7.49999C1.04102 2.97499 2.97435 1.04166 7.49935 1.04166H12.4993C17.0243 1.04166 18.9577 2.97499 18.9577 7.49999V12.5C18.9577 17.025 17.0243 18.9583 12.4993 18.9583ZM7.49935 2.29166C3.65768 2.29166 2.29102 3.65832 2.29102 7.49999V12.5C2.29102 16.3417 3.65768 17.7083 7.49935 17.7083H12.4993C16.341 17.7083 17.7077 16.3417 17.7077 12.5V7.49999C17.7077 3.65832 16.341 2.29166 12.4993 2.29166H7.49935Z" fill="currentColor"/>
<path d="M12.4993 18.9583V17.4583H7.49935V18.9583V20.4583H12.4993V18.9583ZM7.49935 18.9583V17.4583C5.40904 17.4583 4.27454 17.0059 3.63397 16.3654C2.9934 15.7248 2.54102 14.5903 2.54102 12.5H1.04102H-0.458984C-0.458984 14.9347 0.0553001 17.0293 1.51265 18.4867C2.96999 19.944 5.06466 20.4583 7.49935 20.4583V18.9583ZM1.04102 12.5H2.54102V7.49999H1.04102H-0.458984V12.5H1.04102ZM1.04102 7.49999H2.54102C2.54102 5.40968 2.9934 4.27518 3.63397 3.63461C4.27454 2.99404 5.40904 2.54166 7.49935 2.54166V1.04166V-0.458344C5.06466 -0.458344 2.96999 0.055941 1.51265 1.51329C0.0553001 2.97064 -0.458984 5.0653 -0.458984 7.49999H1.04102ZM7.49935 1.04166V2.54166H12.4993V1.04166V-0.458344H7.49935V1.04166ZM12.4993 1.04166V2.54166C14.5897 2.54166 15.7242 2.99404 16.3647 3.63461C17.0053 4.27518 17.4577 5.40968 17.4577 7.49999H18.9577H20.4577C20.4577 5.0653 19.9434 2.97064 18.4861 1.51329C17.0287 0.055941 14.934 -0.458344 12.4993 -0.458344V1.04166ZM18.9577 7.49999H17.4577V12.5H18.9577H20.4577V7.49999H18.9577ZM18.9577 12.5H17.4577C17.4577 14.5903 17.0053 15.7248 16.3647 16.3654C15.7242 17.0059 14.5897 17.4583 12.4993 17.4583V18.9583V20.4583C14.934 20.4583 17.0287 19.944 18.4861 18.4867C19.9434 17.0293 20.4577 14.9347 20.4577 12.5H18.9577ZM7.49935 2.29166V0.791657C5.47269 0.791657 3.6519 1.13654 2.3939 2.39454C1.13589 3.65254 0.791016 5.47333 0.791016 7.49999H2.29102H3.79102C3.79102 5.68499 4.12947 4.90161 4.51522 4.51586C4.90097 4.13011 5.68435 3.79166 7.49935 3.79166V2.29166ZM2.29102 7.49999H0.791016V12.5H2.29102H3.79102V7.49999H2.29102ZM2.29102 12.5H0.791016C0.791016 14.5267 1.13589 16.3474 2.3939 17.6054C3.6519 18.8634 5.47269 19.2083 7.49935 19.2083V17.7083V16.2083C5.68435 16.2083 4.90097 15.8699 4.51522 15.4841C4.12947 15.0984 3.79102 14.315 3.79102 12.5H2.29102ZM7.49935 17.7083V19.2083H12.4993V17.7083V16.2083H7.49935V17.7083ZM12.4993 17.7083V19.2083C14.526 19.2083 16.3468 18.8634 17.6048 17.6054C18.8628 16.3474 19.2077 14.5267 19.2077 12.5H17.7077H16.2077C16.2077 14.315 15.8692 15.0984 15.4835 15.4841C15.0977 15.8699 14.3144 16.2083 12.4993 16.2083V17.7083ZM17.7077 12.5H19.2077V7.49999H17.7077H16.2077V12.5H17.7077ZM17.7077 7.49999H19.2077C19.2077 5.47333 18.8628 3.65254 17.6048 2.39454C16.3468 1.13654 14.526 0.791657 12.4993 0.791657V2.29166V3.79166C14.3144 3.79166 15.0977 4.13011 15.4835 4.51586C15.8692 4.90161 16.2077 5.68499 16.2077 7.49999H17.7077ZM12.4993 2.29166V0.791657H7.49935V2.29166V3.79166H12.4993V2.29166Z" fill="currentColor" mask="url(#path-1-inside-1_9299_23773)"/>
<path d="M18.3327 10.625H1.66602C1.32435 10.625 1.04102 10.3417 1.04102 10C1.04102 9.65833 1.32435 9.375 1.66602 9.375H18.3327C18.6744 9.375 18.9577 9.65833 18.9577 10C18.9577 10.3417 18.6744 10.625 18.3327 10.625Z" fill="currentColor"/>
<path d="M6.875 18.5417C6.53333 18.5417 6.25 18.2583 6.25 17.9167V10C6.25 9.65833 6.53333 9.375 6.875 9.375C7.21667 9.375 7.5 9.65833 7.5 10V17.9167C7.5 18.2583 7.21667 18.5417 6.875 18.5417Z" fill="currentColor"/>
<path d="M13.125 18.9583C12.7833 18.9583 12.5 18.675 12.5 18.3333V10C12.5 9.65833 12.7833 9.375 13.125 9.375C13.4667 9.375 13.75 9.65833 13.75 10V18.3333C13.75 18.675 13.4667 18.9583 13.125 18.9583Z" fill="currentColor"/>
<path d="M6.875 10.625C6.53333 10.625 6.25 10.3417 6.25 9.99999V1.66666C6.25 1.32499 6.53333 1.04166 6.875 1.04166C7.21667 1.04166 7.5 1.32499 7.5 1.66666V9.99999C7.5 10.3417 7.21667 10.625 6.875 10.625Z" fill="currentColor"/>
<path d="M13.125 10.625C12.7833 10.625 12.5 10.3417 12.5 10V2.11667C12.5 1.775 12.7833 1.49167 13.125 1.49167C13.4667 1.49167 13.75 1.775 13.75 2.11667V10C13.75 10.3417 13.4667 10.625 13.125 10.625Z" fill="currentColor"/>
</svg>
