<svg width="18" height="19" viewBox="0 0 18 19" fill="none" xmlns="http://www.w3.org/2000/svg">
<path d="M11.25 17.5625H6.75C2.6775 17.5625 0.9375 15.8225 0.9375 11.75V7.25C0.9375 3.1775 2.6775 1.4375 6.75 1.4375H11.25C15.3225 1.4375 17.0625 3.1775 17.0625 7.25V11.75C17.0625 15.8225 15.3225 17.5625 11.25 17.5625ZM6.75 2.5625C3.2925 2.5625 2.0625 3.7925 2.0625 7.25V11.75C2.0625 15.2075 3.2925 16.4375 6.75 16.4375H11.25C14.7075 16.4375 15.9375 15.2075 15.9375 11.75V7.25C15.9375 3.7925 14.7075 2.5625 11.25 2.5625H6.75Z" fill="currentColor"/>
<path d="M6.75 17.5625C6.4425 17.5625 6.1875 17.3075 6.1875 17V2C6.1875 1.6925 6.4425 1.4375 6.75 1.4375C7.0575 1.4375 7.3125 1.6925 7.3125 2V17C7.3125 17.3075 7.0575 17.5625 6.75 17.5625Z" fill="currentColor"/>
</svg>
