<svg width="96" height="51" viewBox="0 0 96 51" fill="none" xmlns="http://www.w3.org/2000/svg">
<path d="M39.901 41.5503L32.9193 29.7719L32.7534 29.4884L24.1745 15.1303L20.3694 8.75772H13.8239C13.6368 9.12397 13.3606 9.42986 13.0244 9.64331C12.6881 9.85676 12.3041 9.96991 11.9127 9.97089C11.334 9.97089 10.779 9.72604 10.3698 9.29019C9.96062 8.85434 9.73086 8.26321 9.73086 7.64683C9.73086 7.03044 9.96062 6.43931 10.3698 6.00346C10.779 5.56761 11.334 5.32276 11.9127 5.32276C12.3041 5.32374 12.6881 5.43689 13.0244 5.65034C13.3606 5.86379 13.6368 6.16968 13.8239 6.53593H19.0603L15.7396 0.95816H0.0303955L8.47402 15.0885L11.1448 19.5554H17.9694C18.1565 19.1891 18.4327 18.8832 18.7689 18.6698C19.1052 18.4563 19.4892 18.3432 19.8806 18.3422C20.4593 18.3422 21.0143 18.587 21.4235 19.0229C21.8327 19.4587 22.0624 20.0499 22.0624 20.6663C22.0643 21.0638 21.9681 21.4549 21.7833 21.8004L31.3831 37.9434C31.7736 37.9155 32.1641 38 32.5134 38.1881C32.8628 38.3762 33.1581 38.6609 33.3686 39.0125C33.6742 39.5321 33.7744 40.1593 33.6478 40.7575C33.5211 41.3556 33.1778 41.8761 32.6924 42.2057C32.2046 42.5312 31.6157 42.638 31.0542 42.5031C30.4927 42.3681 30.004 42.0023 29.6945 41.4853C29.4855 41.1324 29.3694 40.726 29.3587 40.3089C29.3479 39.8918 29.443 39.4793 29.6336 39.1147L20.0335 22.9671H19.8852C19.4933 22.9657 19.109 22.8518 18.7727 22.6375C18.4364 22.4232 18.1602 22.1164 17.9737 21.7493H12.4581L29.9127 50.9535H35.376L39.9141 43.721C39.7462 43.3877 39.6572 43.0157 39.6549 42.6374C39.6527 42.2591 39.7372 41.886 39.901 41.5503Z" fill="#11044C"/>
<path d="M51.5475 40.1418L45.0633 50.9999H37.2828L41.0619 44.9852C41.5397 45.0365 42.0194 44.9136 42.4231 44.6366C42.9073 44.3071 43.25 43.7874 43.3766 43.1904C43.5032 42.5934 43.4037 41.9672 43.0996 41.448C42.8897 41.0956 42.5946 40.8099 42.2452 40.621C41.8958 40.4321 41.505 40.3469 41.1141 40.3743L38.4086 35.8191L43.6842 26.9876L51.5475 40.1418Z" fill="#11044C"/>
<path d="M59.1621 17.3289L62.0772 22.2048L58.9395 27.4572L53.2277 17.3986L53.1882 17.3289H59.1621Z" fill="#29ABE2"/>
<path d="M44.5701 8.63689L41.2233 13.4477L33.8051 1H66.6413L63.9009 5.35995C63.5118 5.32192 63.1202 5.39588 62.7671 5.57413C62.4141 5.75237 62.1126 6.02837 61.8938 6.37325C61.8556 6.43301 61.8204 6.49507 61.7889 6.55917H48.4668C48.2797 6.19291 48.0035 5.88703 47.6673 5.67358C47.331 5.46013 46.947 5.347 46.5556 5.34601C45.9769 5.34601 45.4219 5.59087 45.0127 6.02672C44.6035 6.46256 44.3738 7.0537 44.3738 7.67008C44.3721 8.00377 44.439 8.33379 44.5701 8.63689Z" fill="#29ABE2"/>
<path d="M49.1301 16.2272C49.1301 16.8436 49.3601 17.4347 49.7693 17.8706C50.1785 18.3064 50.7333 18.5513 51.3119 18.5513H51.4168L57.6568 29.5394L54.1657 35.3729L46.3112 22.2186L42.2706 15.4556L46.0931 9.96615C46.1941 9.98383 46.2962 9.99316 46.3986 9.99404C46.79 9.99305 47.174 9.8799 47.5102 9.66645C47.8465 9.453 48.1227 9.14712 48.3098 8.78087H61.6276C61.7948 9.1124 62.0361 9.39497 62.3302 9.60359C62.81 9.94276 63.3961 10.0662 63.961 9.94687C64.5258 9.82759 65.0234 9.47529 65.3454 8.9668C65.5617 8.61951 65.6866 8.21664 65.7065 7.8004C65.7265 7.38416 65.6408 6.96986 65.4588 6.6009L68.9497 1.02313H74.6794L66.24 15.1488H53.2058C53.0187 14.7826 52.7426 14.4767 52.4063 14.2632C52.07 14.0498 51.686 13.9366 51.2946 13.9357C50.7242 13.9405 50.1784 14.183 49.7738 14.6113C49.3693 15.0396 49.1381 15.6197 49.1301 16.2272Z" fill="#29ABE2"/>
<path d="M86.1468 8.75763C85.9601 9.12319 85.6846 9.42862 85.3491 9.64203C85.0137 9.85543 84.6308 9.96898 84.2401 9.9708H84.0523L80.8755 15.1302C81.0609 15.4981 81.1499 15.9124 81.133 16.3295C81.1162 16.7467 80.9941 17.1513 80.7796 17.5008C80.4618 18.0112 79.9678 18.3674 79.4048 18.4919C78.8418 18.6163 78.2552 18.499 77.773 18.1655C77.4701 17.9548 77.2214 17.6673 77.0488 17.3288H70.5033L64.6038 27.2107L56.749 40.3742L50.3956 51.0092H57.2247L71.2976 27.4478C71.1079 27.0838 71.0133 26.6721 71.024 26.2559C71.0348 25.8397 71.1503 25.4343 71.3585 25.0819C71.6694 24.5651 72.1595 24.2003 72.7219 24.067C73.2844 23.9338 73.8735 24.043 74.3607 24.3707C74.8446 24.7018 75.1862 25.223 75.3112 25.821C75.4363 26.419 75.3347 27.0455 75.0284 27.564C74.817 27.9154 74.5206 28.1996 74.1705 28.3869C73.8204 28.5742 73.4294 28.6576 73.0386 28.6284L59.6728 51.0092H66.1221L72.4756 40.3742L87.552 15.1349L91.3571 8.76227L86.1468 8.75763Z" fill="#90218A"/>
<path d="M95.9999 1L92.6792 6.57777H86.1338C85.947 6.2122 85.6715 5.90677 85.3361 5.69337C85.0006 5.47996 84.6175 5.36641 84.2268 5.3646C83.6481 5.3646 83.0934 5.60945 82.6842 6.0453C82.275 6.48115 82.045 7.07228 82.045 7.68866C82.0438 8.07348 82.1339 8.45238 82.3068 8.79027L79.1302 13.9451C78.7397 13.9103 78.3475 13.9883 77.9951 14.1707C77.6427 14.353 77.3431 14.6332 77.1274 14.9816C77.0927 15.0372 77.0605 15.0946 77.0312 15.1536H71.7948L80.2342 1.02789L95.9999 1Z" fill="#90218A"/>
</svg>
