<svg width="17" height="16" viewBox="0 0 17 16" fill="none" xmlns="http://www.w3.org/2000/svg">
<path d="M12.5 7.16683C12.2267 7.16683 12 6.94016 12 6.66683V5.3335C12 3.2335 11.4067 1.8335 8.5 1.8335C5.59333 1.8335 5 3.2335 5 5.3335V6.66683C5 6.94016 4.77333 7.16683 4.5 7.16683C4.22667 7.16683 4 6.94016 4 6.66683V5.3335C4 3.40016 4.46667 0.833496 8.5 0.833496C12.5333 0.833496 13 3.40016 13 5.3335V6.66683C13 6.94016 12.7733 7.16683 12.5 7.16683Z" fill="currentColor"/>
<path d="M8.50004 12.8333C7.30671 12.8333 6.33337 11.86 6.33337 10.6667C6.33337 9.47333 7.30671 8.5 8.50004 8.5C9.69337 8.5 10.6667 9.47333 10.6667 10.6667C10.6667 11.86 9.69337 12.8333 8.50004 12.8333ZM8.50004 9.5C7.86004 9.5 7.33337 10.0267 7.33337 10.6667C7.33337 11.3067 7.86004 11.8333 8.50004 11.8333C9.14004 11.8333 9.66671 11.3067 9.66671 10.6667C9.66671 10.0267 9.14004 9.5 8.50004 9.5Z" fill="currentColor"/>
<path d="M11.8334 15.1665H5.16671C2.22671 15.1665 1.33337 14.2732 1.33337 11.3332V9.99984C1.33337 7.05984 2.22671 6.1665 5.16671 6.1665H11.8334C14.7734 6.1665 15.6667 7.05984 15.6667 9.99984V11.3332C15.6667 14.2732 14.7734 15.1665 11.8334 15.1665ZM5.16671 7.1665C2.78004 7.1665 2.33337 7.61984 2.33337 9.99984V11.3332C2.33337 13.7132 2.78004 14.1665 5.16671 14.1665H11.8334C14.22 14.1665 14.6667 13.7132 14.6667 11.3332V9.99984C14.6667 7.61984 14.22 7.1665 11.8334 7.1665H5.16671Z" fill="currentColor"/>
</svg>
