<svg width="107" height="25" viewBox="0 0 107 25" fill="none" xmlns="http://www.w3.org/2000/svg">
<path d="M70.9409 19.314L69.7549 22.562L68.5879 19.314H67.5879L66.4289 22.562L65.2619 19.314H64.2539L66.0139 24.164H66.8619L68.0959 20.736L69.3389 24.164H70.1779L71.9479 19.314H70.9409Z" fill="white"/>
<path d="M77.5064 19.314H74.3064C74.1173 19.3197 73.9313 19.3635 73.7595 19.4427C73.5877 19.5218 73.4335 19.6347 73.3063 19.7747C73.179 19.9147 73.0812 20.0788 73.0187 20.2573C72.9561 20.4359 72.9302 20.6252 72.9424 20.814V24.167H73.8834V20.812C73.8834 20.483 74.0334 20.257 74.3064 20.257H77.5064C77.7694 20.257 77.9384 20.483 77.9384 20.812V21.584H74.5864V22.525H77.9384V24.167H78.8814V20.812C78.8912 20.6229 78.8632 20.4338 78.7991 20.2557C78.735 20.0776 78.6361 19.914 78.5081 19.7746C78.3801 19.6351 78.2256 19.5225 78.0536 19.4435C77.8816 19.3644 77.6956 19.3204 77.5064 19.314Z" fill="white"/>
<path d="M83.0436 21.744L85.4437 19.314H84.1346L81.7537 21.744L84.2946 24.164H85.6027L83.0436 21.744ZM80.3887 19.314V24.167H81.3306V19.317L80.3887 19.314Z" fill="white"/>
<path d="M88.4312 21.2669V22.2079H91.6882V21.2669H88.4312ZM91.9532 20.2589V19.3159H86.7832V24.1669H91.9532V23.2239H87.7252V20.2569L91.9532 20.2589Z" fill="white"/>
<path d="M98.9309 21.706C99.0933 21.5838 99.2236 21.4241 99.3107 21.2406C99.3978 21.057 99.439 20.855 99.4309 20.652C99.4363 20.4733 99.4048 20.2954 99.3383 20.1294C99.2718 19.9634 99.1719 19.813 99.0446 19.6874C98.9174 19.5618 98.7655 19.4638 98.5987 19.3996C98.4319 19.3353 98.2536 19.3062 98.075 19.314H93.4609V24.167H98.1609C98.34 24.1748 98.5188 24.1458 98.6862 24.0817C98.8535 24.0176 99.0059 23.9198 99.1339 23.7943C99.2619 23.6689 99.3627 23.5184 99.4302 23.3524C99.4976 23.1863 99.5302 23.0082 99.5259 22.829C99.538 22.6054 99.4889 22.3828 99.3841 22.185C99.2793 21.9872 99.1226 21.8216 98.9309 21.706ZM98.1589 23.222H94.4019V20.257H98.075C98.32 20.257 98.4879 20.435 98.4879 20.774C98.4879 21.113 98.32 21.265 98.075 21.265H95.1079V22.206H98.1589C98.4129 22.206 98.5819 22.365 98.5819 22.714C98.5819 23.063 98.4129 23.222 98.1589 23.222Z" fill="white"/>
<path d="M57.1154 17.653V21.61H61.1544V17.653H57.1154ZM68.2924 13.034C68.0672 13.0333 67.8476 12.9635 67.6634 12.834C67.5145 12.7325 67.3927 12.5962 67.3085 12.4369C67.2243 12.2776 67.1803 12.1002 67.1804 11.92C67.1803 11.7397 67.2243 11.562 67.3085 11.4026C67.3926 11.2431 67.5144 11.1066 67.6634 11.005V7.54297H63.6224V12.481H54.6044V7.54297H50.5664V16.643H68.8264V12.897C68.6624 12.9853 68.4787 13.0307 68.2924 13.029V13.034Z" fill="white"/>
<path d="M72.9701 7.53096V5.51196H68.8491V11.032C69.0273 11.1338 69.1734 11.2834 69.2711 11.464H85.6511C85.7464 11.2879 85.8875 11.1409 86.0594 11.0385C86.2314 10.936 86.4279 10.882 86.6281 10.882C86.9228 10.882 87.2055 10.999 87.414 11.2073C87.6225 11.4156 87.7398 11.6982 87.7401 11.993C87.7399 12.1389 87.711 12.2833 87.6551 12.418C87.5991 12.5528 87.5172 12.6752 87.4139 12.7783C87.3107 12.8813 87.1881 12.9631 87.0533 13.0188C86.9184 13.0745 86.774 13.1031 86.6281 13.103C86.4295 13.103 86.2345 13.0499 86.0634 12.9492C85.8923 12.8484 85.7513 12.7036 85.6551 12.53H69.2661C69.1644 12.7143 69.0121 12.8656 68.8271 12.966C68.6636 13.0562 68.4798 13.1034 68.2931 13.103C68.0679 13.1023 67.8483 13.0324 67.6641 12.903V16.703H91.454V7.53096H72.9701Z" fill="white"/>
<path d="M92.709 0.0700684V16.8011H96.748V0.0700684H92.709Z" fill="white"/>
<path d="M106.991 16.716V7.64502H97.8809L97.8919 7.72702V16.664H101.848V13.209C101.671 13.1138 101.524 12.9727 101.421 12.8005C101.319 12.6283 101.265 12.4315 101.265 12.231C101.265 12.085 101.294 11.9405 101.35 11.8056C101.405 11.6708 101.487 11.5482 101.591 11.4451C101.694 11.3419 101.817 11.2601 101.951 11.2043C102.086 11.1485 102.231 11.1199 102.377 11.12C102.672 11.12 102.954 11.2371 103.162 11.4454C103.371 11.6538 103.488 11.9364 103.488 12.231C103.488 12.4316 103.434 12.6284 103.331 12.8006C103.228 12.9728 103.08 13.114 102.904 13.209V21.581H107.004V19.306L106.991 16.716Z" fill="white"/>
<path d="M20.415 19.353L16.839 13.731L16.754 13.597L12.365 6.74403L10.418 3.70303H7.06195C6.96629 3.87884 6.82492 4.02554 6.65277 4.12763C6.48062 4.22972 6.28413 4.28342 6.08398 4.28304C5.79099 4.28384 5.5096 4.16855 5.30139 3.9624C5.09318 3.75625 4.97508 3.47602 4.97296 3.18303C4.97508 2.89004 5.09318 2.60982 5.30139 2.40367C5.5096 2.19752 5.79099 2.08223 6.08398 2.08303C6.28405 2.08245 6.48055 2.13595 6.65271 2.23787C6.82487 2.33979 6.96624 2.48634 7.06195 2.66203H9.745L8.04498 0.0090332H0L4.31799 6.75203L5.68396 8.88403H9.17499C9.27073 8.70852 9.41194 8.56204 9.58386 8.45998C9.75578 8.35792 9.95205 8.30405 10.152 8.30404C10.2975 8.30364 10.4417 8.33191 10.5762 8.38723C10.7108 8.44254 10.8332 8.52383 10.9363 8.62644C11.0395 8.72905 11.1214 8.85097 11.1775 8.98525C11.2335 9.11953 11.2626 9.26353 11.263 9.40903C11.2638 9.59881 11.2145 9.78543 11.12 9.95004L16.02 17.65C16.2195 17.6359 16.4192 17.6758 16.5978 17.7658C16.7765 17.8557 16.9275 17.9923 17.035 18.161C17.113 18.2836 17.1661 18.4203 17.191 18.5635C17.2159 18.7066 17.2122 18.8532 17.1801 18.9949C17.148 19.1366 17.0882 19.2706 17.0041 19.389C16.92 19.5075 16.8132 19.6081 16.69 19.685C16.4402 19.8396 16.1394 19.8894 15.8531 19.8235C15.5668 19.7576 15.318 19.5813 15.1609 19.333C15.0538 19.1648 14.9944 18.9706 14.9891 18.7712C14.9839 18.5718 15.0329 18.3747 15.131 18.201L10.231 10.495C10.2061 10.4985 10.1811 10.5001 10.156 10.5C9.95595 10.5 9.75959 10.4461 9.58765 10.3438C9.4157 10.2416 9.27448 10.0948 9.17896 9.91903H6.35797L15.283 23.857H18.078L20.4 20.405C20.3144 20.2424 20.2709 20.0609 20.2736 19.8771C20.2762 19.6934 20.3248 19.5132 20.415 19.353Z" fill="white"/>
<path d="M26.6456 18.6471L23.3276 23.8621H19.3477L21.2797 20.9741C21.5251 20.9999 21.7719 20.9414 21.9796 20.8081C22.1031 20.7303 22.21 20.629 22.2943 20.5099C22.3785 20.3908 22.4385 20.2563 22.4707 20.114C22.5029 19.9717 22.5068 19.8245 22.4821 19.6807C22.4573 19.5369 22.4046 19.3994 22.3267 19.2761C22.2197 19.1066 22.0689 18.9691 21.8902 18.8783C21.7115 18.7875 21.5116 18.7466 21.3116 18.7601L19.9276 16.5721L22.6276 12.3311L26.6456 18.6471Z" fill="white"/>
<path d="M30.5627 7.83911L32.0527 10.1811L30.4527 12.7031L27.5317 7.87211L27.5117 7.83911H30.5627Z" fill="white"/>
<path d="M23.0492 3.667L21.3382 5.978L17.5332 0H34.3332L32.9332 2.093C32.7342 2.07383 32.5336 2.10899 32.353 2.19475C32.1723 2.2805 32.0182 2.41365 31.9072 2.58C31.8876 2.60862 31.8695 2.63833 31.8532 2.669H25.0382C24.9431 2.49271 24.8021 2.34545 24.6301 2.24281C24.4581 2.14017 24.2615 2.08598 24.0612 2.086C23.7666 2.086 23.4841 2.20288 23.2756 2.41099C23.0672 2.6191 22.9497 2.90143 22.9492 3.196C22.9474 3.35846 22.9815 3.51931 23.0492 3.667Z" fill="white"/>
<path d="M25.4594 7.31208C25.4594 7.60587 25.5758 7.8877 25.7831 8.09591C25.9904 8.30412 26.2716 8.42176 26.5654 8.42308C26.5837 8.42446 26.6021 8.42446 26.6204 8.42308L29.8114 13.6991L28.0294 16.4991L24.0074 10.1831L21.9414 6.93508L23.8964 4.29908C23.948 4.3071 24.0002 4.31112 24.0524 4.31108C24.2529 4.31117 24.4496 4.25703 24.6218 4.15439C24.7939 4.05175 24.9352 3.90444 25.0305 3.72808H31.8444C31.9295 3.88916 32.0531 4.02661 32.2044 4.12808C32.4497 4.29193 32.7499 4.35174 33.0392 4.29437C33.3286 4.23699 33.5833 4.06712 33.7474 3.82208C33.859 3.65549 33.9232 3.46172 33.9333 3.26147C33.9433 3.06122 33.8988 2.862 33.8044 2.68508L35.5974 0.00708008H38.5274L34.2114 6.79008H27.5435C27.4483 6.61365 27.3071 6.46628 27.1349 6.36363C26.9627 6.26098 26.7659 6.20689 26.5654 6.20708C26.2727 6.20839 25.9923 6.3252 25.7852 6.53212C25.5781 6.73904 25.461 7.01933 25.4594 7.31208Z" fill="white"/>
<path d="M44.5546 3.5769C44.4602 3.75358 44.3194 3.90125 44.1475 4.00412C43.9756 4.10699 43.779 4.16118 43.5786 4.1609C43.5476 4.1609 43.5156 4.1609 43.4786 4.1609L41.8546 6.63791C41.9499 6.8146 41.9955 7.01377 41.9867 7.2143C41.9779 7.41483 41.915 7.60924 41.8046 7.77691C41.6431 8.02325 41.3903 8.19535 41.1019 8.25536C40.8135 8.31537 40.513 8.25837 40.2666 8.0969C40.1117 7.99671 39.9844 7.85916 39.8966 7.6969H36.5566L33.5386 12.4419L29.5166 18.7629L26.2656 23.8699H29.7586L36.9586 12.5559C36.8605 12.3813 36.8116 12.1832 36.8173 11.983C36.8229 11.7827 36.8828 11.5878 36.9906 11.4189C37.0688 11.2955 37.1707 11.1888 37.2902 11.1049C37.4098 11.0209 37.5447 10.9614 37.6873 10.9297C37.8299 10.8981 37.9774 10.8948 38.1212 10.9203C38.2651 10.9457 38.4025 10.9993 38.5256 11.0779C38.7738 11.2362 38.9491 11.4865 39.013 11.7739C39.0769 12.0613 39.0242 12.3623 38.8666 12.6109C38.7587 12.78 38.6072 12.9167 38.428 13.0066C38.2488 13.0966 38.0486 13.1364 37.8486 13.1219L31.0116 23.8689H34.3116L37.5626 18.7619L45.2736 6.64291L47.2206 3.5829L44.5546 3.5769Z" fill="white"/>
<path d="M49.5964 0L47.8964 2.669H44.5544C44.4597 2.49258 44.3189 2.34517 44.147 2.2425C43.9751 2.13982 43.7786 2.08573 43.5784 2.086C43.2839 2.086 43.0015 2.20292 42.7932 2.41105C42.5848 2.61919 42.4677 2.90152 42.4674 3.196C42.4666 3.3807 42.5124 3.56263 42.6004 3.725L40.9754 6.201C40.7754 6.18425 40.5745 6.22188 40.394 6.30989C40.2136 6.3979 40.0603 6.53304 39.9504 6.701C39.9323 6.7278 39.9156 6.7555 39.9004 6.784H37.2324L41.5494 0.000999451L49.5964 0Z" fill="white"/>
<path d="M70.9409 19.314L69.7549 22.562L68.5879 19.314H67.5879L66.4289 22.562L65.2619 19.314H64.2539L66.0139 24.164H66.8619L68.0959 20.736L69.3389 24.164H70.1779L71.9479 19.314H70.9409Z" fill="white"/>
<path d="M77.5064 19.314H74.3064C74.1173 19.3197 73.9313 19.3635 73.7595 19.4427C73.5877 19.5218 73.4335 19.6347 73.3063 19.7747C73.179 19.9147 73.0812 20.0788 73.0187 20.2573C72.9561 20.4359 72.9302 20.6252 72.9424 20.814V24.167H73.8834V20.812C73.8834 20.483 74.0334 20.257 74.3064 20.257H77.5064C77.7694 20.257 77.9384 20.483 77.9384 20.812V21.584H74.5864V22.525H77.9384V24.167H78.8814V20.812C78.8912 20.6229 78.8632 20.4338 78.7991 20.2557C78.735 20.0776 78.6361 19.914 78.5081 19.7746C78.3801 19.6351 78.2256 19.5225 78.0536 19.4435C77.8816 19.3644 77.6956 19.3204 77.5064 19.314Z" fill="white"/>
<path d="M83.0436 21.744L85.4437 19.314H84.1346L81.7537 21.744L84.2946 24.164H85.6027L83.0436 21.744ZM80.3887 19.314V24.167H81.3306V19.317L80.3887 19.314Z" fill="white"/>
<path d="M88.4312 21.2669V22.2079H91.6882V21.2669H88.4312ZM91.9532 20.2589V19.3159H86.7832V24.1669H91.9532V23.2239H87.7252V20.2569L91.9532 20.2589Z" fill="white"/>
<path d="M98.9309 21.706C99.0933 21.5838 99.2236 21.4241 99.3107 21.2406C99.3978 21.057 99.439 20.855 99.4309 20.652C99.4363 20.4733 99.4048 20.2954 99.3383 20.1294C99.2718 19.9634 99.1719 19.813 99.0446 19.6874C98.9174 19.5618 98.7655 19.4638 98.5987 19.3996C98.4319 19.3353 98.2536 19.3062 98.075 19.314H93.4609V24.167H98.1609C98.34 24.1748 98.5188 24.1458 98.6862 24.0817C98.8535 24.0176 99.0059 23.9198 99.1339 23.7943C99.2619 23.6689 99.3627 23.5184 99.4302 23.3524C99.4976 23.1863 99.5302 23.0082 99.5259 22.829C99.538 22.6054 99.4889 22.3828 99.3841 22.185C99.2793 21.9872 99.1226 21.8216 98.9309 21.706ZM98.1589 23.222H94.4019V20.257H98.075C98.32 20.257 98.4879 20.435 98.4879 20.774C98.4879 21.113 98.32 21.265 98.075 21.265H95.1079V22.206H98.1589C98.4129 22.206 98.5819 22.365 98.5819 22.714C98.5819 23.063 98.4129 23.222 98.1589 23.222Z" fill="white"/>
<path d="M57.1154 17.653V21.61H61.1544V17.653H57.1154ZM68.2924 13.034C68.0672 13.0333 67.8476 12.9635 67.6634 12.834C67.5145 12.7325 67.3927 12.5962 67.3085 12.4369C67.2243 12.2776 67.1803 12.1002 67.1804 11.92C67.1803 11.7397 67.2243 11.562 67.3085 11.4026C67.3926 11.2431 67.5144 11.1066 67.6634 11.005V7.54297H63.6224V12.481H54.6044V7.54297H50.5664V16.643H68.8264V12.897C68.6624 12.9853 68.4787 13.0307 68.2924 13.029V13.034Z" fill="white"/>
<path d="M72.9701 7.53096V5.51196H68.8491V11.032C69.0273 11.1338 69.1734 11.2834 69.2711 11.464H85.6511C85.7464 11.2879 85.8875 11.1409 86.0594 11.0385C86.2314 10.936 86.4279 10.882 86.6281 10.882C86.9228 10.882 87.2055 10.999 87.414 11.2073C87.6225 11.4156 87.7398 11.6982 87.7401 11.993C87.7399 12.1389 87.711 12.2833 87.6551 12.418C87.5991 12.5528 87.5172 12.6752 87.4139 12.7783C87.3107 12.8813 87.1881 12.9631 87.0533 13.0188C86.9184 13.0745 86.774 13.1031 86.6281 13.103C86.4295 13.103 86.2345 13.0499 86.0634 12.9492C85.8923 12.8484 85.7513 12.7036 85.6551 12.53H69.2661C69.1644 12.7143 69.0121 12.8656 68.8271 12.966C68.6636 13.0562 68.4798 13.1034 68.2931 13.103C68.0679 13.1023 67.8483 13.0324 67.6641 12.903V16.703H91.454V7.53096H72.9701Z" fill="white"/>
<path d="M92.709 0.0700684V16.8011H96.748V0.0700684H92.709Z" fill="white"/>
<path d="M106.991 16.716V7.64502H97.8809L97.8919 7.72702V16.664H101.848V13.209C101.671 13.1138 101.524 12.9727 101.421 12.8005C101.319 12.6283 101.265 12.4315 101.265 12.231C101.265 12.085 101.294 11.9405 101.35 11.8056C101.405 11.6708 101.487 11.5482 101.591 11.4451C101.694 11.3419 101.817 11.2601 101.951 11.2043C102.086 11.1485 102.231 11.1199 102.377 11.12C102.672 11.12 102.954 11.2371 103.162 11.4454C103.371 11.6538 103.488 11.9364 103.488 12.231C103.488 12.4316 103.434 12.6284 103.331 12.8006C103.228 12.9728 103.08 13.114 102.904 13.209V21.581H107.004V19.306L106.991 16.716Z" fill="white"/>
</svg>
