<?xml version="1.0" encoding="UTF-8"?>
<svg id="Layer_2" data-name="Layer 2" xmlns="http://www.w3.org/2000/svg" viewBox="0 0 319.77 131.59">
  <defs>
    <style>
      .cls-1 {
        fill: #00ff5a;
      }

      .cls-2 {
        fill: #007556;
      }
    </style>
  </defs>
  <g id="Layer_1-2" data-name="Layer 1">
    <g>
      <g>
        <g>
          <path class="cls-2" d="M103.23,110.39h-21.37c-.3.12-.56.23-.86.35l-10.79,10.79c-.3.12-.56.23-.86.35h-5.99c-.3-.12-.56-.23-.86-.35l-10.79-10.79c-.3-.12-.56-.23-.86-.35h-21.37c-.47.47-.74.74-1.21,1.21v7.29c.47.47.74.74,1.21,1.21h17.35c.3.12.56.23.85.35l10.79,10.79c.3.12.56.23.86.35h14.03c.3-.12.56-.23.86-.35l10.79-10.79c.3-.12.56-.23.86-.35h17.35c.47-.47.74-.74,1.21-1.21v-7.29c-.47-.47-.74-.74-1.21-1.21Z"/>
          <path class="cls-2" d="M38.7,71.24l15.88-.03-11.25,11.22c0,.67,0,1.04,0,1.71l5.14,5.16c.67,0,1.04,0,1.71,0l11.37-11.33-.04,26.34c.47.47.74.74,1.21,1.21h7.29c.47-.46.74-.73,1.21-1.2l.04-26.29,11.3,11.27c.67,0,1.04,0,1.71,0l5.14-5.16c0-.67,0-1.04,0-1.71l-11.29-11.26,15.97-.03c.47-.47.74-.74,1.21-1.21v-7.29c-.48-.47-.75-.74-1.22-1.21l-15.97.03,11.3-11.26c0-.67,0-1.04,0-1.71l-5.14-5.16c-.67,0-1.04,0-1.71,0l-11.27,11.24.02-15.96c-.47-.47-.73-.74-1.21-1.21h-7.29c-.47.46-.74.72-1.21,1.2l-.02,16.1-11.4-11.36c-.67,0-1.04,0-1.71,0l-5.14,5.16c0,.67,0,1.04,0,1.71l11.34,11.3-15.98.03c-.47.47-.74.74-1.21,1.21v7.29c.48.47.75.74,1.22,1.21Z"/>
        </g>
        <path class="cls-1" d="M118.12,92.39l14.24-14.24c.12-.3.23-.56.35-.86v-21.87c-.12-.3-.23-.56-.35-.85l-14.24-14.25h-1.71l-5.61,5.61v1.71l11.21,11.21c.12.3.23.56.35.86v13.29c-.12.3-.23.56-.35.86l-11.21,11.21v1.71l5.61,5.61h1.71Z"/>
        <path class="cls-1" d="M16.31,92.39l5.61-5.61v-1.71l-11.21-11.21c-.12-.3-.23-.56-.35-.86v-13.29c.12-.3.23-.56.35-.86l11.21-11.21v-1.71l-5.61-5.61h-1.71S.35,54.57.35,54.57c-.12.3-.23.56-.35.85v21.87c.12.3.23.56.35.86l14.24,14.24h1.71Z"/>
        <path class="cls-1" d="M92.39,14.6L78.15.35c-.3-.12-.56-.23-.86-.35h-21.87c-.3.12-.56.23-.85.35l-14.24,14.24v1.71l5.61,5.61h1.71l11.21-11.21c.3-.12.56-.23.86-.35h13.29c.3.12.56.23.86.35l11.21,11.21h1.71s5.61-5.61,5.61-5.61v-1.71Z"/>
      </g>
      <g>
        <g>
          <path d="M176.09,116.37c7.63,0,11.28-2.53,12.78-4.33v3.9h6.09v-11.96c0-2.14-1.2-4.07-4.07-4.07h-15.22v5.32h13.21v.13c0,2.87-4.2,5.7-12.35,5.7h-.86c-8.1,0-13.29-3.64-13.29-10.12s5.57-10.12,13.46-10.12h.86c7.37,0,10.29,3.3,10.72,5.4h6.86c-.86-5.96-6.9-10.72-17.97-10.72-12.69,0-20.11,6.43-20.11,15.44s6.9,15.44,19.89,15.44Z"/>
          <path d="M208.12,108.91h19l3.77,7.03h6.95s-16.29-30.01-16.29-30.01h-7.63l-16.29,30.01h6.73l3.77-7.03ZM217.64,91.07l6.65,12.52h-13.33s6.69-12.52,6.69-12.52Z"/>
          <path d="M277.67,100.94c0-9.43-7.07-15.01-17.19-15.01h-18.69v30.01h18.69c10.12,0,17.19-5.45,17.19-15.01ZM247.87,110.63v-19.38h11.62c7.68,0,12.01,3.26,12.01,9.69s-4.33,9.69-12.01,9.69h-11.62Z"/>
          <path d="M319.77,100.94c0-9.43-7.07-15.01-17.19-15.01h-18.69v30.01h18.69c10.12,0,17.19-5.45,17.19-15.01ZM289.98,110.63v-19.38h11.62c7.67,0,12.01,3.26,12.01,9.69s-4.33,9.69-12.01,9.69h-11.62Z"/>
        </g>
        <g>
          <path d="M185.07,62.4c-.43.12-.88.22-1.37.28-.48.06-.95.09-1.39.09-1.34,0-2.4-.27-3.19-.82-.79-.55-1.18-1.29-1.18-2.22,0-.81.28-1.43.83-1.88.55-.45,1.33-.67,2.33-.67.7,0,1.31.14,1.84.42.53.28.99.73,1.41,1.36l2.41-2.24c-.57-.96-1.29-1.71-2.16-2.24-.87-.53-1.96-.8-3.28-.8-.82,0-1.58.16-2.29.47-.71.31-1.32.74-1.85,1.29-.53.54-.94,1.19-1.23,1.93-.29.74-.44,1.54-.44,2.4,0,.75.13,1.46.4,2.12.27.66.62,1.23,1.07,1.71v.13h-2.52v-.03c-.64,0-1.38-.04-2.2-.11s-1.79-.19-2.92-.34l-3.27-.48v3.51l6.16.94c-.34.86-1.04,1.52-2.09,1.98s-2.42.7-4.1.7h-1.98c-1.71,0-3.05-.35-4.02-1.03-.97-.69-1.45-1.65-1.45-2.88,0-.59.11-1.27.32-2.05.21-.78.49-1.54.83-2.29l-2.3-.7c-.39.95-.7,1.91-.92,2.89-.22.98-.33,1.87-.33,2.68,0,1.12.2,2.13.6,3.01.4.88.99,1.63,1.76,2.25.77.62,1.7,1.08,2.79,1.41,1.09.32,2.33.48,3.72.48,1.53,0,2.91-.17,4.12-.52,1.22-.35,2.24-.86,3.08-1.53.84-.67,1.48-1.49,1.93-2.47.27-.59.43-1.24.54-1.91.94,0,1.81-.02,2.56-.05,1.01-.04,1.92-.1,2.73-.19.81-.09,1.58-.21,2.3-.36.72-.15,1.49-.35,2.29-.58l3.8-1.15-.89-3.16-2.46.67Z"/>
          <path d="M202.91,51.39c-.77,0-1.48.16-2.13.48-.65.32-1.21.77-1.69,1.33-.47.56-.84,1.22-1.11,1.98-.27.76-.4,1.59-.4,2.48,0,1.34.4,2.38,1.21,3.13.8.75,1.93,1.12,3.37,1.12.88,0,1.61-.17,2.21-.52.6-.35,1.02-.86,1.27-1.54h.16v1.13c0,1.06-.35,1.77-1.03,2.16-.69.38-1.68.58-2.99.58h-5.17s0,0,0,0h-.83c-.8,0-1.37-.13-1.7-.4-.33-.27-.49-.79-.49-1.55v-14.36l-2.87.66v14.07c0,1.82.42,3.12,1.24,3.91.83.79,2.13,1.18,3.9,1.18h.03s0,0,0,0h5.89c1.11,0,2.07-.12,2.88-.35.81-.23,1.49-.64,2.02-1.23.54-.59.93-1.38,1.19-2.38.26-1,.39-2.27.39-3.8,0-2.54-.47-4.51-1.42-5.93-.95-1.42-2.26-2.13-3.94-2.13ZM204.66,58.65c-.46.07-1.04.11-1.76.11h-.56c-.75,0-1.32-.12-1.71-.35-.39-.23-.59-.63-.59-1.2,0-.68.24-1.23.71-1.66.47-.43,1.09-.64,1.86-.64.88,0,1.6.3,2.17.91.57.61.9,1.42.99,2.44-.29.2-.66.33-1.11.4Z"/>
          <path d="M227.97,61.84c0,.64-.14,1.12-.42,1.42-.28.3-.77.46-1.49.46h-1.07s-.78,0-.78,0c-.32,0-.61-.04-.87-.13-.26-.09-.49-.25-.71-.48-.22-.23-.43-.54-.63-.94-.21-.39-.42-.9-.63-1.53l-2.71-7.69-2.97,1.07,2.41,6.86c.14.36.26.68.34.97.08.28.12.53.12.72,0,.43-.16.73-.47.9-.31.17-.86.26-1.65.26h-3.64v-1.82h-2.73v1.87c0,1.18.29,2.05.89,2.61.59.56,1.42.84,2.49.84h2.01c1.14,0,1.99-.25,2.53-.75.54-.5.91-1.34,1.11-2.52l.11-.03c.29.64.59,1.17.9,1.59.31.42.66.76,1.06,1.01.39.25.84.43,1.34.53.5.11,1.09.16,1.77.16h0s1.79,0,1.79,0c1.71-.02,2.93-.46,3.66-1.33.72-.87,1.08-2.22,1.08-4.06v-14.44l-2.84.66v13.77Z"/>
          <polygon points="234.27 67.22 237.14 67.22 237.14 47.4 234.27 48.06 234.27 67.22"/>
          <path d="M253.58,67.22h1.39c2.04,0,3.52-.43,4.44-1.29.93-.86,1.39-2.2,1.39-4.02,0-.41-.03-.9-.08-1.49-.05-.58-.12-1.17-.21-1.78l-.37-2.41-2.51,1.07.32,1.77c.12.73.21,1.32.25,1.75.04.44.07.8.07,1.08,0,.68-.24,1.15-.71,1.41-.47.26-1.33.39-2.58.39h-.67s-2.49,0-2.49,0c-.05-.79-.16-1.62-.32-2.52l-.4-2.36-2.52.91.48,2.92c.09.52.16,1.02.21,1.51.05.49.08.96.08,1.41.02,1.48-.34,2.61-1.07,3.39-.73.78-1.95,1.16-3.67,1.16h-1.05v3.51h1.07c1.09,0,2.05-.16,2.89-.47.84-.31,1.55-.75,2.14-1.31.59-.56,1.06-1.24,1.42-2.02.36-.79.6-1.66.72-2.63h1.77s0,0,0,0Z"/>
          <path d="M316.93,61.84c0,.64-.14,1.12-.42,1.42-.27.3-.77.46-1.49.46h-2.01c-1.32,0-1.98-.67-1.98-2.01v-14.3l-2.87.66v13.64c0,.68-.17,1.18-.52,1.51-.35.33-.9.5-1.65.5h-1.77c-1.34,0-2.01-.67-2.01-2.01v-3.94l-2.63.66v3.27c0,1.34-.73,2.01-2.2,2.01h-.83s0,0,0,0h-.72c-.23,0-.45,0-.67-.03-.22-.02-.43-.04-.64-.08.09-.3.16-.64.2-1,.04-.37.07-.75.07-1.17,0-1.94-.51-3.46-1.54-4.55s-2.54-1.63-4.54-1.63c-1.3,0-2.5.23-3.58.7-1.08.46-2.12,1.26-3.12,2.39l-.16-.08.32-3.13v-7.71l-2.84.66v14.31l-.78,1.34h-1.26s0,0,0,0h0s-1.78,0-1.78,0h0s-1.31,0-1.31,0c-.05-2.36-.54-4.19-1.47-5.5-.93-1.31-2.19-1.97-3.78-1.97-.75,0-1.45.16-2.1.48-.65.32-1.22.77-1.69,1.34-.47.57-.84,1.24-1.11,2.01-.27.77-.4,1.6-.4,2.49,0,1.47.4,2.61,1.21,3.43.8.82,1.93,1.23,3.37,1.23h3.19c-.37.91-1.08,1.62-2.13,2.14-1.05.52-2.47.78-4.27.78h-1.63v3.51h1.82c2.43,0,4.37-.56,5.81-1.67,1.45-1.12,2.4-2.7,2.87-4.76h.91s1.78,0,1.78,0h11.41c1.98,0,3.52-.33,4.61-.99.46.38.96.63,1.49.78.53.14,1.11.21,1.75.21h0s0,0,0,0c1.18,0,2.07-.26,2.66-.78.6-.52,1.01-1.37,1.24-2.54h.13c.25,1.14.74,1.98,1.47,2.52.73.54,1.79.8,3.16.8h0s0,0,0,0c1.14,0,2.01-.26,2.6-.78.59-.52.99-1.37,1.21-2.54h.16c.25,1.14.75,1.98,1.51,2.52.76.54,1.83.8,3.23.8h0s0,0,0,0h1.79c1.71-.02,2.93-.46,3.66-1.33.72-.87,1.08-2.22,1.08-4.06v-14.44l-2.84.66v13.77ZM271.77,63.71h-3.32c-.75,0-1.33-.12-1.73-.37-.4-.25-.6-.66-.6-1.23,0-.68.24-1.24.72-1.69.48-.44,1.1-.67,1.85-.67.91,0,1.65.33,2.22.99.57.66.86,1.55.86,2.68v.29ZM291.38,63.22c-.66.33-1.78.5-3.37.5h-7.02l-.08-.16,1.15-1.74c.41-.62.82-1.14,1.23-1.54.41-.4.86-.71,1.35-.94.49-.22,1.03-.38,1.62-.45.59-.08,1.28-.12,2.06-.12h.8c1.13,0,1.95.21,2.46.64.52.43.78,1.08.78,1.95s-.33,1.53-.99,1.86Z"/>
          <path d="M190.59,35.01c.59-.23,1.09-.62,1.5-1.2l7.15,2.12,2.25-3.35v-.94c0-2.27-.41-4.05-1.23-5.33-.82-1.28-2.01-1.93-3.56-1.93-.62,0-1.18.1-1.66.29-.48.2-.91.47-1.29.82s-.71.76-.99,1.24c-.28.48-.53,1-.75,1.56l-.75,1.87c-.23.61-.5,1.04-.8,1.29-.3.25-.8.37-1.47.37h0s0,0,0,0h-19.9s-.72,0-.72,0h-.11c-.66,0-1.13-.12-1.41-.35-.28-.23-.42-.64-.42-1.23v-9.27l-2.81.66v1.16l-2.92,1.5c-1.44.75-2.56,1.56-3.33,2.44-.78.88-1.16,1.98-1.16,3.32,0,1.23.33,2.18.98,2.85.65.67,1.6,1,2.85,1,1.02,0,1.8-.23,2.34-.68.54-.45.95-1.24,1.22-2.37h.16v.22c0,1.39.36,2.45,1.08,3.16.72.71,1.9,1.08,3.52,1.1h0s0,0,0,0h19.9s0,0,0,0h0c.96,0,1.74-.11,2.33-.33ZM193.67,29.9c.23-.65.54-1.15.94-1.49.39-.34.9-.52,1.52-.52.86,0,1.54.33,2.05.98.51.66.76,1.58.76,2.76v.57l-5.52-1.63.24-.68ZM163.61,28.84c0,.59-.21,1-.63,1.23-.42.23-1.15.35-2.21.35-.8,0-1.36-.1-1.67-.31-.31-.2-.47-.55-.47-1.03,0-.53.22-.98.67-1.34.45-.35,1.15-.77,2.12-1.23l2.2-1.1v3.43Z"/>
          <path d="M227.97,29.97c0,.64-.14,1.12-.41,1.42-.28.3-.77.46-1.49.46h-1.07s0,0,0,0h-3.64l-.03-.08c.48-.38.89-.72,1.22-1.03.33-.31.6-.63.82-.95.21-.32.37-.66.47-1.02.1-.36.15-.78.15-1.26,0-2.87-1.91-4.31-5.73-4.31-.93,0-1.88.11-2.85.34-.97.22-1.89.54-2.74.95v3.62l2.95,3.62-.05.13h-5.44s0,0,0,0h-.83c-.8,0-1.37-.13-1.7-.4-.33-.27-.5-.79-.5-1.55v-14.36l-2.87.66v14.07c0,1.82.42,3.12,1.24,3.91.83.79,2.13,1.18,3.9,1.18h.03s3.99,0,3.99,0c.89,0,1.76-.11,2.6-.34.84-.22,1.63-.58,2.39-1.06.75.48,1.58.83,2.5,1.06.92.22,1.82.34,2.72.34h.7s0,0,0,0h1.79c1.71-.02,2.93-.46,3.66-1.33.72-.87,1.08-2.22,1.08-4.06v-14.44l-2.84.66v13.77ZM220.6,29.8c-.22.18-.49.39-.79.64l-1.23,1.02-3.59-4.21v-.16c.48-.12,1.01-.22,1.58-.29.57-.07,1.12-.11,1.66-.11,1.18,0,2.03.12,2.56.36.53.24.79.63.79,1.16,0,.22-.03.41-.11.58-.07.17-.18.34-.32.5-.14.16-.33.33-.55.51Z"/>
          <polygon points="234.27 35.35 237.14 35.35 237.14 15.53 234.27 16.19 234.27 35.35"/>
          <path d="M278.98,21.61h-1.9c-1.25,0-1.87-.32-1.87-.97,0-.21.1-.4.29-.55.19-.15.45-.23.75-.23.52,0,.98.21,1.39.64l1.21-1.62c-.3-.35-.69-.64-1.16-.85-.47-.21-.95-.32-1.43-.32-.8,0-1.47.24-1.99.72-.53.48-.79,1.08-.79,1.81,0,.55.17,1.02.51,1.41l-.03.11h-1.07l-.66,1.98h6.77v-2.14Z"/>
          <polygon points="284.61 38.99 282.61 37 280.28 39.33 282.61 41.65 284.61 39.66 286.6 41.65 288.93 39.33 286.6 37 284.61 38.99"/>
          <path d="M247.39,33.93c1.02,0,1.8-.23,2.34-.68.54-.45.95-1.24,1.22-2.37h.16v.22c0,1.39.36,2.45,1.08,3.16.72.71,1.9,1.08,3.52,1.1h0s0,0,0,0h15.14c1.18,0,2.07-.26,2.66-.78.6-.52,1.01-1.37,1.24-2.54h.13c.25,1.14.74,1.98,1.47,2.52.73.54,1.79.8,3.16.8h0s0,0,0,0c1.18,0,2.07-.26,2.66-.78.6-.52,1.01-1.37,1.24-2.54h.13c.25,1.14.74,1.98,1.47,2.52.73.54,1.79.8,3.16.8h1.71c.95,0,1.86-.11,2.74-.34.89-.22,1.73-.58,2.53-1.06.8.48,1.65.83,2.55,1.06.89.22,1.81.34,2.76.34h.22s2.73,0,2.73,0h3.46s0,0,0,0h1.79c1.71-.02,2.93-.46,3.66-1.33.72-.87,1.08-2.22,1.08-4.06v-14.44l-2.84.66v13.77c0,.64-.14,1.12-.41,1.42-.28.3-.77.46-1.49.46h-3.08v-.3c0-1.03-.11-1.98-.34-2.84-.22-.86-.57-1.65-1.05-2.37-.47-.72-1.07-1.39-1.79-2-.72-.61-1.59-1.17-2.61-1.69l-4.21-2.17-.83,1.66c-.64.05-1.24.24-1.79.55-.55.31-1.03.71-1.43,1.2-.4.49-.71,1.06-.94,1.71-.22.65-.34,1.34-.34,2.05,0,1.55.62,2.9,1.88,4.05l-.06.13h-3.19s-1.02,0-1.02,0c-1.34,0-2.01-.67-2.01-2.01v-3.94l-2.63.66v3.27c0,1.34-.73,2.01-2.2,2.01h-1.85c-1.34,0-2.01-.67-2.01-2.01v-3.94l-2.63.66v3.27c0,1.34-.73,2.01-2.2,2.01h-.83s-15.14,0-15.14,0h-.83c-.66,0-1.13-.12-1.41-.35-.28-.23-.42-.64-.42-1.23v-9.27l-2.81.66v1.16l-2.92,1.5c-1.44.75-2.56,1.56-3.33,2.44-.78.88-1.16,1.98-1.16,3.32,0,1.23.33,2.18.98,2.85.65.67,1.6,1,2.85,1ZM300.14,27.66c0-.23-.01-.45-.04-.67-.03-.21-.06-.43-.09-.64l.05-.05c1.09.64,1.88,1.39,2.38,2.22.5.84.75,1.87.75,3.1v.22h-4.87l-.05-.13c1.25-1.14,1.87-2.49,1.87-4.05ZM293.27,25.73c.45-.5,1.06-.75,1.81-.75h.29c.75,0,1.35.25,1.81.75s.68,1.18.68,2.04c0,.71-.23,1.37-.68,1.97-.45.6-1.11,1.14-1.97,1.62-.84-.48-1.49-1.02-1.94-1.62-.46-.6-.68-1.25-.68-1.97,0-.86.23-1.53.68-2.04ZM246.67,27.74c.44-.35,1.15-.77,2.12-1.23l2.2-1.1v3.43c0,.59-.21,1-.63,1.23-.42.23-1.15.35-2.21.35-.8,0-1.36-.1-1.67-.31-.31-.2-.47-.55-.47-1.03,0-.53.22-.98.67-1.34Z"/>
          <polygon points="316.91 16.19 316.91 35.35 319.77 35.35 319.77 15.53 316.91 16.19"/>
          <polygon points="250.43 17.88 252.43 19.88 254.76 17.55 252.43 15.22 250.43 17.22 248.44 15.22 246.11 17.55 248.44 19.88 250.43 17.88"/>
          <polygon points="162.96 17.88 164.95 19.88 167.28 17.55 164.95 15.22 162.96 17.22 160.96 15.22 158.63 17.55 160.96 19.88 162.96 17.88"/>
          <polygon points="300.9 53.32 298.91 51.33 296.58 53.65 298.91 55.98 300.9 53.99 302.9 55.98 305.23 53.65 302.9 51.33 300.9 53.32"/>
          <polygon points="256.96 70.86 254.97 68.87 252.64 71.2 254.97 73.53 256.96 71.53 258.96 73.53 261.28 71.2 258.96 68.87 256.96 70.86"/>
          <polygon points="165.07 76.8 163.07 74.8 160.74 77.13 163.07 79.46 165.07 77.47 167.06 79.46 169.39 77.13 167.06 74.8 165.07 76.8"/>
          <rect x="201.25" y="45.63" width="3.29" height="3.29" transform="translate(25.99 157.31) rotate(-45)"/>
        </g>
      </g>
    </g>
  </g>
</svg>