<svg width="18" height="19" viewBox="0 0 18 19" fill="none" xmlns="http://www.w3.org/2000/svg">
<path d="M9.34582 17.5625C9.21832 17.5625 9.09082 17.5625 8.96332 17.555C4.76332 17.3675 1.25332 13.985 0.960816 9.85999C0.705816 6.31999 2.75332 3.01249 6.05332 1.62499C6.99082 1.23499 7.48582 1.53499 7.69582 1.75249C7.90582 1.96249 8.19832 2.44999 7.80832 3.34249C7.46332 4.13749 7.29082 4.98499 7.29832 5.85499C7.31332 9.17749 10.0733 11.9975 13.4408 12.1325C13.9283 12.155 14.4083 12.1175 14.8733 12.035C15.8633 11.855 16.2758 12.2525 16.4333 12.5075C16.5908 12.7625 16.7708 13.31 16.1708 14.12C14.5808 16.295 12.0533 17.5625 9.34582 17.5625ZM2.07832 9.77749C2.33332 13.3475 5.37832 16.2725 9.00832 16.43C11.4758 16.55 13.8158 15.425 15.2558 13.46C15.3683 13.3025 15.4208 13.19 15.4433 13.13C15.3758 13.1225 15.2558 13.115 15.0683 13.1525C14.5208 13.25 13.9508 13.2875 13.3883 13.265C9.42832 13.1075 6.18832 9.78499 6.16582 5.86999C6.16582 4.83499 6.36832 3.83749 6.78082 2.89999C6.85582 2.73499 6.87082 2.62249 6.87832 2.56249C6.81082 2.56249 6.69082 2.57749 6.49582 2.65999C3.63832 3.85999 1.86832 6.72499 2.07832 9.77749Z" fill="currentColor"/>
</svg>
