<svg width="18" height="19" viewBox="0 0 18 19" fill="none" xmlns="http://www.w3.org/2000/svg">
<path d="M11.25 17.5625H6.75C2.6775 17.5625 0.9375 15.8225 0.9375 11.75V7.25C0.9375 3.1775 2.6775 1.4375 6.75 1.4375H11.25C15.3225 1.4375 17.0625 3.1775 17.0625 7.25V11.75C17.0625 15.8225 15.3225 17.5625 11.25 17.5625ZM6.75 2.5625C3.2925 2.5625 2.0625 3.7925 2.0625 7.25V11.75C2.0625 15.2075 3.2925 16.4375 6.75 16.4375H11.25C14.7075 16.4375 15.9375 15.2075 15.9375 11.75V7.25C15.9375 3.7925 14.7075 2.5625 11.25 2.5625H6.75Z" fill="currentColor"/>
<path d="M5.49749 11.93C5.37749 11.93 5.25749 11.8925 5.15249 11.81C4.90499 11.6225 4.85999 11.27 5.04749 11.0225L6.83249 8.70501C7.04999 8.42751 7.35749 8.24751 7.70999 8.20251C8.05499 8.15751 8.40749 8.25501 8.68499 8.47251L10.0575 9.55251C10.11 9.59751 10.1625 9.59751 10.2 9.59001C10.23 9.59001 10.2825 9.57501 10.3275 9.51501L12.06 7.28001C12.2475 7.03251 12.6075 6.98751 12.8475 7.18251C13.095 7.37001 13.14 7.72251 12.945 7.97001L11.2125 10.205C10.995 10.4825 10.6875 10.6625 10.335 10.7C9.98249 10.745 9.63749 10.6475 9.35999 10.43L7.98749 9.35001C7.93499 9.30501 7.87499 9.30501 7.84499 9.31251C7.81499 9.31251 7.76249 9.32751 7.71749 9.38751L5.93249 11.705C5.83499 11.855 5.66999 11.93 5.49749 11.93Z" fill="currentColor"/>
</svg>
