<svg width="18" height="19" viewBox="0 0 18 19" fill="none" xmlns="http://www.w3.org/2000/svg">
<path d="M12 17.5626H6C2.535 17.5626 1.89 15.9501 1.725 14.3826L1.1625 8.37507C1.08 7.58757 1.0575 6.42507 1.8375 5.55507C2.5125 4.80507 3.63 4.44507 5.25 4.44507H12.75C14.3775 4.44507 15.495 4.81257 16.1625 5.55507C16.9425 6.42507 16.92 7.58757 16.8375 8.38257L16.275 14.3751C16.11 15.9501 15.465 17.5626 12 17.5626ZM5.25 5.56257C3.9825 5.56257 3.1125 5.81007 2.67 6.30507C2.3025 6.71007 2.1825 7.33257 2.28 8.26257L2.8425 14.2701C2.97 15.4551 3.2925 16.4376 6 16.4376H12C14.7 16.4376 15.03 15.4551 15.1575 14.2626L15.72 8.27007C15.8175 7.33257 15.6975 6.71007 15.33 6.30507C14.8875 5.81007 14.0175 5.56257 12.75 5.56257H5.25Z" fill="currentColor"/>
<path d="M12 5.5625C11.6925 5.5625 11.4375 5.3075 11.4375 5V4.4C11.4375 3.065 11.4375 2.5625 9.6 2.5625H8.4C6.5625 2.5625 6.5625 3.065 6.5625 4.4V5C6.5625 5.3075 6.3075 5.5625 6 5.5625C5.6925 5.5625 5.4375 5.3075 5.4375 5V4.4C5.4375 3.08 5.4375 1.4375 8.4 1.4375H9.6C12.5625 1.4375 12.5625 3.08 12.5625 4.4V5C12.5625 5.3075 12.3075 5.5625 12 5.5625Z" fill="currentColor"/>
<path d="M9 13.0625C6.9375 13.0625 6.9375 11.7875 6.9375 11.0225V10.25C6.9375 9.1925 7.1925 8.9375 8.25 8.9375H9.75C10.8075 8.9375 11.0625 9.1925 11.0625 10.25V11C11.0625 11.78 11.0625 13.0625 9 13.0625ZM8.0625 10.0625C8.0625 10.1225 8.0625 10.19 8.0625 10.25V11.0225C8.0625 11.795 8.0625 11.9375 9 11.9375C9.9375 11.9375 9.9375 11.8175 9.9375 11.015V10.25C9.9375 10.19 9.9375 10.1225 9.9375 10.0625C9.8775 10.0625 9.81 10.0625 9.75 10.0625H8.25C8.19 10.0625 8.1225 10.0625 8.0625 10.0625Z" fill="currentColor"/>
<path d="M10.5 11.5774C10.2225 11.5774 9.975 11.3674 9.945 11.0824C9.9075 10.7749 10.125 10.4899 10.4325 10.4524C12.4125 10.2049 14.31 9.45494 15.9075 8.29244C16.155 8.10494 16.5075 8.16494 16.695 8.41994C16.875 8.66744 16.8225 9.01994 16.5675 9.20744C14.8125 10.4824 12.7425 11.2999 10.5675 11.5774C10.545 11.5774 10.5225 11.5774 10.5 11.5774Z" fill="currentColor"/>
<path d="M7.49999 11.5849C7.47749 11.5849 7.45499 11.5849 7.43249 11.5849C5.37749 11.3524 3.37499 10.6024 1.64249 9.41743C1.38749 9.24493 1.31999 8.89243 1.49249 8.63743C1.66499 8.38243 2.01749 8.31493 2.27249 8.48743C3.85499 9.56743 5.67749 10.2499 7.55249 10.4674C7.85999 10.5049 8.08499 10.7824 8.04749 11.0899C8.02499 11.3749 7.78499 11.5849 7.49999 11.5849Z" fill="currentColor"/>
</svg>

<svg class="active" width="20" height="20" viewBox="0 0 20 20" fill="none" xmlns="http://www.w3.org/2000/svg">
<path d="M17.5749 5.81676C16.8665 5.03343 15.6832 4.64176 13.9665 4.64176H13.7665V4.60843C13.7665 3.20843 13.7665 1.4751 10.6332 1.4751H9.36653C6.2332 1.4751 6.2332 3.21676 6.2332 4.60843V4.6501H6.0332C4.3082 4.6501 3.1332 5.04176 2.42487 5.8251C1.59987 6.74176 1.62487 7.9751 1.7082 8.81676L1.71654 8.8751L1.77732 9.51338C1.79159 9.66315 1.87234 9.79853 1.99834 9.88076C2.20039 10.0126 2.51013 10.2114 2.69987 10.3168C2.81654 10.3918 2.94154 10.4584 3.06654 10.5251C4.49154 11.3084 6.0582 11.8334 7.64987 12.0918C7.72487 12.8751 8.06653 13.7918 9.89153 13.7918C11.7165 13.7918 12.0749 12.8834 12.1332 12.0751C13.8332 11.8001 15.4749 11.2084 16.9582 10.3418C17.0082 10.3168 17.0415 10.2918 17.0832 10.2668C17.4034 10.0858 17.7352 9.8641 18.0398 9.64542C18.153 9.56415 18.2253 9.43801 18.2407 9.29951L18.2499 9.21676L18.2915 8.8251C18.2999 8.7751 18.2999 8.73343 18.3082 8.6751C18.3749 7.83343 18.3582 6.68343 17.5749 5.81676ZM10.9082 11.5251C10.9082 12.4084 10.9082 12.5418 9.8832 12.5418C8.8582 12.5418 8.8582 12.3834 8.8582 11.5334V10.4834H10.9082V11.5251ZM7.42487 4.64176V4.60843C7.42487 3.19176 7.42487 2.66676 9.36653 2.66676H10.6332C12.5749 2.66676 12.5749 3.2001 12.5749 4.60843V4.6501H7.42487V4.64176Z" fill="currentColor"/>
<path d="M17.2599 11.509C17.614 11.3417 18.0212 11.6223 17.9858 12.0123L17.7002 15.1583C17.5252 16.8249 16.8419 18.5249 13.1752 18.5249H6.82519C3.15853 18.5249 2.4752 16.8249 2.3002 15.1666L2.02948 12.1888C1.99444 11.8033 2.39276 11.5233 2.7458 11.6819C3.705 12.113 5.317 12.8064 6.35299 13.0854C6.51699 13.1295 6.65014 13.2476 6.72454 13.4003C7.23875 14.4555 8.32794 15.0166 9.89186 15.0166C11.4404 15.0166 12.5429 14.4339 13.059 13.3755C13.1335 13.2227 13.2666 13.1047 13.4307 13.0603C14.5325 12.7618 16.2538 11.9845 17.2599 11.509Z" fill="currentColor"/>
</svg>
