<svg width="17" height="16" viewBox="0 0 17 16" fill="none" xmlns="http://www.w3.org/2000/svg">
<path d="M11.8334 14.1668H5.16671C2.73337 14.1668 1.33337 12.7668 1.33337 10.3335V5.66683C1.33337 3.2335 2.73337 1.8335 5.16671 1.8335H11.8334C14.2667 1.8335 15.6667 3.2335 15.6667 5.66683V10.3335C15.6667 12.7668 14.2667 14.1668 11.8334 14.1668ZM5.16671 2.8335C3.26004 2.8335 2.33337 3.76016 2.33337 5.66683V10.3335C2.33337 12.2402 3.26004 13.1668 5.16671 13.1668H11.8334C13.74 13.1668 14.6667 12.2402 14.6667 10.3335V5.66683C14.6667 3.76016 13.74 2.8335 11.8334 2.8335H5.16671Z" fill="currentColor"/>
<path d="M8.49981 8.57998C7.93981 8.57998 7.37315 8.40665 6.93981 8.05331L4.85314 6.38665C4.63981 6.21331 4.59981 5.89998 4.77315 5.68665C4.94648 5.47331 5.25982 5.43332 5.47315 5.60665L7.55981 7.27332C8.06648 7.67998 8.92647 7.67998 9.43314 7.27332L11.5198 5.60665C11.7331 5.43332 12.0531 5.46665 12.2198 5.68665C12.3931 5.89998 12.3598 6.21998 12.1398 6.38665L10.0531 8.05331C9.62648 8.40665 9.05981 8.57998 8.49981 8.57998Z" fill="currentColor"/>
</svg>
