<svg width="18" height="19" viewBox="0 0 18 19" fill="none" xmlns="http://www.w3.org/2000/svg">
<path d="M9 14.75C11.8995 14.75 14.25 12.3995 14.25 9.5C14.25 6.60051 11.8995 4.25 9 4.25C6.10051 4.25 3.75 6.60051 3.75 9.5C3.75 12.3995 6.10051 14.75 9 14.75Z" fill="currentColor"/>
<path d="M9 17.72C8.5875 17.72 8.25 17.4125 8.25 17V16.94C8.25 16.5275 8.5875 16.19 9 16.19C9.4125 16.19 9.75 16.5275 9.75 16.94C9.75 17.3525 9.4125 17.72 9 17.72ZM14.355 15.605C14.16 15.605 13.9725 15.53 13.8225 15.3875L13.725 15.29C13.4325 14.9975 13.4325 14.525 13.725 14.2325C14.0175 13.94 14.49 13.94 14.7825 14.2325L14.88 14.33C15.1725 14.6225 15.1725 15.095 14.88 15.3875C14.7375 15.53 14.55 15.605 14.355 15.605ZM3.645 15.605C3.45 15.605 3.2625 15.53 3.1125 15.3875C2.82 15.095 2.82 14.6225 3.1125 14.33L3.21 14.2325C3.5025 13.94 3.975 13.94 4.2675 14.2325C4.56 14.525 4.56 14.9975 4.2675 15.29L4.17 15.3875C4.0275 15.53 3.8325 15.605 3.645 15.605ZM16.5 10.25H16.44C16.0275 10.25 15.69 9.9125 15.69 9.5C15.69 9.0875 16.0275 8.75 16.44 8.75C16.8525 8.75 17.22 9.0875 17.22 9.5C17.22 9.9125 16.9125 10.25 16.5 10.25ZM1.56 10.25H1.5C1.0875 10.25 0.75 9.9125 0.75 9.5C0.75 9.0875 1.0875 8.75 1.5 8.75C1.9125 8.75 2.28 9.0875 2.28 9.5C2.28 9.9125 1.9725 10.25 1.56 10.25ZM14.2575 4.9925C14.0625 4.9925 13.875 4.9175 13.725 4.775C13.4325 4.4825 13.4325 4.01 13.725 3.7175L13.8225 3.62C14.115 3.3275 14.5875 3.3275 14.88 3.62C15.1725 3.9125 15.1725 4.385 14.88 4.6775L14.7825 4.775C14.64 4.9175 14.4525 4.9925 14.2575 4.9925ZM3.7425 4.9925C3.5475 4.9925 3.36 4.9175 3.21 4.775L3.1125 4.67C2.82 4.3775 2.82 3.905 3.1125 3.6125C3.405 3.32 3.8775 3.32 4.17 3.6125L4.2675 3.71C4.56 4.0025 4.56 4.475 4.2675 4.7675C4.125 4.9175 3.93 4.9925 3.7425 4.9925ZM9 2.78C8.5875 2.78 8.25 2.4725 8.25 2.06V2C8.25 1.5875 8.5875 1.25 9 1.25C9.4125 1.25 9.75 1.5875 9.75 2C9.75 2.4125 9.4125 2.78 9 2.78Z" fill="currentColor"/>
</svg>
