<svg width="16" height="16" viewBox="0 0 16 16" fill="none" xmlns="http://www.w3.org/2000/svg">
<path d="M11.3333 3.83398H14.1666V4.16732H1.83325V3.83398H4.66659H5.16659V3.33398V2.00065C5.16659 1.90861 5.24121 1.83398 5.33325 1.83398H10.6666C10.7586 1.83398 10.8333 1.9086 10.8333 2.00065V3.33398V3.83398H11.3333ZM3.99992 6.16732H3.49992V6.66732V13.334V13.834H3.99992H11.9999H12.4999V13.334V6.66732V6.16732H11.9999H3.99992ZM5.99992 2.16732H5.49992V2.66732V3.33398V3.83398H5.99992H9.99992H10.4999V3.33398V2.66732V2.16732H9.99992H5.99992ZM3.16659 5.83398H12.8333V14.0007C12.8333 14.0927 12.7586 14.1673 12.6666 14.1673H3.33325C3.2412 14.1673 3.16659 14.0927 3.16659 14.0007V5.83398ZM6.49992 8.50065H6.83325V11.5007H6.49992V8.50065ZM9.16659 8.50065H9.49992V11.5007H9.16659V8.50065Z" fill="black" stroke="currentColor"/>
</svg>
