<svg width="20" height="20" viewBox="0 0 20 20" fill="none" xmlns="http://www.w3.org/2000/svg">
<g clip-path="url(#clip0_472_8029)">
<path d="M9.16669 3.33332H5.66669C4.26656 3.33332 3.56649 3.33332 3.03171 3.6058C2.56131 3.84549 2.17885 4.22794 1.93917 4.69834C1.66669 5.23312 1.66669 5.93319 1.66669 7.33332V14.3333C1.66669 15.7335 1.66669 16.4335 1.93917 16.9683C2.17885 17.4387 2.56131 17.8212 3.03171 18.0608C3.56649 18.3333 4.26656 18.3333 5.66669 18.3333H12.6667C14.0668 18.3333 14.7669 18.3333 15.3017 18.0608C15.7721 17.8212 16.1545 17.4387 16.3942 16.9683C16.6667 16.4335 16.6667 15.7335 16.6667 14.3333V10.8333M6.66666 13.3333H8.06212C8.46977 13.3333 8.67359 13.3333 8.86541 13.2873C9.03547 13.2464 9.19804 13.1791 9.34716 13.0877C9.51536 12.9847 9.65948 12.8405 9.94773 12.5523L17.9167 4.58332C18.607 3.89296 18.607 2.77368 17.9167 2.08332C17.2263 1.39296 16.107 1.39296 15.4167 2.08332L7.44772 10.0523C7.15946 10.3405 7.01534 10.4847 6.91227 10.6528C6.82088 10.802 6.75354 10.9645 6.71271 11.1346C6.66666 11.3264 6.66666 11.5302 6.66666 11.9379V13.3333Z" stroke="currentColor" stroke-width="1.5" stroke-linecap="round" stroke-linejoin="round"/>
</g>
<defs>
<clipPath id="clip0_472_8029">
<rect width="20" height="20" fill="white"/>
</clipPath>
</defs>
</svg>
