<svg width="18" height="19" viewBox="0 0 18 19" fill="none" xmlns="http://www.w3.org/2000/svg">
<path d="M6.86971 9.215C6.84721 9.215 6.83221 9.215 6.80971 9.215C6.77221 9.2075 6.71971 9.2075 6.67471 9.215C4.49971 9.1475 2.85721 7.4375 2.85721 5.33C2.85721 3.185 4.60471 1.4375 6.74971 1.4375C8.89471 1.4375 10.6422 3.185 10.6422 5.33C10.6347 7.4375 8.98471 9.1475 6.89221 9.215C6.88471 9.215 6.87721 9.215 6.86971 9.215ZM6.74971 2.5625C5.22721 2.5625 3.98221 3.8075 3.98221 5.33C3.98221 6.83 5.15221 8.0375 6.64471 8.09C6.68971 8.0825 6.78721 8.0825 6.88471 8.09C8.35471 8.0225 9.50971 6.815 9.51721 5.33C9.51721 3.8075 8.27221 2.5625 6.74971 2.5625Z" fill="currentColor"/>
<path d="M12.4047 9.3125C12.3822 9.3125 12.3597 9.3125 12.3372 9.305C12.0297 9.335 11.7147 9.1175 11.6847 8.81C11.6547 8.5025 11.8422 8.225 12.1497 8.1875C12.2397 8.18 12.3372 8.18 12.4197 8.18C13.5147 8.12 14.3697 7.22 14.3697 6.1175C14.3697 4.9775 13.4472 4.055 12.3072 4.055C11.9997 4.0625 11.7447 3.8075 11.7447 3.5C11.7447 3.1925 11.9997 2.9375 12.3072 2.9375C14.0622 2.9375 15.4947 4.37 15.4947 6.125C15.4947 7.85 14.1447 9.245 12.4272 9.3125C12.4197 9.3125 12.4122 9.3125 12.4047 9.3125Z" fill="currentColor"/>
<path d="M6.87721 17.4125C5.40721 17.4125 3.92971 17.0375 2.81221 16.2875C1.76971 15.5975 1.19971 14.6525 1.19971 13.625C1.19971 12.5975 1.76971 11.645 2.81221 10.9475C5.06221 9.455 8.70721 9.455 10.9422 10.9475C11.9772 11.6375 12.5547 12.5825 12.5547 13.61C12.5547 14.6375 11.9847 15.59 10.9422 16.2875C9.81721 17.0375 8.34721 17.4125 6.87721 17.4125ZM3.43471 11.8925C2.71471 12.3725 2.32471 12.9875 2.32471 13.6325C2.32471 14.27 2.72221 14.885 3.43471 15.3575C5.30221 16.61 8.45221 16.61 10.3197 15.3575C11.0397 14.8775 11.4297 14.2625 11.4297 13.6175C11.4297 12.98 11.0322 12.365 10.3197 11.8925C8.45221 10.6475 5.30221 10.6475 3.43471 11.8925Z" fill="currentColor"/>
<path d="M13.7547 16.0625C13.4922 16.0625 13.2597 15.8825 13.2072 15.6125C13.1472 15.305 13.3422 15.0125 13.6422 14.945C14.1147 14.8475 14.5497 14.66 14.8872 14.3975C15.3147 14.075 15.5472 13.67 15.5472 13.2425C15.5472 12.815 15.3147 12.41 14.8947 12.095C14.5647 11.84 14.1522 11.66 13.6647 11.5475C13.3647 11.48 13.1697 11.18 13.2372 10.8725C13.3047 10.5725 13.6047 10.3775 13.9122 10.445C14.5572 10.5875 15.1197 10.8425 15.5772 11.195C16.2747 11.72 16.6722 12.4625 16.6722 13.2425C16.6722 14.0225 16.2672 14.765 15.5697 15.2975C15.1047 15.6575 14.5197 15.92 13.8747 16.0475C13.8297 16.0625 13.7922 16.0625 13.7547 16.0625Z" fill="currentColor"/>
</svg>


<svg class="active" width="20" height="20" viewBox="0 0 20 20" fill="none" xmlns="http://www.w3.org/2000/svg">
<path d="M7.50008 1.66663C5.31675 1.66663 3.54175 3.44163 3.54175 5.62496C3.54175 7.76663 5.21675 9.49996 7.40008 9.57496C7.46675 9.56663 7.53341 9.56663 7.58341 9.57496C7.60008 9.57496 7.60841 9.57496 7.62508 9.57496C7.63341 9.57496 7.63341 9.57496 7.64175 9.57496C9.77508 9.49996 11.4501 7.76663 11.4584 5.62496C11.4584 3.44163 9.68341 1.66663 7.50008 1.66663Z" fill="currentColor"/>
<path d="M11.7333 11.7917C9.4083 10.2417 5.61663 10.2417 3.27497 11.7917C2.21663 12.5 1.6333 13.4583 1.6333 14.4833C1.6333 15.5083 2.21663 16.4583 3.26663 17.1583C4.4333 17.9417 5.96663 18.3333 7.49997 18.3333C9.0333 18.3333 10.5666 17.9417 11.7333 17.1583C12.7833 16.45 13.3666 15.5 13.3666 14.4667C13.3583 13.4417 12.7833 12.4917 11.7333 11.7917Z" fill="currentColor"/>
<path d="M16.6583 6.11671C16.7916 7.73338 15.6416 9.15004 14.05 9.34171C14.0416 9.34171 14.0416 9.34171 14.0333 9.34171H14.0083C13.9583 9.34171 13.9083 9.34171 13.8666 9.35838C13.0583 9.40004 12.3166 9.14171 11.7583 8.66671C12.6166 7.90004 13.1083 6.75004 13.0083 5.50004C12.95 4.82504 12.7166 4.20838 12.3666 3.68338C12.6833 3.52504 13.05 3.42504 13.425 3.39171C15.0583 3.25004 16.5166 4.46671 16.6583 6.11671Z" fill="currentColor"/>
<path d="M18.3251 13.825C18.2584 14.6334 17.7418 15.3334 16.8751 15.8084C16.0418 16.2667 14.9918 16.4834 13.9501 16.4584C14.5501 15.9167 14.9001 15.2417 14.9668 14.525C15.0501 13.4917 14.5584 12.5 13.5751 11.7084C13.0168 11.2667 12.3668 10.9167 11.6584 10.6584C13.5001 10.125 15.8168 10.4834 17.2418 11.6334C18.0084 12.25 18.4001 13.025 18.3251 13.825Z" fill="currentColor"/>
</svg>
