<svg width="40" height="41" viewBox="0 0 40 41" fill="none" xmlns="http://www.w3.org/2000/svg">
<g clip-path="url(#clip0_9067_87917)">
<path d="M9 1.04749H26.0439L34.25 8.58459V36.2975C34.25 38.0923 32.7948 39.5474 31 39.5475H9C7.20507 39.5475 5.75 38.0924 5.75 36.2975V4.29749C5.75 2.50256 7.20507 1.04749 9 1.04749Z" stroke="#D0D5DD" stroke-width="1.5"/>
<mask id="path-2-inside-1_9067_87917" fill="white">
<path d="M25 1.29739H33.5V9.79739H26C25.4477 9.79739 25 9.34968 25 8.79739V1.29739Z"/>
</mask>
<path d="M25 1.29739H33.5H25ZM33.5 10.7974H26C24.8954 10.7974 24 9.90196 24 8.79739H26H33.5V10.7974ZM26 10.7974C24.8954 10.7974 24 9.90196 24 8.79739V1.29739H26V8.79739V10.7974ZM33.5 1.29739V9.79739V1.29739Z" fill="#D0D5DD" mask="url(#path-2-inside-1_9067_87917)"/>
<rect x="1" y="20.2975" width="24" height="13" rx="2" fill="#6172F3"/>
<path d="M8.47828 29.0575H5.85828L5.43828 30.2975H3.64828L6.18828 23.2775H8.16828L10.7083 30.2975H8.89828L8.47828 29.0575ZM8.03828 27.7375L7.16828 25.1675L6.30828 27.7375H8.03828ZM13.1913 24.6475V26.0675H15.4813V27.3875H13.1913V28.9275H15.7813V30.2975H11.4813V23.2775H15.7813V24.6475H13.1913ZM22.2415 25.5375C22.2415 25.9442 22.1482 26.3175 21.9615 26.6575C21.7748 26.9908 21.4882 27.2608 21.1015 27.4675C20.7148 27.6742 20.2348 27.7775 19.6615 27.7775H18.6015V30.2975H16.8915V23.2775H19.6615C20.2215 23.2775 20.6948 23.3742 21.0815 23.5675C21.4682 23.7608 21.7582 24.0275 21.9515 24.3675C22.1448 24.7075 22.2415 25.0975 22.2415 25.5375ZM19.5315 26.4175C19.8582 26.4175 20.1015 26.3408 20.2615 26.1875C20.4215 26.0342 20.5015 25.8175 20.5015 25.5375C20.5015 25.2575 20.4215 25.0408 20.2615 24.8875C20.1015 24.7342 19.8582 24.6575 19.5315 24.6575H18.6015V26.4175H19.5315Z" fill="white"/>
</g>
<defs>
<clipPath id="clip0_9067_87917">
<rect width="40" height="40" fill="white" transform="translate(0 0.297485)"/>
</clipPath>
</defs>
</svg>
