<svg width="40" height="41" viewBox="0 0 40 41" fill="none" xmlns="http://www.w3.org/2000/svg">
<g clip-path="url(#clip0_9067_87815)">
<path d="M9 1.04749H26.0439L34.25 8.58459V36.2975C34.25 38.0923 32.7948 39.5474 31 39.5475H9C7.20507 39.5475 5.75 38.0924 5.75 36.2975V4.29749C5.75 2.50256 7.20507 1.04749 9 1.04749Z" stroke="#D0D5DD" stroke-width="1.5"/>
<mask id="path-2-inside-1_9067_87815" fill="white">
<path d="M25 1.29749H33.5V9.79749H26C25.4477 9.79749 25 9.34977 25 8.79749V1.29749Z"/>
</mask>
<path d="M25 1.29749H33.5H25ZM33.5 10.7975H26C24.8954 10.7975 24 9.90205 24 8.79749H26H33.5V10.7975ZM26 10.7975C24.8954 10.7975 24 9.90205 24 8.79749V1.29749H26V8.79749V10.7975ZM33.5 1.29749V9.79749V1.29749Z" fill="#D0D5DD" mask="url(#path-2-inside-1_9067_87815)"/>
<rect x="1" y="20.2975" width="24" height="13" rx="2" fill="#2D3282"/>
<path d="M3.36906 26.7775C3.36906 26.0842 3.51906 25.4675 3.81906 24.9275C4.11906 24.3808 4.53573 23.9575 5.06906 23.6575C5.60906 23.3508 6.21906 23.1975 6.89906 23.1975C7.7324 23.1975 8.44573 23.4175 9.03906 23.8575C9.6324 24.2975 10.0291 24.8975 10.2291 25.6575H8.34906C8.20906 25.3642 8.00906 25.1408 7.74906 24.9875C7.49573 24.8342 7.20573 24.7575 6.87906 24.7575C6.3524 24.7575 5.92573 24.9408 5.59906 25.3075C5.2724 25.6742 5.10906 26.1642 5.10906 26.7775C5.10906 27.3908 5.2724 27.8808 5.59906 28.2475C5.92573 28.6142 6.3524 28.7975 6.87906 28.7975C7.20573 28.7975 7.49573 28.7208 7.74906 28.5675C8.00906 28.4142 8.20906 28.1908 8.34906 27.8975H10.2291C10.0291 28.6575 9.6324 29.2575 9.03906 29.6975C8.44573 30.1308 7.7324 30.3475 6.89906 30.3475C6.21906 30.3475 5.60906 30.1975 5.06906 29.8975C4.53573 29.5908 4.11906 29.1675 3.81906 28.6275C3.51906 28.0875 3.36906 27.4708 3.36906 26.7775ZM13.8163 30.3675C13.3029 30.3675 12.8429 30.2842 12.4363 30.1175C12.0296 29.9508 11.7029 29.7042 11.4563 29.3775C11.2163 29.0508 11.0896 28.6575 11.0763 28.1975H12.8963C12.9229 28.4575 13.0129 28.6575 13.1663 28.7975C13.3196 28.9308 13.5196 28.9975 13.7663 28.9975C14.0196 28.9975 14.2196 28.9408 14.3663 28.8275C14.5129 28.7075 14.5863 28.5442 14.5863 28.3375C14.5863 28.1642 14.5263 28.0208 14.4063 27.9075C14.2929 27.7942 14.1496 27.7008 13.9763 27.6275C13.8096 27.5542 13.5696 27.4708 13.2563 27.3775C12.8029 27.2375 12.4329 27.0975 12.1463 26.9575C11.8596 26.8175 11.6129 26.6108 11.4063 26.3375C11.1996 26.0642 11.0963 25.7075 11.0963 25.2675C11.0963 24.6142 11.3329 24.1042 11.8063 23.7375C12.2796 23.3642 12.8963 23.1775 13.6563 23.1775C14.4296 23.1775 15.0529 23.3642 15.5263 23.7375C15.9996 24.1042 16.2529 24.6175 16.2863 25.2775H14.4363C14.4229 25.0508 14.3396 24.8742 14.1863 24.7475C14.0329 24.6142 13.8363 24.5475 13.5962 24.5475C13.3896 24.5475 13.2229 24.6042 13.0963 24.7175C12.9696 24.8242 12.9063 24.9808 12.9063 25.1875C12.9063 25.4142 13.0129 25.5908 13.2262 25.7175C13.4396 25.8442 13.7729 25.9808 14.2263 26.1275C14.6796 26.2808 15.0463 26.4275 15.3263 26.5675C15.6129 26.7075 15.8596 26.9108 16.0663 27.1775C16.2729 27.4442 16.3763 27.7875 16.3763 28.2075C16.3763 28.6075 16.2729 28.9708 16.0663 29.2975C15.8663 29.6242 15.5729 29.8842 15.1863 30.0775C14.7996 30.2708 14.3429 30.3675 13.8163 30.3675ZM19.9686 30.3675C19.4553 30.3675 18.9953 30.2842 18.5886 30.1175C18.1819 29.9508 17.8553 29.7042 17.6086 29.3775C17.3686 29.0508 17.2419 28.6575 17.2286 28.1975H19.0486C19.0753 28.4575 19.1653 28.6575 19.3186 28.7975C19.4719 28.9308 19.6719 28.9975 19.9186 28.9975C20.1719 28.9975 20.3719 28.9408 20.5186 28.8275C20.6653 28.7075 20.7386 28.5442 20.7386 28.3375C20.7386 28.1642 20.6786 28.0208 20.5586 27.9075C20.4453 27.7942 20.3019 27.7008 20.1286 27.6275C19.9619 27.5542 19.7219 27.4708 19.4086 27.3775C18.9553 27.2375 18.5853 27.0975 18.2986 26.9575C18.0119 26.8175 17.7653 26.6108 17.5586 26.3375C17.3519 26.0642 17.2486 25.7075 17.2486 25.2675C17.2486 24.6142 17.4853 24.1042 17.9586 23.7375C18.4319 23.3642 19.0486 23.1775 19.8086 23.1775C20.5819 23.1775 21.2053 23.3642 21.6786 23.7375C22.1519 24.1042 22.4053 24.6175 22.4386 25.2775H20.5886C20.5753 25.0508 20.4919 24.8742 20.3386 24.7475C20.1853 24.6142 19.9886 24.5475 19.7486 24.5475C19.5419 24.5475 19.3753 24.6042 19.2486 24.7175C19.1219 24.8242 19.0586 24.9808 19.0586 25.1875C19.0586 25.4142 19.1653 25.5908 19.3786 25.7175C19.5919 25.8442 19.9253 25.9808 20.3786 26.1275C20.8319 26.2808 21.1986 26.4275 21.4786 26.5675C21.7653 26.7075 22.0119 26.9108 22.2186 27.1775C22.4253 27.4442 22.5286 27.7875 22.5286 28.2075C22.5286 28.6075 22.4253 28.9708 22.2186 29.2975C22.0186 29.6242 21.7253 29.8842 21.3386 30.0775C20.9519 30.2708 20.4953 30.3675 19.9686 30.3675Z" fill="white"/>
</g>
<defs>
<clipPath id="clip0_9067_87815">
<rect width="40" height="40" fill="white" transform="translate(0 0.297485)"/>
</clipPath>
</defs>
</svg>
