<svg width="40" height="41" viewBox="0 0 40 41" fill="none" xmlns="http://www.w3.org/2000/svg">
<g clip-path="url(#clip0_9067_87773)">
<path d="M9 1.04749H26.0439L34.25 8.58459V36.2975C34.25 38.0923 32.7948 39.5474 31 39.5475H9C7.20507 39.5475 5.75 38.0924 5.75 36.2975V4.29749C5.75 2.50256 7.20507 1.04749 9 1.04749Z" stroke="#D0D5DD" stroke-width="1.5"/>
<mask id="path-2-inside-1_9067_87773" fill="white">
<path d="M25 1.29739H33.5V9.79739H26C25.4477 9.79739 25 9.34968 25 8.79739V1.29739Z"/>
</mask>
<path d="M25 1.29739H33.5H25ZM33.5 10.7974H26C24.8954 10.7974 24 9.90196 24 8.79739H26H33.5V10.7974ZM26 10.7974C24.8954 10.7974 24 9.90196 24 8.79739V1.29739H26V8.79739V10.7974ZM33.5 1.29739V9.79739V1.29739Z" fill="#D0D5DD" mask="url(#path-2-inside-1_9067_87773)"/>
<rect x="1" y="20.2975" width="21" height="13" rx="2" fill="#6172F3"/>
<path d="M8.67242 23.2775V24.6475H5.81242V26.1275H7.95242V27.4575H5.81242V30.2975H4.10242V23.2775H8.67242ZM11.2812 23.2775V30.2975H9.57117V23.2775H11.2812ZM17.1804 25.4975C17.0537 25.2642 16.8704 25.0875 16.6304 24.9675C16.3971 24.8408 16.1204 24.7775 15.8004 24.7775C15.2471 24.7775 14.8037 24.9608 14.4704 25.3275C14.1371 25.6875 13.9704 26.1708 13.9704 26.7775C13.9704 27.4242 14.1437 27.9308 14.4904 28.2975C14.8437 28.6575 15.3271 28.8375 15.9404 28.8375C16.3604 28.8375 16.7137 28.7308 17.0004 28.5175C17.2937 28.3042 17.5071 27.9975 17.6404 27.5975H15.4704V26.3375H19.1904V27.9275C19.0637 28.3542 18.8471 28.7508 18.5404 29.1175C18.2404 29.4842 17.8571 29.7808 17.3904 30.0075C16.9237 30.2342 16.3971 30.3475 15.8104 30.3475C15.1171 30.3475 14.4971 30.1975 13.9504 29.8975C13.4104 29.5908 12.9871 29.1675 12.6804 28.6275C12.3804 28.0875 12.2304 27.4708 12.2304 26.7775C12.2304 26.0842 12.3804 25.4675 12.6804 24.9275C12.9871 24.3808 13.4104 23.9575 13.9504 23.6575C14.4904 23.3508 15.1071 23.1975 15.8004 23.1975C16.6404 23.1975 17.3471 23.4008 17.9204 23.8075C18.5004 24.2142 18.8837 24.7775 19.0704 25.4975H17.1804Z" fill="white"/>
</g>
<defs>
<clipPath id="clip0_9067_87773">
<rect width="40" height="40" fill="white" transform="translate(0 0.297485)"/>
</clipPath>
</defs>
</svg>
