<svg width="40" height="41" viewBox="0 0 40 41" fill="none" xmlns="http://www.w3.org/2000/svg">
<g clip-path="url(#clip0_9067_87779)">
<path d="M9 1.04749H26.0439L34.25 8.58459V36.2975C34.25 38.0923 32.7948 39.5474 31 39.5475H9C7.20507 39.5475 5.75 38.0924 5.75 36.2975V4.29749C5.75 2.50256 7.20507 1.04749 9 1.04749Z" stroke="#D0D5DD" stroke-width="1.5"/>
<mask id="path-2-inside-1_9067_87779" fill="white">
<path d="M25 1.29749H33.5V9.79749H26C25.4477 9.79749 25 9.34977 25 8.79749V1.29749Z"/>
</mask>
<path d="M25 1.29749H33.5H25ZM33.5 10.7975H26C24.8954 10.7975 24 9.90205 24 8.79749H26H33.5V10.7975ZM26 10.7975C24.8954 10.7975 24 9.90205 24 8.79749V1.29749H26V8.79749V10.7975ZM33.5 1.29749V9.79749V1.29749Z" fill="#D0D5DD" mask="url(#path-2-inside-1_9067_87779)"/>
<rect x="1" y="20.2975" width="32" height="13" rx="2" fill="#2D3282"/>
<path d="M10.116 23.2775V30.2975H8.40602V27.4075H5.74602V30.2975H4.03602V23.2775H5.74602V26.0275H8.40602V23.2775H10.116ZM16.4005 23.2775V24.6475H14.5405V30.2975H12.8305V24.6475H10.9705V23.2775H16.4005ZM25.2087 23.2775V30.2975H23.4987V26.0875L21.9287 30.2975H20.5487L18.9687 26.0775V30.2975H17.2587V23.2775H19.2787L21.2487 28.1375L23.1987 23.2775H25.2087ZM28.1484 28.9775H30.3884V30.2975H26.4384V23.2775H28.1484V28.9775Z" fill="white"/>
</g>
<defs>
<clipPath id="clip0_9067_87779">
<rect width="40" height="40" fill="white" transform="translate(0 0.297485)"/>
</clipPath>
</defs>
</svg>
