<svg width="40" height="41" viewBox="0 0 40 41" fill="none" xmlns="http://www.w3.org/2000/svg">
<g clip-path="url(#clip0_9067_87881)">
<path d="M9 1.04749H26.0439L34.25 8.58459V36.2975C34.25 38.0923 32.7948 39.5474 31 39.5475H9C7.20507 39.5475 5.75 38.0924 5.75 36.2975V4.29749C5.75 2.50256 7.20507 1.04749 9 1.04749Z" stroke="#D0D5DD" stroke-width="1.5"/>
<mask id="path-2-inside-1_9067_87881" fill="white">
<path d="M25 1.29739H33.5V9.79739H26C25.4477 9.79739 25 9.34968 25 8.79739V1.29739Z"/>
</mask>
<path d="M25 1.29739H33.5H25ZM33.5 10.7974H26C24.8954 10.7974 24 9.90196 24 8.79739H26H33.5V10.7974ZM26 10.7974C24.8954 10.7974 24 9.90196 24 8.79739V1.29739H26V8.79739V10.7974ZM33.5 1.29739V9.79739V1.29739Z" fill="#D0D5DD" mask="url(#path-2-inside-1_9067_87881)"/>
<rect x="1" y="20.2975" width="29" height="13" rx="2" fill="#6172F3"/>
<path d="M5.33 23.2775V30.2975H3.62V23.2775H5.33ZM12.8492 30.2975H11.1392L8.27922 25.9675V30.2975H6.56922V23.2775H8.27922L11.1392 27.6275V23.2775H12.8492V30.2975ZM16.7188 23.2775C17.4588 23.2775 18.1054 23.4242 18.6588 23.7175C19.2121 24.0108 19.6388 24.4242 19.9388 24.9575C20.2454 25.4842 20.3988 26.0942 20.3988 26.7875C20.3988 27.4742 20.2454 28.0842 19.9388 28.6175C19.6388 29.1508 19.2088 29.5642 18.6488 29.8575C18.0954 30.1508 17.4521 30.2975 16.7188 30.2975H14.0888V23.2775H16.7188ZM16.6088 28.8175C17.2554 28.8175 17.7588 28.6408 18.1188 28.2875C18.4788 27.9342 18.6588 27.4342 18.6588 26.7875C18.6588 26.1408 18.4788 25.6375 18.1188 25.2775C17.7588 24.9175 17.2554 24.7375 16.6088 24.7375H15.7988V28.8175H16.6088ZM23.9844 23.2775C24.7244 23.2775 25.371 23.4242 25.9244 23.7175C26.4777 24.0108 26.9044 24.4242 27.2044 24.9575C27.511 25.4842 27.6644 26.0942 27.6644 26.7875C27.6644 27.4742 27.511 28.0842 27.2044 28.6175C26.9044 29.1508 26.4744 29.5642 25.9144 29.8575C25.361 30.1508 24.7177 30.2975 23.9844 30.2975H21.3544V23.2775H23.9844ZM23.8744 28.8175C24.521 28.8175 25.0244 28.6408 25.3844 28.2875C25.7444 27.9342 25.9244 27.4342 25.9244 26.7875C25.9244 26.1408 25.7444 25.6375 25.3844 25.2775C25.0244 24.9175 24.521 24.7375 23.8744 24.7375H23.0644V28.8175H23.8744Z" fill="white"/>
</g>
<defs>
<clipPath id="clip0_9067_87881">
<rect width="40" height="40" fill="white" transform="translate(0 0.297485)"/>
</clipPath>
</defs>
</svg>
