<svg width="40" height="41" viewBox="0 0 40 41" fill="none" xmlns="http://www.w3.org/2000/svg">
<g clip-path="url(#clip0_9067_87821)">
<path d="M9 1.04749H26.0439L34.25 8.58459V36.2975C34.25 38.0923 32.7948 39.5474 31 39.5475H9C7.20507 39.5475 5.75 38.0924 5.75 36.2975V4.29749C5.75 2.50256 7.20507 1.04749 9 1.04749Z" stroke="#D0D5DD" stroke-width="1.5"/>
<mask id="path-2-inside-1_9067_87821" fill="white">
<path d="M25 1.29749H33.5V9.79749H26C25.4477 9.79749 25 9.34977 25 8.79749V1.29749Z"/>
</mask>
<path d="M25 1.29749H33.5H25ZM33.5 10.7975H26C24.8954 10.7975 24 9.90205 24 8.79749H26H33.5V10.7975ZM26 10.7975C24.8954 10.7975 24 9.90205 24 8.79749V1.29749H26V8.79749V10.7975ZM33.5 1.29749V9.79749V1.29749Z" fill="#D0D5DD" mask="url(#path-2-inside-1_9067_87821)"/>
<rect x="1" y="20.2975" width="32" height="13" rx="2" fill="#2D3282"/>
<path d="M8.10398 23.2775V28.0575C8.10398 28.7975 7.89398 29.3675 7.47398 29.7675C7.06065 30.1675 6.50065 30.3675 5.79398 30.3675C5.05398 30.3675 4.46065 30.1575 4.01398 29.7375C3.56732 29.3175 3.34398 28.7208 3.34398 27.9475H5.04398C5.04398 28.2408 5.10398 28.4642 5.22398 28.6175C5.34398 28.7642 5.51732 28.8375 5.74398 28.8375C5.95065 28.8375 6.11065 28.7708 6.22398 28.6375C6.33732 28.5042 6.39398 28.3108 6.39398 28.0575V23.2775H8.10398ZM13.8552 29.0575H11.2352L10.8152 30.2975H9.02523L11.5652 23.2775H13.5452L16.0852 30.2975H14.2752L13.8552 29.0575ZM13.4152 27.7375L12.5452 25.1675L11.6852 27.7375H13.4152ZM23.4483 23.2775L20.9583 30.2975H18.8183L16.3283 23.2775H18.1483L19.8883 28.5775L21.6383 23.2775H23.4483ZM28.533 29.0575H25.913L25.493 30.2975H23.703L26.243 23.2775H28.223L30.763 30.2975H28.953L28.533 29.0575ZM28.093 27.7375L27.223 25.1675L26.363 27.7375H28.093Z" fill="white"/>
</g>
<defs>
<clipPath id="clip0_9067_87821">
<rect width="40" height="40" fill="white" transform="translate(0 0.297485)"/>
</clipPath>
</defs>
</svg>
