<svg width="40" height="41" viewBox="0 0 40 41" fill="none" xmlns="http://www.w3.org/2000/svg">
<g clip-path="url(#clip0_9067_87923)">
<path d="M9 1.04749H26.0439L34.25 8.58459V36.2975C34.25 38.0923 32.7948 39.5474 31 39.5475H9C7.20507 39.5475 5.75 38.0924 5.75 36.2975V4.29749C5.75 2.50256 7.20507 1.04749 9 1.04749Z" stroke="#D0D5DD" stroke-width="1.5"/>
<mask id="path-2-inside-1_9067_87923" fill="white">
<path d="M25 1.29749H33.5V9.79749H26C25.4477 9.79749 25 9.34977 25 8.79749V1.29749Z"/>
</mask>
<path d="M25 1.29749H33.5H25ZM33.5 10.7975H26C24.8954 10.7975 24 9.90205 24 8.79749H26H33.5V10.7975ZM26 10.7975C24.8954 10.7975 24 9.90205 24 8.79749V1.29749H26V8.79749V10.7975ZM33.5 1.29749V9.79749V1.29749Z" fill="#D0D5DD" mask="url(#path-2-inside-1_9067_87923)"/>
<rect x="1" y="20.2975" width="16" height="13" rx="2" fill="#2D3282"/>
<path d="M8.0532 23.2775V28.0575C8.0532 28.7975 7.8432 29.3675 7.4232 29.7675C7.00987 30.1675 6.44987 30.3675 5.7432 30.3675C5.0032 30.3675 4.40987 30.1575 3.9632 29.7375C3.51654 29.3175 3.2932 28.7208 3.2932 27.9475H4.9932C4.9932 28.2408 5.0532 28.4642 5.1732 28.6175C5.2932 28.7642 5.46654 28.8375 5.6932 28.8375C5.89987 28.8375 6.05987 28.7708 6.1732 28.6375C6.28654 28.5042 6.3432 28.3108 6.3432 28.0575V23.2775H8.0532ZM11.9745 30.3675C11.4611 30.3675 11.0011 30.2842 10.5945 30.1175C10.1878 29.9508 9.86112 29.7042 9.61445 29.3775C9.37445 29.0508 9.24779 28.6575 9.23445 28.1975H11.0545C11.0811 28.4575 11.1711 28.6575 11.3245 28.7975C11.4778 28.9308 11.6778 28.9975 11.9245 28.9975C12.1778 28.9975 12.3778 28.9408 12.5245 28.8275C12.6711 28.7075 12.7445 28.5442 12.7445 28.3375C12.7445 28.1642 12.6845 28.0208 12.5645 27.9075C12.4511 27.7942 12.3078 27.7008 12.1345 27.6275C11.9678 27.5542 11.7278 27.4708 11.4145 27.3775C10.9611 27.2375 10.5911 27.0975 10.3045 26.9575C10.0178 26.8175 9.77112 26.6108 9.56445 26.3375C9.35779 26.0642 9.25445 25.7075 9.25445 25.2675C9.25445 24.6142 9.49112 24.1042 9.96445 23.7375C10.4378 23.3642 11.0545 23.1775 11.8145 23.1775C12.5878 23.1775 13.2111 23.3642 13.6845 23.7375C14.1578 24.1042 14.4111 24.6175 14.4445 25.2775H12.5945C12.5811 25.0508 12.4978 24.8742 12.3445 24.7475C12.1911 24.6142 11.9945 24.5475 11.7545 24.5475C11.5478 24.5475 11.3811 24.6042 11.2545 24.7175C11.1278 24.8242 11.0645 24.9808 11.0645 25.1875C11.0645 25.4142 11.1711 25.5908 11.3845 25.7175C11.5978 25.8442 11.9311 25.9808 12.3845 26.1275C12.8378 26.2808 13.2045 26.4275 13.4845 26.5675C13.7711 26.7075 14.0178 26.9108 14.2245 27.1775C14.4311 27.4442 14.5345 27.7875 14.5345 28.2075C14.5345 28.6075 14.4311 28.9708 14.2245 29.2975C14.0245 29.6242 13.7311 29.8842 13.3445 30.0775C12.9578 30.2708 12.5011 30.3675 11.9745 30.3675Z" fill="white"/>
</g>
<defs>
<clipPath id="clip0_9067_87923">
<rect width="40" height="40" fill="white" transform="translate(0 0.297485)"/>
</clipPath>
</defs>
</svg>
