<svg width="40" height="41" viewBox="0 0 40 41" fill="none" xmlns="http://www.w3.org/2000/svg">
<g clip-path="url(#clip0_9067_87863)">
<path d="M9 1.04749H26.0439L34.25 8.58459V36.2975C34.25 38.0923 32.7948 39.5474 31 39.5475H9C7.20507 39.5475 5.75 38.0924 5.75 36.2975V4.29749C5.75 2.50256 7.20507 1.04749 9 1.04749Z" stroke="#D0D5DD" stroke-width="1.5"/>
<mask id="path-2-inside-1_9067_87863" fill="white">
<path d="M25 1.29739H33.5V9.79739H26C25.4477 9.79739 25 9.34968 25 8.79739V1.29739Z"/>
</mask>
<path d="M25 1.29739H33.5H25ZM33.5 10.7974H26C24.8954 10.7974 24 9.90196 24 8.79739H26H33.5V10.7974ZM26 10.7974C24.8954 10.7974 24 9.90196 24 8.79739V1.29739H26V8.79739V10.7974ZM33.5 1.29739V9.79739V1.29739Z" fill="#D0D5DD" mask="url(#path-2-inside-1_9067_87863)"/>
<rect x="1" y="20.2975" width="27" height="13" rx="2" fill="#FDB022"/>
<path d="M11.9763 23.2775V30.2975H10.2663V26.0875L8.69625 30.2975H7.31625L5.73625 26.0775V30.2975H4.02625V23.2775H6.04625L8.01625 28.1375L9.96625 23.2775H11.9763ZM18.5559 25.5375C18.5559 25.9442 18.4626 26.3175 18.2759 26.6575C18.0893 26.9908 17.8026 27.2608 17.4159 27.4675C17.0293 27.6742 16.5493 27.7775 15.9759 27.7775H14.9159V30.2975H13.2059V23.2775H15.9759C16.5359 23.2775 17.0093 23.3742 17.3959 23.5675C17.7826 23.7608 18.0726 24.0275 18.2659 24.3675C18.4593 24.7075 18.5559 25.0975 18.5559 25.5375ZM15.8459 26.4175C16.1726 26.4175 16.4159 26.3408 16.5759 26.1875C16.7359 26.0342 16.8159 25.8175 16.8159 25.5375C16.8159 25.2575 16.7359 25.0408 16.5759 24.8875C16.4159 24.7342 16.1726 24.6575 15.8459 24.6575H14.9159V26.4175H15.8459ZM19.3162 28.9975V27.6175L22.4762 23.0975H24.3862V27.5175H25.2062V28.9975H24.3862V30.2975H22.6762V28.9975H19.3162ZM22.7962 24.9775L21.1162 27.5175H22.7962V24.9775Z" fill="white"/>
</g>
<defs>
<clipPath id="clip0_9067_87863">
<rect width="40" height="40" fill="white" transform="translate(0 0.297485)"/>
</clipPath>
</defs>
</svg>
