<svg width="40" height="41" viewBox="0 0 40 41" fill="none" xmlns="http://www.w3.org/2000/svg">
<g clip-path="url(#clip0_9067_87845)">
<path d="M9 1.04749H26.0439L34.25 8.58459V36.2975C34.25 38.0923 32.7948 39.5474 31 39.5475H9C7.20507 39.5475 5.75 38.0924 5.75 36.2975V4.29749C5.75 2.50256 7.20507 1.04749 9 1.04749Z" stroke="#D0D5DD" stroke-width="1.5"/>
<mask id="path-2-inside-1_9067_87845" fill="white">
<path d="M25 1.29739H33.5V9.79739H26C25.4477 9.79739 25 9.34968 25 8.79739V1.29739Z"/>
</mask>
<path d="M25 1.29739H33.5H25ZM33.5 10.7974H26C24.8954 10.7974 24 9.90196 24 8.79739H26H33.5V10.7974ZM26 10.7974C24.8954 10.7974 24 9.90196 24 8.79739V1.29739H26V8.79739V10.7974ZM33.5 1.29739V9.79739V1.29739Z" fill="#D0D5DD" mask="url(#path-2-inside-1_9067_87845)"/>
<rect x="1" y="20.2975" width="22" height="13" rx="2" fill="#6172F3"/>
<path d="M8.1409 25.5375C8.1409 25.9442 8.04757 26.3175 7.8609 26.6575C7.67423 26.9908 7.38757 27.2608 7.0009 27.4675C6.61423 27.6742 6.13423 27.7775 5.5609 27.7775H4.5009V30.2975H2.7909V23.2775H5.5609C6.1209 23.2775 6.59423 23.3742 6.9809 23.5675C7.36757 23.7608 7.65757 24.0275 7.8509 24.3675C8.04423 24.7075 8.1409 25.0975 8.1409 25.5375ZM5.4309 26.4175C5.75757 26.4175 6.0009 26.3408 6.1609 26.1875C6.3209 26.0342 6.4009 25.8175 6.4009 25.5375C6.4009 25.2575 6.3209 25.0408 6.1609 24.8875C6.0009 24.7342 5.75757 24.6575 5.4309 24.6575H4.5009V26.4175H5.4309ZM11.5711 30.3675C11.0578 30.3675 10.5978 30.2842 10.1911 30.1175C9.78447 29.9508 9.4578 29.7042 9.21113 29.3775C8.97113 29.0508 8.84447 28.6575 8.83113 28.1975H10.6511C10.6778 28.4575 10.7678 28.6575 10.9211 28.7975C11.0745 28.9308 11.2745 28.9975 11.5211 28.9975C11.7745 28.9975 11.9745 28.9408 12.1211 28.8275C12.2678 28.7075 12.3411 28.5442 12.3411 28.3375C12.3411 28.1642 12.2811 28.0208 12.1611 27.9075C12.0478 27.7942 11.9045 27.7008 11.7311 27.6275C11.5645 27.5542 11.3245 27.4708 11.0111 27.3775C10.5578 27.2375 10.1878 27.0975 9.90113 26.9575C9.61447 26.8175 9.3678 26.6108 9.16113 26.3375C8.95447 26.0642 8.85113 25.7075 8.85113 25.2675C8.85113 24.6142 9.0878 24.1042 9.56113 23.7375C10.0345 23.3642 10.6511 23.1775 11.4111 23.1775C12.1845 23.1775 12.8078 23.3642 13.2811 23.7375C13.7545 24.1042 14.0078 24.6175 14.0411 25.2775H12.1911C12.1778 25.0508 12.0945 24.8742 11.9411 24.7475C11.7878 24.6142 11.5911 24.5475 11.3511 24.5475C11.1445 24.5475 10.9778 24.6042 10.8511 24.7175C10.7245 24.8242 10.6611 24.9808 10.6611 25.1875C10.6611 25.4142 10.7678 25.5908 10.9811 25.7175C11.1945 25.8442 11.5278 25.9808 11.9811 26.1275C12.4345 26.2808 12.8011 26.4275 13.0811 26.5675C13.3678 26.7075 13.6145 26.9108 13.8211 27.1775C14.0278 27.4442 14.1311 27.7875 14.1311 28.2075C14.1311 28.6075 14.0278 28.9708 13.8211 29.2975C13.6211 29.6242 13.3278 29.8842 12.9411 30.0775C12.5545 30.2708 12.0978 30.3675 11.5711 30.3675ZM17.8135 23.2775C18.5535 23.2775 19.2001 23.4242 19.7535 23.7175C20.3068 24.0108 20.7335 24.4242 21.0335 24.9575C21.3401 25.4842 21.4935 26.0942 21.4935 26.7875C21.4935 27.4742 21.3401 28.0842 21.0335 28.6175C20.7335 29.1508 20.3035 29.5642 19.7435 29.8575C19.1901 30.1508 18.5468 30.2975 17.8135 30.2975H15.1835V23.2775H17.8135ZM17.7035 28.8175C18.3501 28.8175 18.8535 28.6408 19.2135 28.2875C19.5735 27.9342 19.7535 27.4342 19.7535 26.7875C19.7535 26.1408 19.5735 25.6375 19.2135 25.2775C18.8535 24.9175 18.3501 24.7375 17.7035 24.7375H16.8935V28.8175H17.7035Z" fill="white"/>
</g>
<defs>
<clipPath id="clip0_9067_87845">
<rect width="40" height="40" fill="white" transform="translate(0 0.297485)"/>
</clipPath>
</defs>
</svg>
