<svg width="40" height="40" viewBox="0 0 40 40" fill="none" xmlns="http://www.w3.org/2000/svg">
<path d="M9 0.75H26.0439L34.25 8.28711V36C34.25 37.7949 32.7948 39.2499 31 39.25H9C7.20507 39.25 5.75 37.7949 5.75 36V4C5.75 2.20507 7.20507 0.75 9 0.75Z" stroke="#D0D5DD" stroke-width="1.5"/>
<mask id="path-2-inside-1_9067_87947" fill="white">
<path d="M25 0.999908H33.5V9.49991H26C25.4477 9.49991 25 9.05219 25 8.49991V0.999908Z"/>
</mask>
<path d="M25 0.999908H33.5H25ZM33.5 10.4999H26C24.8954 10.4999 24 9.60448 24 8.49991H26H33.5V10.4999ZM26 10.4999C24.8954 10.4999 24 9.60448 24 8.49991V0.999908H26V8.49991V10.4999ZM33.5 0.999908V9.49991V0.999908Z" fill="#D0D5DD" mask="url(#path-2-inside-1_9067_87947)"/>
<rect x="1" y="20" width="24" height="13" rx="2" fill="#6172F3"/>
<path d="M8.77254 22.98V24.35H6.91254V30H5.20254V24.35H3.34254V22.98H8.77254ZM11.3407 22.98V30H9.63074V22.98H11.3407ZM17.15 22.98V24.35H14.29V25.83H16.43V27.16H14.29V30H12.58V22.98H17.15ZM22.6187 22.98V24.35H19.7587V25.83H21.8987V27.16H19.7587V30H18.0487V22.98H22.6187Z" fill="white"/>
</svg>
