<svg width="40" height="41" viewBox="0 0 40 41" fill="none" xmlns="http://www.w3.org/2000/svg">
<g clip-path="url(#clip0_9067_88071)">
<path d="M9 1.04749H26.0439L34.25 8.58459V36.2975C34.25 38.0923 32.7948 39.5474 31 39.5475H9C7.20507 39.5475 5.75 38.0924 5.75 36.2975V4.29749C5.75 2.50256 7.20507 1.04749 9 1.04749Z" stroke="#D0D5DD" stroke-width="1.5"/>
<mask id="path-2-inside-1_9067_88071" fill="white">
<path d="M25 1.29749H33.5V9.79749H26C25.4477 9.79749 25 9.34977 25 8.79749V1.29749Z"/>
</mask>
<path d="M25 1.29749H33.5H25ZM33.5 10.7975H26C24.8954 10.7975 24 9.90205 24 8.79749H26H33.5V10.7975ZM26 10.7975C24.8954 10.7975 24 9.90205 24 8.79749V1.29749H26V8.79749V10.7975ZM33.5 1.29749V9.79749V1.29749Z" fill="#D0D5DD" mask="url(#path-2-inside-1_9067_88071)"/>
<rect x="1" y="20.2975" width="20" height="13" rx="2" fill="#344054"/>
<path d="M5.86676 28.8975H8.88676V30.2975H3.92676V28.9975L6.92676 24.6775H3.92676V23.2775H8.88676V24.5775L5.86676 28.8975ZM11.7138 23.2775V30.2975H10.0038V23.2775H11.7138ZM18.303 25.5375C18.303 25.9442 18.2097 26.3175 18.023 26.6575C17.8363 26.9908 17.5497 27.2608 17.163 27.4675C16.7763 27.6742 16.2963 27.7775 15.723 27.7775H14.663V30.2975H12.953V23.2775H15.723C16.283 23.2775 16.7563 23.3742 17.143 23.5675C17.5297 23.7608 17.8197 24.0275 18.013 24.3675C18.2063 24.7075 18.303 25.0975 18.303 25.5375ZM15.593 26.4175C15.9197 26.4175 16.163 26.3408 16.323 26.1875C16.483 26.0342 16.563 25.8175 16.563 25.5375C16.563 25.2575 16.483 25.0408 16.323 24.8875C16.163 24.7342 15.9197 24.6575 15.593 24.6575H14.663V26.4175H15.593Z" fill="white"/>
</g>
<defs>
<clipPath id="clip0_9067_88071">
<rect width="40" height="40" fill="white" transform="translate(0 0.297485)"/>
</clipPath>
</defs>
</svg>
